<svg width="60" height="60" viewBox="0 0 60 60" fill="none" xmlns="http://www.w3.org/2000/svg">
<mask id="mask0_70_2347" style="mask-type:luminance" maskUnits="userSpaceOnUse" x="0" y="0" width="60" height="57">
<path d="M0.0181885 56.7673V0.0424805H59.9514V56.7673" fill="white"/>
</mask>
<g mask="url(#mask0_70_2347)">
<path d="M42.1329 51.3966C41.0522 51.4299 39.9564 51.4299 38.8788 51.3966ZM14.0999 51.4299C12.8766 51.4451 11.6502 51.4299 10.4269 51.4299C9.20362 51.4299 8.68758 50.9295 8.66937 49.7195C8.65419 48.461 8.65419 47.2055 8.66937 45.947C8.66937 45.5588 8.54187 45.4314 8.15333 45.4314H1.69375C1.49948 45.4314 1.30824 45.4314 1.12914 45.3981C0.467402 45.2859 -0.0152446 44.6885 0.0181461 44.0122C0.0515367 43.3177 0.564539 42.787 1.30824 42.7719C2.35549 42.7385 3.41792 42.7719 4.46518 42.7719H8.13815C8.52366 42.7719 8.66937 42.6596 8.66937 42.2563C8.65419 41.1433 8.65419 40.0152 8.66937 38.9023C8.66937 38.5323 8.54187 38.417 8.16851 38.417H1.51466C1.04719 38.417 0.643462 38.3048 0.339911 37.9318C0.00296851 37.5285 -0.094168 37.0615 0.115283 36.5611C0.324733 36.0455 0.728457 35.7544 1.27485 35.7393C1.9032 35.7241 2.53155 35.7393 3.1599 35.7393H8.10476C8.50848 35.7393 8.66937 35.6422 8.66937 35.2085C8.63597 34.1289 8.63597 33.0311 8.66937 31.9515C8.66937 31.5148 8.52366 31.3875 8.08958 31.3875C5.88276 31.4026 3.69112 31.3875 1.4843 31.3875C0.695066 31.3875 0.115283 30.9205 0.0181461 30.2593C-0.109346 29.4042 0.500793 28.7127 1.43573 28.7127H6.2531C6.88145 28.7127 7.5098 28.6976 8.13815 28.7127C8.57223 28.7279 8.66937 28.552 8.66937 28.1487C8.65419 27.0842 8.65419 26.0046 8.66937 24.9402C8.66937 24.5217 8.55705 24.3609 8.10476 24.3609C5.96169 24.3761 3.83379 24.3609 1.69375 24.3609H1.37199C0.582752 24.3276 0.0181461 23.7635 0.0181461 23.0236C0.0181461 22.2836 0.564539 21.7013 1.38716 21.7013H6.28649C6.91484 21.7013 7.54319 21.6862 8.17154 21.7013C8.5267 21.7013 8.68758 21.6043 8.6724 21.2161C8.65722 20.1032 8.65722 18.975 8.6724 17.8621C8.6724 17.4587 8.51152 17.3465 8.14119 17.3465H1.4843C0.679888 17.3465 0.100105 16.8613 0.0181461 16.1699C-0.0789904 15.3329 0.534184 14.6718 1.45091 14.6718H6.26827C6.88145 14.6718 7.49159 14.6384 8.10476 14.6718C8.53884 14.6869 8.68454 14.5414 8.68454 14.1077C8.66937 12.9311 8.68454 11.7544 8.68454 10.5596C8.68454 9.15548 9.1854 8.6733 10.603 8.6733H14.1485C14.5674 8.6733 14.6949 8.52773 14.6797 8.1244V1.65283C14.6797 1.44358 14.6797 1.23433 14.7283 1.04024C14.874 0.379134 15.4841 -0.0575608 16.161 0.00915644C16.8379 0.072841 17.354 0.621742 17.354 1.36473V6.28361C17.354 6.91135 17.3692 7.54214 17.354 8.16988C17.354 8.5247 17.4511 8.68543 17.8366 8.68543C18.9658 8.67026 20.092 8.68543 21.2364 8.68543C21.5916 8.68543 21.6887 8.53986 21.6887 8.20021V1.44358C21.7039 0.57322 22.2533 -0.00903916 23.0425 0.00915644C23.7984 0.00915644 24.363 0.606579 24.363 1.44358V8.24873C24.363 8.58838 24.4905 8.68543 24.8153 8.68543H28.215C28.5854 8.68543 28.6977 8.53986 28.6977 8.18505V1.37989C28.7311 0.57322 29.2775 0.0243194 30.0364 0.0243194C30.7952 0.0243194 31.3568 0.588383 31.375 1.39505C31.3902 2.62023 31.375 3.8454 31.375 5.07057V8.13349C31.375 8.53683 31.4873 8.69756 31.9062 8.68239C33.0021 8.66723 34.1131 8.66723 35.2089 8.68239C35.6126 8.68239 35.7097 8.52167 35.7097 8.15169V1.58914C35.7097 1.29801 35.7583 0.976556 35.8706 0.718785C36.1135 0.169884 36.7722 -0.0878868 37.3368 0.042515C37.9499 0.18808 38.3688 0.703622 38.3688 1.39809V8.25176C38.3688 8.54289 38.466 8.68846 38.7726 8.67026H42.2695C42.6884 8.67026 42.7036 8.44585 42.7036 8.12136V1.55882C42.7036 1.21916 42.7855 0.86435 42.9464 0.576253C43.2196 0.0758736 43.848 -0.100017 44.3974 0.0607106C44.962 0.236601 45.3475 0.736981 45.3627 1.36776V8.17292C45.3627 8.54289 45.475 8.6733 45.8453 8.6733H49.664C50.8387 8.68846 51.3396 9.2222 51.3396 10.414V14.0895C51.3396 14.508 51.4519 14.6687 51.9042 14.6536C54.1262 14.6384 56.3361 14.6536 58.5581 14.6536C59.3321 14.6536 59.8633 15.0721 59.9757 15.718C60.1365 16.5884 59.5567 17.298 58.6218 17.3132C56.7701 17.3283 54.9154 17.3132 53.0638 17.3132H51.7919C51.5005 17.3132 51.3578 17.4102 51.3578 17.7165V21.2647C51.3578 21.668 51.6007 21.668 51.889 21.668H58.0117C58.3183 21.668 58.6066 21.668 58.898 21.7013C59.575 21.8136 60.009 22.3473 59.9939 23.0236C59.9939 23.6847 59.5112 24.2336 58.8495 24.3124C58.5429 24.3458 58.2211 24.3458 57.9145 24.3458C55.9172 24.3458 53.9198 24.3458 51.9224 24.3306C51.4884 24.3306 51.3426 24.4428 51.3578 24.8947C51.3912 25.9925 51.373 27.1024 51.3578 28.2002C51.3578 28.5702 51.4853 28.7006 51.8587 28.7006C54.0807 28.7006 56.2905 28.7006 58.5125 28.6854C59.3655 28.6854 59.9939 29.201 60.0121 29.9743C60.0455 30.7658 59.4809 31.3602 58.6097 31.3602C56.4028 31.3753 54.2112 31.3602 52.0044 31.3602C51.5754 31.3602 51.3609 31.5805 51.3609 32.0213C51.3609 33.0372 51.376 34.0683 51.3609 35.0842C51.3609 35.5512 51.4732 35.712 51.9558 35.712C54.0503 35.6786 56.1448 35.712 58.2242 35.712C58.4336 35.712 58.6279 35.712 58.8373 35.7271C59.5143 35.809 59.9817 36.3245 59.9969 37.0008C60.0121 37.6771 59.578 38.226 58.9163 38.3382C58.6097 38.3867 58.2879 38.3867 57.9813 38.3867H51.9406C51.4883 38.3867 51.3457 38.5171 51.3457 38.9659C51.3791 40.0455 51.3609 41.1433 51.3457 42.223C51.3457 42.6263 51.4914 42.7385 51.8769 42.7385H58.5307C59.32 42.7385 59.8694 43.157 59.9817 43.8029C60.1274 44.6581 59.5294 45.3829 58.6127 45.3829C56.761 45.3981 54.9063 45.3829 53.0547 45.3829H51.8314C51.4762 45.3678 51.3639 45.4951 51.3639 45.8499V49.3496C51.3639 50.9629 50.9298 51.3814 49.318 51.3966C48.207 51.3966 47.0777 51.4117 45.9667 51.3966M21.1241 51.4299C20.0434 51.4633 18.9476 51.4451 17.87 51.4299ZM28.0845 51.4148C27.0039 51.4481 25.9081 51.4299 24.8305 51.4148ZM34.9296 51.4148C33.9309 51.4148 32.9171 51.4299 31.9153 51.4148ZM48.5925 30.1138H48.6259V29.1615C48.6259 27.1145 48.5925 25.0645 48.5925 23.0175C48.5925 19.3238 48.5925 15.6149 48.6259 11.9242C48.6259 11.4875 48.4984 11.3602 48.0613 11.3602C46.3705 11.3753 44.6615 11.3602 42.9707 11.3602H29.0195C26.9735 11.3602 24.9276 11.3935 22.8968 11.3935C19.2087 11.3935 15.5175 11.3935 11.8111 11.3602C11.4408 11.3602 11.3103 11.4724 11.3285 11.8454C11.3619 13.2495 11.3619 14.6505 11.3619 16.0546C11.3619 18.9235 11.3285 21.7802 11.3285 24.649V48.1578C11.3285 48.5763 11.4408 48.737 11.8749 48.7218C13.2591 48.6885 14.6463 48.6733 16.0153 48.6885C18.7716 48.6885 21.5096 48.7218 24.2658 48.7218C26.1661 48.7218 28.0693 48.6885 29.9696 48.6885C32.7896 48.6885 35.5914 48.7218 38.4113 48.7218H47.9823C48.6441 48.7218 48.6259 48.7218 48.6259 48.0759C48.6259 44.4004 48.5925 40.7067 48.5925 37.0311V30.0986V30.1138Z" fill="#010101"/>
<path d="M48.5925 30.1138V37.0463C48.5925 40.7218 48.6259 44.4155 48.6259 48.0911C48.6259 48.5217 48.4114 48.737 47.9823 48.737H38.4114C35.5914 48.737 32.7896 48.7036 29.9696 48.7036C28.0694 48.7036 26.1661 48.737 24.2659 48.737C21.5096 48.737 18.7716 48.7036 16.0153 48.7036C14.6311 48.7036 13.2439 48.7036 11.8749 48.737C11.4226 48.737 11.3285 48.5914 11.3285 48.1729V24.6642C11.3285 21.7954 11.3619 18.9387 11.3619 16.0698C11.3619 14.6657 11.3619 13.2647 11.3285 11.8606C11.3285 11.4906 11.456 11.3754 11.8111 11.3754C15.4993 11.3905 19.1905 11.4087 22.8968 11.4087C24.9428 11.4087 26.9887 11.3754 29.0195 11.3754H48.0643C48.4984 11.3754 48.6289 11.5058 48.6289 11.9394C48.5955 15.6331 48.5955 19.342 48.5955 23.0327C48.5955 25.0797 48.6107 27.1297 48.6289 29.1767V30.129H48.5955V30.1138H48.5925ZM31.4024 32.6945V26.599C31.3872 23.8242 30.2094 21.665 27.8569 20.1669C25.0521 18.3928 20.8964 19.0054 18.723 21.5376C17.354 23.1328 16.8046 24.9887 16.8228 27.0691C16.8562 30.0046 16.8228 32.922 16.8228 35.8575V39.5027C16.8228 40.1002 17.0474 40.5672 17.5968 40.8401C18.0977 41.0827 18.5469 40.9857 18.9658 40.6945C19.3999 40.3883 19.4667 39.9212 19.4667 39.436V32.8249C19.4667 32.4064 19.5942 32.276 19.9979 32.2942C22.7056 32.3094 25.4102 32.3094 28.1028 32.2942C28.555 32.2942 28.6977 32.4246 28.6977 32.8735C28.6825 35.0327 28.6977 37.1949 28.6977 39.339C28.6977 39.8394 28.7463 40.3215 29.1986 40.6612C29.6509 41.0008 30.1335 41.0979 30.6495 40.8371C31.2445 40.546 31.375 40.0152 31.375 39.4178V32.7097L31.4084 32.6945H31.4024ZM37.8468 30.0501V37.7893C37.8468 38.1593 37.7648 38.3685 37.3459 38.32C37.0879 38.2867 36.8147 38.32 36.5415 38.32C35.7856 38.3534 35.221 38.9174 35.2028 39.6422C35.2028 40.3852 35.7189 40.9645 36.5081 40.9796C38.2808 41.013 40.0536 41.013 41.8415 40.9796C42.5822 40.9796 43.1134 40.3822 43.1134 39.6726C43.1134 38.9629 42.6125 38.3989 41.8567 38.3352C41.5987 38.32 41.3255 38.3018 41.0523 38.3352C40.6182 38.3685 40.4877 38.1896 40.4877 37.7711V22.3231C40.4877 21.9197 40.6334 21.7923 41.0189 21.8227C41.2921 21.8378 41.5835 21.8227 41.8718 21.8227C42.6125 21.7742 43.1286 21.2101 43.1286 20.4853C43.1286 19.7605 42.5973 19.1964 41.887 19.1782C40.0657 19.1449 38.2444 19.1449 36.4261 19.1782C35.7006 19.1782 35.218 19.7908 35.2332 20.5005C35.2332 21.1949 35.7644 21.759 36.4565 21.8075C36.7297 21.8227 36.9877 21.8409 37.2609 21.8075C37.7284 21.759 37.8559 21.9531 37.8407 22.4049C37.8255 24.9523 37.8407 27.4997 37.8407 30.0653V30.0501H37.8468Z" fill="white"/>
<path d="M31.4023 32.6945V39.4026C31.4023 40 31.29 40.5307 30.6768 40.8219C30.1456 41.0796 29.663 40.9826 29.2259 40.646C28.7918 40.3063 28.725 39.8241 28.725 39.3238V32.8583C28.725 32.3912 28.5793 32.279 28.13 32.279C25.4224 32.2942 22.7177 32.279 20.0252 32.279C19.6063 32.279 19.4788 32.4094 19.494 32.8097C19.5092 35.0175 19.494 37.2131 19.494 39.4208C19.494 39.906 19.4303 40.373 18.9931 40.6793C18.5591 40.9705 18.1068 41.0827 17.6241 40.8249C17.0595 40.552 16.8501 40.0819 16.8501 39.4875V35.8423C16.8501 32.9068 16.8835 29.9894 16.8501 27.0539C16.8167 24.9735 17.3661 23.1206 18.7503 21.5224C20.9268 19.0084 25.0824 18.3776 27.8842 20.1517C30.2367 21.6498 31.4114 23.7968 31.4296 26.5838V32.6793L31.3963 32.6945H31.4023ZM24.0867 29.6134H28.2757C28.5975 29.6134 28.728 29.5163 28.728 29.1767C28.728 28.2578 28.7432 27.3541 28.728 26.4352C28.6461 24.2912 27.4076 22.599 25.5529 22.0319C22.6843 21.1615 19.8643 23.0326 19.576 26.0137C19.4788 27.0296 19.5426 28.0607 19.5122 29.0766C19.5122 29.4951 19.6397 29.6255 20.0434 29.6073C21.3973 29.5921 22.7511 29.6073 24.1049 29.6073H24.0898L24.0867 29.6134Z" fill="#010101"/>
<path d="M37.8467 30.0501V22.3898C37.8467 21.9379 37.7344 21.7438 37.2669 21.7923C37.0089 21.8257 36.7357 21.8075 36.4625 21.7923C35.7704 21.7438 35.2392 21.1798 35.2392 20.4853C35.2392 19.7908 35.7219 19.1631 36.4322 19.1631C38.2535 19.1297 40.0748 19.1297 41.8931 19.1631C42.6034 19.1631 43.1346 19.7757 43.1346 20.4701C43.1346 21.1646 42.6186 21.759 41.8779 21.8075C41.6047 21.8227 41.3133 21.8409 41.0249 21.8075C40.6546 21.7923 40.4937 21.9046 40.4937 22.3079V37.756C40.4937 38.1926 40.6212 38.3685 41.0583 38.32C41.3163 38.3049 41.5895 38.32 41.8627 38.32C42.6186 38.3837 43.1194 38.9326 43.1194 39.6574C43.1194 40.3822 42.573 40.9644 41.8475 40.9644C40.0748 40.9796 38.3021 40.9796 36.5141 40.9644C35.7401 40.9644 35.2089 40.3519 35.2089 39.6271C35.2089 38.9023 35.7886 38.3382 36.5475 38.3049C36.8207 38.3049 37.0787 38.2715 37.3519 38.3049C37.7708 38.3534 37.8528 38.1441 37.8528 37.7741C37.8376 36.8704 37.8528 35.9849 37.8528 35.0812V30.035V30.0501H37.8467Z" fill="#010101"/>
<path d="M24.0867 29.6134H20.0252C19.6063 29.6134 19.4788 29.483 19.494 29.0827C19.5274 28.0668 19.4606 27.0357 19.5577 26.0198C19.8491 23.0357 22.6661 21.1676 25.5347 22.038C27.3863 22.602 28.6279 24.3124 28.7098 26.4413C28.7432 27.3602 28.7098 28.2639 28.7098 29.1828C28.7098 29.5224 28.5823 29.6195 28.2575 29.6195H24.0685H24.0837L24.0867 29.6134Z" fill="white"/>
</g>
<path d="M17.7062 51.3327C17.2873 51.3327 17.2721 51.5572 17.2721 51.8816V58.4442C17.2721 58.7838 17.1902 59.1387 17.0293 59.4268C16.7561 59.9271 16.1277 60.103 15.5783 59.9423C15.0137 59.7664 14.6282 59.266 14.613 58.6352V51.8301C14.613 51.4601 14.5007 51.3297 14.1304 51.3297" fill="#010101"/>
<path d="M24.7638 51.3176C24.36 51.3176 24.2629 51.4784 24.2629 51.8483V58.4109C24.2629 58.702 24.2143 59.0235 24.102 59.2812C23.8592 59.8301 23.2005 60.0879 22.6359 59.9575C22.0227 59.8119 21.6038 59.2964 21.6038 58.6019V51.7483C21.6038 51.4571 21.5067 51.3116 21.2001 51.3298" fill="#010101"/>
<path d="M31.7576 51.3176C31.3873 51.3176 31.2749 51.4632 31.2749 51.818V58.6232C31.2416 59.4298 30.6952 59.9787 29.9363 59.9787C29.1774 59.9787 28.6158 59.4147 28.5976 58.608C28.5824 57.3828 28.5976 56.1577 28.5976 54.9325V51.8696C28.5976 51.4662 28.4853 51.3055 28.0664 51.3207" fill="#010101"/>
<path d="M38.7332 51.3176C38.378 51.3176 38.2809 51.4632 38.2809 51.8028V58.5595C38.2657 59.4298 37.7163 60.0121 36.927 59.9939C36.1712 59.9939 35.6066 59.3965 35.6066 58.5595V51.7543C35.6066 51.4147 35.4791 51.3176 35.1543 51.3176" fill="#010101"/>
<path d="M45.8212 51.3328C45.4023 51.3328 45.2748 51.4783 45.29 51.8817V58.3472C45.29 58.5564 45.29 58.7657 45.2414 58.9598C45.0957 59.6209 44.4856 60.0576 43.8087 59.9908C43.1317 59.9272 42.6157 59.3783 42.6157 58.6353V53.7164C42.6157 53.0886 42.6005 52.4579 42.6157 51.8301C42.6157 51.4753 42.5186 51.3146 42.1331 51.3146" fill="#010101"/>
</svg>
