<svg width="87" height="25" viewBox="0 0 87 25" fill="none" xmlns="http://www.w3.org/2000/svg">
<g clip-path="url(#clip0_78_2394)">
<path d="M22 18.3383C21.5227 19.7178 20.8424 20.9925 19.9426 22.1622C19.4214 22.8441 18.8892 23.5208 18.2199 24.0821C17.2818 24.8689 16.2119 25.1626 14.994 24.8322C14.4892 24.6958 13.9955 24.5174 13.5072 24.3443C12.0972 23.8408 10.7037 23.8985 9.31018 24.423C8.82739 24.6066 8.33363 24.764 7.83437 24.8951C6.77003 25.1731 5.84834 24.8741 5.01991 24.2237C4.29023 23.6519 3.71966 22.9438 3.15457 22.2356C2.11218 20.919 1.34959 19.466 0.800957 17.9029C0.47178 16.9639 0.224898 16.0093 0.104199 15.0283C-0.093307 13.4442 -0.0439304 11.8758 0.543102 10.3651C1.09722 8.93833 2.00794 7.76334 3.37402 6.95029C4.28475 6.40476 5.27777 6.09528 6.35856 6.0166C7.12664 5.9589 7.85083 6.12151 8.56954 6.34182C9.2224 6.54114 9.88076 6.74572 10.5227 6.98177C11.0329 7.1706 11.5102 7.08668 11.9985 6.91882C12.7007 6.68277 13.403 6.44673 14.1107 6.22642C15.4439 5.81727 16.7715 5.86972 18.0992 6.25264C19.3611 6.61458 20.3925 7.286 21.188 8.28789C21.2099 8.31412 21.2319 8.34559 21.2538 8.37707C21.2648 8.3928 21.2703 8.40854 21.2922 8.44001C19.2843 9.615 18.2364 11.2988 18.4064 13.5858C18.5765 15.8676 19.9097 17.3573 21.9945 18.3435L22 18.3383Z" fill="black"/>
<path d="M16.5246 0C16.4972 0.445867 16.5137 0.855015 16.4423 1.25367C16.1186 3.06861 15.0324 4.39572 13.4413 5.36089C12.7994 5.74906 12.0807 5.95888 11.3017 5.93265C11.0109 5.92216 11.0164 5.9274 11.0054 5.65464C10.967 4.58456 11.3017 3.61414 11.8942 2.71716C12.8104 1.32186 14.1491 0.48783 15.8114 0.110155C16.0199 0.0629459 16.2393 0.0472094 16.5301 0.010491L16.5246 0Z" fill="black"/>
</g>
<g clip-path="url(#clip1_78_2394)">
<path d="M45.7322 18.7614C45.7322 17.2498 45.7322 15.7383 45.7322 14.2164C45.7322 13.647 45.7322 13.6366 46.3074 13.6366C46.4286 13.6366 46.5497 13.6366 46.6708 13.6366C47.0341 13.6056 47.2359 13.7402 47.2057 14.1439C47.2057 14.2164 47.2057 14.2889 47.2258 14.351C47.246 14.4131 47.2763 14.4752 47.3066 14.5374C47.3772 14.5063 47.4681 14.4856 47.5084 14.4338C48.1039 13.7195 48.881 13.4917 49.7691 13.5228C50.9499 13.5642 51.7573 14.2164 52.2216 15.2517C52.8877 16.7529 52.8372 18.2748 52.0197 19.7035C51.2931 20.9769 49.8499 21.4945 48.4874 21.0286C48.1947 20.9251 47.9424 20.6767 47.6699 20.5006C47.6195 20.4696 47.5488 20.4385 47.4983 20.4075C47.4681 20.4799 47.4277 20.5524 47.4277 20.6249C47.4277 21.5359 47.4277 22.4574 47.4277 23.3684C47.4277 23.9792 47.4075 23.9999 46.8222 23.9896C45.7826 23.9792 45.8028 24.1966 45.7927 22.9336C45.7927 21.5463 45.7927 20.1486 45.7927 18.7614C45.7826 18.7614 45.7625 18.7614 45.7524 18.7614H45.7322ZM50.9701 17.3326C50.8894 16.9289 50.8389 16.463 50.6976 16.0385C50.4251 15.2207 49.8196 14.8272 49.0021 14.879C48.2755 14.9308 47.6497 15.4588 47.5185 16.2559C47.4176 16.8875 47.3873 17.5501 47.4378 18.1919C47.5084 19.0823 48.114 19.6931 48.9012 19.7863C49.7388 19.8898 50.415 19.4446 50.7077 18.5646C50.8288 18.1919 50.8793 17.7882 50.9701 17.3326Z" fill="black"/>
<path d="M37.5574 18.7717C37.5574 17.2291 37.5574 15.6762 37.5574 14.1336C37.5574 13.6988 37.5877 13.6574 38.0216 13.6367C38.1225 13.6367 38.2235 13.6367 38.3345 13.6367C38.7449 13.6367 38.9838 13.8506 39.051 14.2785C39.0611 14.3614 39.1015 14.4338 39.1318 14.5167C39.2125 14.4753 39.3134 14.4442 39.3841 14.3821C41.1301 12.7463 43.6532 13.4814 44.2789 15.8315C44.622 17.0945 44.5413 18.3369 43.9559 19.5171C43.2797 20.8734 41.665 21.5256 40.2722 20.9976C40.0098 20.8941 39.7676 20.7077 39.5355 20.5214C39.3235 20.3557 39.263 20.4489 39.263 20.656C39.263 21.0908 39.263 21.536 39.263 21.9708C39.263 22.4781 39.263 22.9957 39.263 23.503C39.263 23.8447 39.1318 24.0103 38.7685 24C37.4363 23.9793 37.5977 24.1449 37.5977 22.8404C37.5977 21.4842 37.5977 20.128 37.5977 18.7821C37.5977 18.7821 37.5876 18.7821 37.5776 18.7821L37.5574 18.7717ZM39.2226 17.4155C39.2226 17.4155 39.2428 17.4155 39.263 17.4155C39.263 17.664 39.2428 17.9124 39.263 18.1505C39.3538 19.0513 39.9392 19.7035 40.7365 19.7967C41.554 19.8898 42.2604 19.424 42.5632 18.575C42.8458 17.7675 42.8357 16.9496 42.6036 16.1421C42.3613 15.3035 41.6852 14.8376 40.8475 14.8894C40.1107 14.9308 39.4648 15.552 39.3235 16.3698C39.263 16.7115 39.2529 17.0635 39.2226 17.4155Z" fill="black"/>
<path d="M32.0975 10.8C33.2985 10.8 33.0664 10.7172 33.4095 11.8146C34.3178 14.672 35.216 17.5294 36.1243 20.3869C36.306 20.9563 36.2858 21.008 35.7207 20.9977C34.3279 20.977 34.6408 21.2047 34.2169 19.9003C34.0756 19.4447 33.9343 18.9996 33.8031 18.544C33.7123 18.2024 33.5508 18.016 33.1572 18.0367C32.4204 18.0781 31.6837 18.0678 30.947 18.0367C30.5836 18.0264 30.4222 18.1817 30.3313 18.513C30.1396 19.2066 29.9074 19.8899 29.7359 20.5836C29.6551 20.9149 29.4836 21.008 29.1909 20.9873C28.9487 20.977 28.7065 20.9873 28.4743 20.9873C27.9798 20.9873 27.9192 20.9045 28.0706 20.4283C28.4037 19.3516 28.7468 18.2852 29.0799 17.2188C29.6955 15.2828 30.301 13.3365 30.9167 11.4005C31.0445 10.9933 31.3204 10.7897 31.7443 10.7897C31.8654 10.7897 31.9865 10.7897 32.1076 10.7897L32.0975 10.8ZM32.0268 16.7116C32.3397 16.7116 32.6425 16.7012 32.9553 16.7116C33.2379 16.7219 33.2985 16.6391 33.2177 16.3492C32.8645 15.1897 32.5416 14.0301 32.1984 12.8706C32.1782 12.7981 32.1076 12.736 32.0571 12.6636C32.0168 12.7464 31.9562 12.8188 31.9259 12.9017C31.6635 13.8127 31.4011 14.7134 31.1387 15.6245C31.0479 15.9558 30.9571 16.2974 30.8763 16.6391C31.2295 16.6598 31.5828 16.6908 31.936 16.7116C31.9663 16.7116 32.0067 16.7116 32.0369 16.7116H32.0268Z" fill="black"/>
<path d="M59.1754 10.5826C59.791 10.7276 60.4066 10.8518 61.0223 11.0071C61.3049 11.0796 61.3755 11.2452 61.2847 11.5661C60.992 12.4876 61.0122 12.4876 60.1241 12.2391C59.4681 12.0527 58.802 12.001 58.156 12.2909C57.3487 12.6532 57.167 13.6781 57.823 14.289C58.1056 14.5478 58.479 14.7238 58.8221 14.9101C59.4681 15.2725 60.1442 15.5831 60.7599 15.9765C62.1728 16.8876 62.2031 19.7139 60.3057 20.656C58.913 21.3497 57.4496 21.3186 56.0165 20.7285C55.5623 20.5421 55.5724 20.5111 55.7036 20.0141C55.9256 19.1445 55.9256 19.1549 56.7229 19.4447C57.4294 19.7036 58.156 19.7967 58.9029 19.6414C59.4882 19.5276 59.9222 19.217 60.0635 18.5958C60.2149 17.9436 59.9929 17.3741 59.4176 17.0118C59.024 16.7633 58.5799 16.6184 58.1762 16.3906C57.6514 16.1007 57.0863 15.8419 56.6422 15.4485C55.2293 14.1958 55.5522 11.9389 57.2376 11.1003C57.8735 10.7793 58.3983 10.6551 59.1956 10.5723L59.1754 10.5826Z" fill="black"/>
<path d="M71.2862 13.5022C73.2239 13.4297 74.657 14.7963 74.8084 16.8979C74.8993 18.1403 74.6167 19.2791 73.7285 20.1798C72.7092 21.2048 71.4477 21.3704 70.1457 20.9977C68.9347 20.6561 68.2383 19.7553 67.9153 18.5233C67.6327 17.457 67.7236 16.4217 68.1777 15.4382C68.6924 14.3408 69.7118 13.4711 71.2862 13.4918V13.5022ZM73.1836 17.2913C73.0322 16.7633 72.9312 16.225 72.7294 15.7384C72.467 15.1069 71.9624 14.7549 71.266 14.7652C70.5696 14.7652 70.1054 15.1586 69.8127 15.7695C69.3283 16.8151 69.3384 17.8918 69.8127 18.9271C70.1054 19.5586 70.6201 19.921 71.3366 19.8899C72.0431 19.8692 72.4872 19.4448 72.7395 18.8339C72.9312 18.3577 73.012 17.8297 73.1634 17.2913H73.1836Z" fill="black"/>
<path d="M84.5576 17.7365C83.9016 17.7365 83.2557 17.7365 82.5997 17.7365C82.2869 17.7365 82.2061 17.8711 82.2566 18.1609C82.3878 18.8856 82.7713 19.4136 83.4677 19.6725C84.2952 19.9727 85.1329 19.8485 85.9504 19.6207C86.3036 19.5172 86.4348 19.5897 86.455 19.952C86.455 20.0762 86.5156 20.1901 86.5458 20.304C86.6165 20.5732 86.5156 20.7492 86.2633 20.832C85.143 21.184 84.0026 21.3186 82.8722 20.9562C81.5804 20.5525 80.8739 19.5586 80.6822 18.2231C80.5005 16.9393 80.6822 15.6866 81.54 14.6513C82.4584 13.5435 83.6392 13.2744 84.9412 13.6367C86.1421 13.9784 86.7376 14.9205 86.9193 16.1525C86.9798 16.5148 87.0202 16.8875 87 17.2499C86.9798 17.7054 86.8991 17.7572 86.4651 17.7572C85.8293 17.7572 85.1935 17.7572 84.5576 17.7572V17.7365ZM83.8007 16.5459C84.2246 16.5459 84.6586 16.5459 85.0824 16.5459C85.3348 16.5459 85.3953 16.432 85.3852 16.1835C85.3348 15.2207 84.6081 14.6099 83.6796 14.7134C82.9126 14.7962 82.4282 15.5002 82.2566 16.1835C82.196 16.432 82.3171 16.5459 82.5594 16.5355C82.9731 16.5355 83.3869 16.5355 83.7906 16.5355L83.8007 16.5459Z" fill="black"/>
<path d="M63.5958 17.1877C63.5958 16.5873 63.5857 15.9868 63.5958 15.3967C63.5958 15.0654 63.5049 14.9101 63.1618 14.9308C62.9801 14.9308 62.6471 14.8583 62.637 14.7858C62.5865 14.4442 62.6067 14.0922 62.6673 13.7505C62.6673 13.6884 62.97 13.6367 63.1315 13.647C63.4949 13.6781 63.6059 13.5228 63.6059 13.1604C63.6059 12.3115 63.6261 12.3115 64.4233 12.0734C65.2307 11.8249 65.2307 11.8249 65.2408 12.6945C65.2509 13.6884 65.0794 13.6367 66.1391 13.6367C67.0373 13.6367 67.0978 13.7195 66.9969 14.6305C66.9767 14.8583 66.8758 14.9308 66.6739 14.9308C66.3308 14.9308 65.9877 14.9411 65.6445 14.9308C65.372 14.9308 65.2408 15.0136 65.2408 15.3138C65.2509 16.4216 65.2408 17.5294 65.2509 18.6371C65.261 19.4447 65.6344 19.7863 66.4418 19.6931C66.8253 19.6517 66.8758 19.807 66.8859 20.128C66.9061 21.0183 66.9162 21.0183 66.0482 21.1218C64.6252 21.2978 63.7371 20.5524 63.6361 19.072C63.5958 18.4404 63.6361 17.8089 63.6361 17.1774C63.6361 17.1774 63.6261 17.1774 63.616 17.1774L63.5958 17.1877Z" fill="black"/>
<path d="M76.1002 17.3844C76.1002 16.3284 76.1002 15.2724 76.1002 14.2164C76.1002 13.6677 76.1204 13.647 76.6351 13.6367C76.7058 13.6367 76.7764 13.6367 76.837 13.6367C77.5132 13.6367 77.5132 13.6367 77.5636 14.3407C77.5636 14.4442 77.5939 14.5477 77.604 14.6513C77.6847 14.5788 77.7856 14.5167 77.8563 14.4235C78.2398 13.8852 78.7242 13.5228 79.4004 13.5021C79.8142 13.4917 79.9151 13.5849 79.9353 13.999C79.9353 14.0508 79.9353 14.1026 79.9353 14.1543C79.9151 14.4339 79.9757 14.7755 79.8445 14.9619C79.7335 15.1068 79.3802 15.055 79.1279 15.1068C78.6536 15.2103 78.2398 15.4484 78.0581 15.9247C77.8967 16.3388 77.7856 16.8047 77.7655 17.2395C77.7251 18.2955 77.7655 19.3515 77.7554 20.4075C77.7554 20.9666 77.7352 20.9769 77.2205 20.9873C76.4804 21.0011 76.1103 20.6215 76.1103 19.8484C76.1103 19.0202 76.1103 18.192 76.1103 17.3637C76.1103 17.3637 76.1103 17.3637 76.1002 17.3637V17.3844Z" fill="black"/>
<path d="M28.8477 4.7849C28.8477 4.12231 28.8577 3.44937 28.8477 2.78678C28.8477 2.48655 28.9284 2.3416 29.2413 2.28984C29.978 2.17596 30.7147 2.1656 31.4313 2.39337C32.158 2.62113 32.6323 3.11807 32.814 3.88419C33.1167 5.20937 32.713 6.5449 31.6231 7.04184C30.8258 7.40419 29.9881 7.38349 29.1504 7.31102C28.8779 7.29031 28.8678 7.06255 28.8678 6.83478C28.8678 6.15149 28.8678 5.46819 28.8678 4.7849H28.8477ZM29.6853 4.81596C29.6853 5.29219 29.6853 5.76843 29.6853 6.24466C29.6853 6.49313 29.756 6.64843 30.0285 6.64843C31.2395 6.63807 31.9561 6.11007 32.0066 4.74349C32.0469 3.5529 31.3506 2.89031 30.1698 2.94207C29.8266 2.95243 29.6651 3.07666 29.6853 3.44937C29.7055 3.9049 29.6853 4.36043 29.6853 4.82631V4.81596Z" fill="black"/>
<path d="M41.655 7.38358C41.322 7.33182 41.1403 7.249 41.0697 6.93841C40.9183 6.34829 40.7467 5.75817 40.5853 5.16805C40.5651 5.11629 40.5247 5.06452 40.5045 5.01276C40.4641 5.06452 40.4036 5.11629 40.3834 5.17841C40.2118 5.74782 40.0403 6.31723 39.8889 6.897C39.8081 7.19723 39.6467 7.33182 39.3439 7.33182C39.0815 7.33182 38.9301 7.21794 38.8494 6.96947C38.5769 6.02735 38.3044 5.08523 38.0521 4.14311C38.0218 4.01888 38.0823 3.77041 38.1732 3.71864C38.4154 3.5737 38.7888 3.71864 38.8494 3.94641C38.9806 4.433 39.0815 4.94029 39.2026 5.42688C39.2632 5.65464 39.3439 5.88241 39.4145 6.09982C39.4852 5.89276 39.576 5.67535 39.6366 5.46829C39.788 4.9817 39.9292 4.49511 40.0705 4.00852C40.1412 3.76005 40.2825 3.67723 40.5247 3.68758C40.7568 3.68758 40.9082 3.77041 40.9688 4.02923C41.1101 4.56758 41.2715 5.10594 41.433 5.64429C41.4633 5.75817 41.5238 5.85135 41.5743 5.95488C41.6248 5.841 41.7055 5.72711 41.7358 5.61323C41.867 5.12664 41.978 4.6297 42.1092 4.13276C42.2202 3.70829 42.3615 3.62547 42.7753 3.67723C42.9671 3.70829 43.0579 3.78076 42.9973 3.98782C42.6845 5.01276 42.3817 6.0377 42.0486 7.05229C41.9982 7.19723 41.8064 7.28005 41.6752 7.39394L41.655 7.38358Z" fill="black"/>
<path d="M61.9306 4.69182C61.9306 5.41652 61.9407 6.13088 61.9306 6.85558C61.9306 7.00052 61.8297 7.25935 61.749 7.2697C61.5774 7.30076 61.3554 7.23864 61.2141 7.13511C61.1232 7.06264 61.1132 6.94876 60.9618 7.05229C59.7305 7.91158 58.6304 6.9384 58.5497 5.75817C58.479 4.72287 58.913 3.90499 59.7507 3.61511C60.1241 3.49087 60.4672 3.55299 60.7902 3.7497C61.0223 3.88429 61.0627 3.79111 61.0627 3.58405C61.0627 3.21135 61.0728 2.84899 61.0627 2.47629C61.0627 2.14499 61.1939 2.00005 61.5269 2.0104C61.86 2.0104 61.9306 2.19676 61.9306 2.48664C61.9306 3.2217 61.9306 3.96711 61.9306 4.70217C61.9306 4.70217 61.9306 4.70217 61.9407 4.70217L61.9306 4.69182ZM61.0728 5.5097C61.0627 5.32335 61.0627 5.16805 61.0425 5.01276C60.982 4.6297 60.7296 4.33982 60.4067 4.2777C60.114 4.21558 59.7204 4.41229 59.569 4.74358C59.3369 5.24052 59.3268 5.76852 59.5892 6.25511C59.7608 6.57605 60.0635 6.73135 60.4168 6.63817C60.7296 6.5657 60.9618 6.34829 61.0324 6.00664C61.0627 5.83064 61.0728 5.65464 61.0829 5.5097H61.0728Z" fill="black"/>
<path d="M78.9463 4.66067C78.9463 3.92561 78.9463 3.1802 78.9463 2.44514C78.9463 2.13455 79.0472 1.99997 79.3702 2.01032C79.6931 2.01032 79.8445 2.11385 79.8344 2.46585C79.8142 2.86961 79.8344 3.27338 79.8344 3.67714C79.8344 3.91526 79.895 3.94632 80.0968 3.81173C80.4198 3.59432 80.773 3.47008 81.1666 3.60467C81.6611 3.77032 81.974 4.12232 82.0144 4.62961C82.0749 5.41644 82.0749 6.21361 82.085 7.00044C82.085 7.30067 81.8731 7.31102 81.651 7.31102C81.4088 7.31102 81.2574 7.23855 81.2574 6.95902C81.2574 6.46208 81.2574 5.97549 81.2574 5.47855C81.2574 5.27149 81.2272 5.05408 81.1767 4.85738C81.0556 4.42255 80.8739 4.29832 80.4702 4.33973C80.1069 4.37079 79.8647 4.62961 79.8546 5.05408C79.8344 5.65455 79.8344 6.25502 79.8546 6.84514C79.8546 7.18679 79.7133 7.31102 79.3904 7.31102C79.0775 7.31102 78.9564 7.17644 78.9564 6.8762C78.9564 6.14114 78.9564 5.39573 78.9564 4.66067H78.9463Z" fill="black"/>
<path d="M51.9896 7.35248C50.9602 7.36284 50.2941 6.64848 50.2739 5.55107C50.2537 4.45366 50.8694 3.57366 52.0098 3.56331C53.2512 3.5426 53.7659 4.53648 53.7861 5.39578C53.8062 6.47248 53.0594 7.46637 51.9896 7.35248ZM51.1015 5.43719C51.2125 5.76848 51.2731 6.09978 51.4345 6.37931C51.6868 6.81413 52.3227 6.80378 52.6153 6.41037C52.9383 5.97554 52.9585 5.05413 52.6557 4.60895C52.3328 4.14307 51.7777 4.09131 51.4547 4.55719C51.2832 4.79531 51.2226 5.1266 51.1015 5.43719Z" fill="black"/>
<path d="M68.5713 5.40606C68.5713 6.5863 67.8951 7.35242 66.8253 7.36277C65.7353 7.36277 65.0793 6.65877 65.0793 5.48889C65.0793 4.38112 65.7959 3.54254 66.8253 3.56324C67.8447 3.57359 68.5713 4.27759 68.5713 5.41642V5.40606ZM67.6832 5.46818C67.6428 5.26112 67.6327 5.02301 67.552 4.81595C67.4309 4.48465 67.2189 4.23618 66.8354 4.23618C66.462 4.23618 66.2097 4.45359 66.0886 4.77454C65.9069 5.25077 65.9069 5.73736 66.1088 6.21359C66.24 6.52418 66.4822 6.70018 66.8455 6.68983C67.2088 6.67948 67.4208 6.48277 67.5419 6.16183C67.6226 5.95477 67.6327 5.71665 67.6832 5.47854V5.46818Z" fill="black"/>
<path d="M35.4481 7.35244C34.4389 7.3628 33.7627 6.63809 33.7627 5.53033C33.7627 4.24656 34.4793 3.59433 35.4986 3.55292C36.5078 3.5115 37.2345 4.31903 37.2446 5.40609C37.2446 6.60703 36.5785 7.33174 35.438 7.35244H35.4481ZM36.3665 5.46821C36.3161 5.23009 36.2959 5.00233 36.2151 4.79527C36.094 4.48468 35.8821 4.25692 35.5289 4.23621C35.1454 4.2155 34.9132 4.42256 34.7618 4.75386C34.5499 5.23009 34.5499 5.71668 34.7618 6.18256C34.893 6.4828 35.1151 6.70021 35.4784 6.68986C35.8518 6.68986 36.0839 6.46209 36.2252 6.14115C36.306 5.93409 36.3262 5.70633 36.3766 5.47856L36.3665 5.46821Z" fill="black"/>
<path d="M85.1127 5.71665C84.8402 5.71665 84.5677 5.7063 84.2851 5.71665C83.9924 5.72701 83.9117 5.85124 84.0429 6.12042C84.2044 6.44136 84.4668 6.64842 84.8099 6.65877C85.0925 6.66912 85.3852 6.59665 85.6779 6.60701C85.799 6.60701 86.0008 6.72089 86.0109 6.79336C86.021 6.92795 85.9504 7.16607 85.8494 7.20748C84.6283 7.66301 83.0337 7.22818 83.1144 5.46818C83.1548 4.48465 83.5887 3.84277 84.4062 3.60465C84.9512 3.44936 85.4256 3.60465 85.8192 4.00842C86.2329 4.43289 86.2935 4.97124 86.2228 5.51995C86.2128 5.60277 86.0311 5.69595 85.9201 5.7063C85.6476 5.73736 85.3751 5.7063 85.1026 5.7063L85.1127 5.71665ZM84.6989 5.03336C84.7796 5.03336 84.8705 5.05407 84.9512 5.03336C85.1127 4.99195 85.2641 4.91948 85.4256 4.86771C85.3145 4.68136 85.2439 4.42254 85.0824 4.31901C84.8301 4.15336 84.5071 4.16371 84.2851 4.41218C84.164 4.53642 84.1135 4.74348 84.0328 4.90912C84.1842 4.95054 84.3356 5.0023 84.4971 5.04371C84.5576 5.05407 84.6383 5.04371 84.6989 5.04371V5.03336Z" fill="black"/>
<path d="M57.4898 5.91341C57.4898 6.23435 57.4999 6.54494 57.4898 6.86588C57.4898 7.01082 57.4394 7.23859 57.3586 7.25929C57.1971 7.3007 56.9347 7.31106 56.8439 7.20753C56.6521 7.00047 56.5411 7.104 56.3696 7.20753C55.9861 7.42494 55.5723 7.44564 55.1888 7.25929C54.452 6.90729 54.3612 5.83059 55.0576 5.35435C55.4108 5.11623 55.875 5.05411 56.2989 4.90917C56.4099 4.86776 56.5109 4.8367 56.6118 4.79529C56.5613 4.67106 56.531 4.52611 56.4503 4.43294C56.2081 4.15341 55.8851 4.25694 55.5824 4.27764C55.4814 4.27764 55.3805 4.38117 55.2897 4.37082C55.1585 4.35011 54.9667 4.29835 54.9364 4.20517C54.8961 4.10164 54.9667 3.86353 55.0576 3.82211C55.653 3.52188 56.2787 3.43906 56.8843 3.7807C57.3687 4.06023 57.4999 4.54682 57.4898 5.08517C57.4898 5.3647 57.4898 5.64423 57.4898 5.92376H57.4999L57.4898 5.91341ZM56.6421 5.80988C56.6421 5.80988 56.5109 5.5407 56.4503 5.55106C56.1576 5.60282 55.8448 5.67529 55.6025 5.83059C55.4915 5.90306 55.4713 6.20329 55.5016 6.38964C55.542 6.63811 55.764 6.67953 55.9861 6.66917C56.3797 6.64847 56.6219 6.36894 56.632 5.80988H56.6421Z" fill="black"/>
<path d="M69.6209 5.44748C69.6209 4.99195 69.6108 4.53642 69.6209 4.08089C69.6209 3.9463 69.7118 3.72889 69.7925 3.70819C69.954 3.66677 70.2366 3.68748 70.2971 3.79101C70.4283 4.00842 70.5292 3.9463 70.6604 3.84277C71.6596 3.05595 72.8 3.9463 72.7395 5.09548C72.7092 5.64419 72.7395 6.18254 72.7395 6.73124C72.7395 7.23854 72.6789 7.31101 72.2954 7.31101C71.9422 7.31101 71.8917 7.24889 71.8816 6.7623C71.8816 6.20324 71.9018 5.63383 71.8614 5.07477C71.8211 4.4743 71.4678 4.20513 70.9733 4.37077C70.6201 4.49501 70.4889 4.79524 70.4788 5.1576C70.4788 5.71666 70.4788 6.28607 70.4788 6.84513C70.4788 7.24889 70.3678 7.33171 69.9843 7.32136C69.7219 7.32136 69.6108 7.19713 69.6108 6.9383C69.6108 6.44136 69.6108 5.95477 69.6108 5.45783L69.6209 5.44748Z" fill="black"/>
<path d="M43.9459 5.46819C43.9459 5.03337 43.9358 4.58819 43.9459 4.15337C43.9459 3.99807 44.0165 3.73925 44.0973 3.71854C44.2688 3.67713 44.5615 3.68748 44.6524 3.80137C44.834 4.01878 44.9148 3.89454 45.0661 3.80137C46.0148 3.21125 47.0241 3.78066 47.0543 4.91948C47.0644 5.57172 47.0543 6.22395 47.0543 6.86584C47.0543 7.16607 46.9534 7.32137 46.6406 7.31101C46.3378 7.31101 46.2066 7.18678 46.2167 6.86584C46.2268 6.26537 46.2369 5.67525 46.2167 5.07478C46.1965 4.58819 46.0047 4.37078 45.6414 4.33972C45.1671 4.29831 44.8441 4.59854 44.8239 5.1369C44.8037 5.69595 44.8239 6.26537 44.8239 6.82442C44.8239 7.25925 44.7028 7.34207 44.2991 7.31101C44.0569 7.29031 43.9661 7.17642 43.9661 6.93831C43.9661 6.44137 43.9661 5.95478 43.9661 5.45784C43.9661 5.45784 43.9661 5.45784 43.956 5.45784L43.9459 5.46819Z" fill="black"/>
<path d="M77.4324 7.35246C76.6654 7.34211 76.3424 7.05222 76.292 6.36893C76.2516 5.84093 76.2718 5.31293 76.2718 4.78493C76.2718 4.56752 76.2718 4.37081 75.9791 4.31905C75.8883 4.29834 75.7874 4.09128 75.7874 3.96705C75.7874 3.87387 75.9085 3.68752 75.9892 3.67716C76.2617 3.64611 76.2617 3.47011 76.292 3.2734C76.3323 2.99387 76.736 2.72469 76.9783 2.81787C77.0489 2.84893 77.1296 3.00422 77.1195 3.10775C77.0893 3.51152 77.2104 3.71858 77.6343 3.66681C77.8765 3.63575 77.9774 3.79105 77.9673 4.01881C77.9673 4.22587 77.8563 4.31905 77.6444 4.33975C77.1296 4.40187 77.1296 4.41222 77.1296 4.92987C77.1296 5.31293 77.1296 5.70634 77.1296 6.0894C77.1296 6.38964 77.2507 6.6174 77.5737 6.62775C77.8664 6.62775 77.9068 6.80375 77.9068 7.04187C77.9068 7.3214 77.715 7.33175 77.5232 7.34211C77.4526 7.34211 77.382 7.34211 77.4425 7.34211L77.4324 7.35246Z" fill="black"/>
<path d="M48.3463 4.65033C48.3463 3.92562 48.3463 3.21127 48.3463 2.48657C48.3463 2.17598 48.4068 1.98962 48.7702 1.98962C49.1234 1.98962 49.2142 2.14492 49.2142 2.46586C49.2142 3.92562 49.2142 5.38539 49.2142 6.8348C49.2142 7.15574 49.1032 7.31104 48.7601 7.31104C48.3967 7.31104 48.3362 7.11433 48.3362 6.80374C48.3362 6.07904 48.3362 5.36468 48.3362 4.63998L48.3463 4.65033Z" fill="black"/>
</g>
<defs>
<clipPath id="clip0_78_2394">
<rect width="22" height="25" fill="white"/>
</clipPath>
<clipPath id="clip1_78_2394">
<rect width="59" height="22" fill="white" transform="translate(28 2)"/>
</clipPath>
</defs>
</svg>
