<svg width="54" height="64" viewBox="0 0 54 64" fill="none" xmlns="http://www.w3.org/2000/svg">
<path d="M26.8547 57.9174C37.769 57.9174 46.6168 49.0378 46.6168 38.0842C46.6168 27.1306 37.769 18.251 26.8547 18.251C15.9403 18.251 7.09253 27.1306 7.09253 38.0842C7.09253 49.0378 15.9403 57.9174 26.8547 57.9174Z" fill="white"/>
<mask id="mask0_70_2393" style="mask-type:luminance" maskUnits="userSpaceOnUse" x="0" y="0" width="54" height="64">
<path d="M53.9913 0H0.0319824V64H53.9913V0Z" fill="white"/>
</mask>
<g mask="url(#mask0_70_2393)">
<path d="M13.1447 59.6412C7.11287 55.3785 3.08052 49.815 1.73641 42.5598C0.392292 35.3047 1.95001 28.6503 6.39213 22.68C6.34273 22.6479 6.29332 22.6143 6.26135 22.5823C5.67139 23.135 5.08144 23.6891 4.49148 24.2418C4.44207 24.29 4.39267 24.3395 4.34326 24.4052C3.12993 25.9991 1.73641 25.1854 1.16389 23.9327C-0.655391 19.915 -0.376396 16.0256 2.26243 12.4805C4.6397 9.27506 7.90045 7.59944 11.9822 7.71319C13.0473 7.74527 14.0965 7.97277 15.1456 8.12006C17.3238 2.70239 21.439 -0.0640516 27.2731 0.000114624C32.9112 0.0657392 36.7967 2.94447 38.927 8.13464C39.7131 8.00485 40.5167 7.84152 41.3362 7.75986C47.4014 7.10944 53.0729 11.55 53.8924 17.5365C54.2034 19.7648 53.827 21.8968 52.8433 23.9137C52.6471 24.3206 52.3027 24.7275 51.9249 25.0031C51.2856 25.4756 50.5968 25.3443 50.0563 24.7595C49.2527 23.8977 48.4506 23.0358 47.663 22.1725C47.5976 22.2206 47.5148 22.2862 47.4494 22.3358C51.9235 28.3383 53.6948 34.9926 52.3667 42.379C51.0385 49.7479 46.9582 55.345 40.877 59.6397C41.188 60.1443 41.483 60.681 41.8448 61.152C41.9436 61.2818 42.2211 61.3153 42.4028 61.3153H51.2376C51.7782 61.3153 52.2373 61.4947 52.4829 61.9993C52.7285 62.4878 52.6631 62.9749 52.3681 63.4139C52.0572 63.8864 51.5646 63.9666 51.04 63.9666H2.90034C2.04737 63.9666 1.47485 63.4299 1.45741 62.6322C1.45741 61.8841 2.04737 61.3139 2.91632 61.3139H11.6523C11.9807 61.3139 12.1769 61.2162 12.3411 60.9391C12.6027 60.4841 12.9151 60.0437 13.2101 59.6208L13.1447 59.6368V59.6412ZM3.76929 37.8407C3.90007 39.0774 3.9829 40.3782 4.21248 41.6469C5.52318 49.1952 9.67032 54.7748 16.3255 58.5168C20.817 61.0383 25.6849 61.9497 30.8158 60.9901C34.9789 60.2099 38.7323 58.4847 41.8957 55.6702C48.1076 50.1387 50.9267 43.2409 50.0257 34.9445C49.4852 30.0153 47.3375 25.7847 44.0433 22.1418C40.1418 17.815 35.1431 15.505 29.3729 14.8531C24.7506 14.3325 20.3244 15.244 16.2761 17.4402C8.21141 21.8166 4.3113 28.7787 3.78673 37.8407H3.77074H3.76929ZM28.2569 12.2194C30.47 12.4309 32.6496 12.724 34.7798 13.3904C36.9101 14.0729 38.8776 15.0661 40.8116 16.1729C40.3525 15.734 39.8773 15.3431 39.4341 14.9202C38.664 14.2042 37.811 13.6354 36.8273 13.2767C36.3521 13.0973 35.8769 12.8538 35.4497 12.5767C34.434 11.9102 34.4006 10.7217 35.3843 9.98963C35.7127 9.74609 36.0891 9.58276 36.4494 9.38735C36.2852 5.87279 31.8271 2.53906 27.1235 2.47343C21.763 2.39177 18.0925 6.16591 17.5679 9.41943C17.8469 9.54922 18.1244 9.64693 18.3874 9.79422C19.7475 10.5584 19.765 11.8927 18.4209 12.6744C17.8629 12.9996 17.2729 13.2432 16.683 13.5202C15.3548 14.1225 14.4205 15.1958 13.3714 16.1554C17.1741 13.7959 21.3372 12.6248 25.73 12.2515V11.0644H24.877C24.1388 11.0163 23.5489 10.4461 23.5489 9.77963C23.5489 9.0636 24.1068 8.42923 24.8595 8.41318C26.3025 8.3811 27.728 8.36506 29.1709 8.41318C29.9744 8.42923 30.5484 9.07964 30.515 9.79568C30.4656 10.5598 29.8262 11.0805 28.9907 11.0644C28.7611 11.0644 28.5315 11.0484 28.27 11.0323V12.253L28.254 12.2209L28.2569 12.2194ZM15.227 11.0148C12.6535 9.66443 8.58921 9.94151 5.7208 12.4134C2.59083 15.0981 1.96745 19.0677 3.19677 21.9304C7.21313 18.27 11.228 14.6417 15.2284 10.9988V11.0148H15.227ZM38.9444 10.9988C42.8939 14.6111 46.8449 18.2219 50.8278 21.8662C52.0237 19.231 51.5326 15.0179 48.221 12.2836C45.5822 10.1034 41.2389 9.6163 38.9444 10.9988ZM15.2924 61.3649H16.1773C15.7297 61.0835 15.4348 61.0835 15.2924 61.3649Z" fill="#010101"/>
<path d="M3.76927 37.8407C4.29384 28.7627 8.1954 21.8006 16.2586 17.4402C20.307 15.244 24.7331 14.3326 29.3554 14.8532C35.1257 15.5036 40.1083 17.8136 44.0259 22.1419C47.32 25.7862 49.4677 30.0154 50.0083 34.9445C50.9092 43.2409 48.0902 50.1227 41.8782 55.6702C38.7148 58.5008 34.9615 60.226 30.7983 60.9902C25.6849 61.9497 20.8156 61.0383 16.308 58.5169C9.65286 54.7748 5.50572 49.1952 4.19503 41.647C3.98142 40.3782 3.90005 39.0759 3.75183 37.8407H3.76782H3.76927ZM27.2077 16.8875C24.8145 16.9196 22.4546 17.2448 20.1922 18.0265C10.5218 21.3777 4.67019 30.9108 6.19449 40.9324C7.04746 46.5455 9.71825 51.1319 14.2432 54.6465C19.5049 58.7298 25.4553 60.1939 31.9129 58.5504C43.0915 55.7198 49.9269 44.918 47.7138 33.6758C45.8611 24.3046 37.4695 16.9036 27.2252 16.8875H27.2092H27.2077Z" fill="white"/>
<path d="M15.2255 11.0149C11.2266 14.6432 7.22625 18.2861 3.1939 21.9465C1.9486 19.0663 2.58796 15.1142 5.71793 12.4295C8.60233 9.95614 12.6507 9.68052 15.2241 11.0309V11.0149H15.2255Z" fill="white"/>
<path d="M38.9445 10.9988C41.2389 9.61632 45.5822 10.1209 48.2225 12.2836C51.5341 15.0165 52.0252 19.2296 50.8293 21.8662C46.8464 18.2219 42.8954 14.6111 38.9459 10.9988H38.9445Z" fill="white"/>
<path d="M15.2924 61.3649C15.4348 61.0834 15.7297 61.0834 16.1773 61.3649H15.2924Z" fill="white"/>
<path d="M27.2078 16.8875C37.4521 16.9035 45.8437 24.3059 47.6964 33.6757C49.9095 44.9164 43.0741 55.7197 31.8955 58.5503C25.4539 60.1778 19.4875 58.7136 14.2258 54.6464C9.70232 51.1493 7.03007 46.5454 6.1771 40.9323C4.6528 30.9107 10.5044 21.3937 20.1748 18.0264C22.4532 17.2287 24.7971 16.9035 27.1903 16.8875H27.2063H27.2078ZM45.4848 36.7513C45.1899 31.9199 43.3212 27.8526 39.8788 24.5334C36.6006 21.3776 32.6336 19.7341 28.0942 19.4906C28.4051 20.9868 28.2903 22.4028 28.2249 23.8174C28.1915 24.4518 27.5362 24.9068 26.9302 24.8587C26.2909 24.8105 25.7503 24.2899 25.7663 23.6059C25.7823 22.2555 25.6021 20.8891 25.9145 19.5547C16.4563 19.7662 8.80285 28.0626 8.57326 36.7673H9.26203C10.0482 36.7673 10.8357 36.7513 11.6393 36.7834C12.36 36.8154 12.8352 37.2879 12.8686 37.8902C12.902 38.5902 12.4923 39.1108 11.7701 39.2406C11.4911 39.2888 11.1961 39.2888 10.9171 39.2888H8.58925C9.03244 44.2675 10.9825 48.4485 14.6864 51.7501C17.9152 54.6464 21.702 56.2724 26.1267 56.5976C25.9959 56.2228 25.8157 55.9312 25.7983 55.638C25.7649 54.7105 25.7489 53.783 25.7983 52.8556C25.8143 52.2372 26.3388 51.8143 27.0116 51.8143C27.6844 51.8143 28.2569 52.1891 28.2569 52.806C28.2569 54.0426 28.5679 55.3274 27.9285 56.5801C32.2399 56.4343 35.8944 54.8068 39.0578 52.0739C42.9419 48.7066 45.0242 44.4279 45.4834 39.2873H42.6484C42.3534 39.2873 42.025 39.2392 41.7635 39.1079C41.2389 38.8804 40.9773 38.2621 41.1081 37.7094C41.2389 37.1567 41.7315 36.7819 42.3868 36.7659H45.5183L45.4848 36.7498V36.7513Z" fill="#010101"/>
<path d="M27.1336 33.9922C27.3443 33.9922 28.4719 34.1249 28.6768 34.1687C28.8221 34.1993 28.9907 34.1905 29.2086 33.9368C31.3563 31.8383 33.4865 29.7237 35.6182 27.6091C36.044 27.1862 36.5032 26.845 37.1425 27.0404C37.6511 27.1862 37.9461 27.5931 38.0275 28.0977C38.1423 28.7481 37.7659 29.2206 37.3387 29.6435C36.1094 30.8481 34.8466 32.0191 33.6507 33.2383C32.7164 34.1978 31.8315 35.207 30.8477 36.2803L30.8143 36.2482C32.109 38.7536 30.5513 40.9499 28.9616 41.8438C27.5027 42.6576 25.5846 42.4461 24.3233 41.3888C22.8804 40.1682 22.3398 38.3788 22.9952 36.6712C23.1754 36.2001 23.0766 35.9551 22.7336 35.6459C21.2587 34.2955 19.7998 32.913 18.3743 31.5131C18.1128 31.2535 17.8832 30.8787 17.8004 30.5214C17.6856 30.0008 17.8992 29.5458 18.3743 29.2366C18.8335 28.9435 19.39 28.9435 19.8332 29.3022C20.3084 29.6931 20.7516 30.1481 21.2108 30.587C22.3747 31.726 23.5546 32.8489 24.7026 34.0039C24.9162 34.2153 25.1269 34.2576 25.3274 34.2095C25.5962 34.1453 26.6541 33.9966 26.9302 33.9966L27.1351 33.9937L27.1336 33.9922ZM28.7 38.0201C28.7 37.1582 27.9459 36.3766 27.0609 36.3605C26.1266 36.3445 25.3071 37.1086 25.3071 38.0201C25.3071 38.9316 26.0772 39.7438 26.9956 39.7438C27.9139 39.7438 28.7 38.9461 28.7 38.0201Z" fill="#010101"/>
<path d="M41.9436 30.2108C41.9436 30.7314 41.5338 31.1383 41.0427 31.1383C40.5515 31.1383 40.1737 30.7635 40.1737 30.2604C40.1737 29.6916 40.5501 29.3329 41.1415 29.3489C41.6501 29.3489 41.961 29.7062 41.961 30.2108H41.945H41.9436Z" fill="#010101"/>
<path d="M12.931 31.1222C12.4399 31.1222 11.9967 30.6992 11.9967 30.2267C11.9967 29.7543 12.3731 29.3809 12.8497 29.3649C13.3742 29.3488 13.8 29.7222 13.8 30.2267C13.8 30.7313 13.4236 31.1047 12.931 31.1222Z" fill="#010101"/>
<path d="M41.8942 45.9752C41.8942 46.4638 41.4844 46.8211 40.9758 46.805C40.4847 46.805 40.0749 46.3981 40.0909 45.9271C40.1069 45.4386 40.5167 45.0813 41.0093 45.0973C41.5178 45.0973 41.8942 45.5042 41.8942 45.9927V45.9767V45.9752Z" fill="#010101"/>
<path d="M18.4063 25.1358C17.9472 25.1358 17.5708 24.761 17.5708 24.2899C17.5708 23.7854 17.9312 23.3945 18.4238 23.3945C18.9164 23.3945 19.2927 23.7854 19.2927 24.2724C19.2927 24.7595 18.9164 25.1343 18.4078 25.1343L18.4063 25.1358Z" fill="#010101"/>
<path d="M36.4364 51.88C36.4364 52.3685 36.0426 52.7915 35.5675 52.7915C35.1243 52.7915 34.7145 52.3846 34.6985 51.9296C34.6825 51.4571 35.0429 51.0517 35.5021 51.0342C35.9932 51.0342 36.4204 51.409 36.4204 51.88H36.4364Z" fill="#010101"/>
<path d="M13.8175 45.9271C13.8175 46.4156 13.4237 46.805 12.9326 46.805C12.4414 46.805 12.0636 46.3981 12.0796 45.9096C12.0956 45.4706 12.5053 45.0958 12.9805 45.0958C13.4557 45.0958 13.8335 45.4706 13.8335 45.9417L13.8175 45.9256V45.9271Z" fill="#010101"/>
<path d="M18.4557 52.7593C18.03 52.7593 17.5868 52.3524 17.5868 51.9135C17.5868 51.4249 17.9631 51.0181 18.4557 51.0181C18.9483 51.0181 19.3087 51.3754 19.3247 51.8479C19.3247 52.3364 18.9483 52.7433 18.4557 52.7593Z" fill="#010101"/>
<path d="M36.4364 24.2579C36.4364 24.7465 36.108 25.0877 35.6009 25.1037C35.0923 25.1198 34.7 24.7465 34.7 24.2579C34.7 23.7694 35.0763 23.396 35.5355 23.38C36.0266 23.38 36.4204 23.7548 36.4204 24.2419L36.4364 24.2579Z" fill="#010101"/>
<path d="M28.7001 38.0201C28.7001 38.9476 27.93 39.7278 26.9956 39.7438C26.0773 39.7438 25.3071 38.9636 25.3071 38.0201C25.3071 37.0765 26.1107 36.3444 27.061 36.3605C27.93 36.3765 28.7001 37.1407 28.7001 38.0201Z" fill="white"/>
</g>
</svg>
