<svg width="86" height="14" viewBox="0 0 86 14" fill="none" xmlns="http://www.w3.org/2000/svg">
<path d="M1.70337 7.25536C1.70337 6.9481 1.72907 6.77618 2.04683 6.64C4.55928 5.56323 7.95584 5.57335 10.6047 5.20892C20.9783 3.78172 31.5649 3.13706 42.0169 2.61866C50.6478 2.19059 59.2311 1.83105 67.8622 2.33245C73.0326 2.6328 78.1886 2.79816 83.3608 3.00505" stroke="#215174" stroke-width="3" stroke-linecap="round"/>
<path d="M27.4629 12.1496C32.7998 10.5987 38.1096 9.87891 43.6556 9.64517C49.3958 9.40324 55.1458 9.01085 60.8929 9.08705C66.0802 9.15582 71.2565 9.2874 76.413 9.89561C78.8574 10.1839 81.2949 10.6729 83.7473 10.8616" stroke="#215174" stroke-width="3" stroke-linecap="round"/>
</svg>
