<svg width="193" height="178" viewBox="0 0 193 178" fill="none" xmlns="http://www.w3.org/2000/svg">
<rect x="1.5" y="58.8936" width="189.962" height="116.87" rx="18.5" fill="white" stroke="black" stroke-width="3"/>
<mask id="path-2-inside-1_138_3028" fill="white">
<path fill-rule="evenodd" clip-rule="evenodd" d="M87.0099 3.32871C93.015 -1.10956 101.213 -1.10957 107.218 3.32869L185.167 60.9395C186.181 61.6884 187.075 62.5032 187.856 63.3695C188.517 64.0416 189.131 64.7602 189.693 65.5199C189.664 65.5742 189.634 65.6284 189.605 65.6824C189.652 65.7569 189.698 65.8317 189.743 65.9067C189.053 66.937 188.271 67.8998 187.407 68.7829C186.618 69.6643 185.711 70.4929 184.682 71.2535L106.733 128.864C100.728 133.303 92.5295 133.303 86.5244 128.864L8.57538 71.2536C7.56228 70.5048 6.6677 69.69 5.88685 68.8239C5.2257 68.1517 4.61171 67.433 4.05025 66.6732C4.07915 66.6189 4.10839 66.5647 4.13797 66.5107C4.0913 66.4362 4.04531 66.3614 4 66.2864C4.6893 65.2561 5.47178 64.2934 6.33539 63.4104C7.12494 62.5289 8.03176 61.7002 9.06087 60.9396L87.0099 3.32871Z"/>
</mask>
<path fill-rule="evenodd" clip-rule="evenodd" d="M87.0099 3.32871C93.015 -1.10956 101.213 -1.10957 107.218 3.32869L185.167 60.9395C186.181 61.6884 187.075 62.5032 187.856 63.3695C188.517 64.0416 189.131 64.7602 189.693 65.5199C189.664 65.5742 189.634 65.6284 189.605 65.6824C189.652 65.7569 189.698 65.8317 189.743 65.9067C189.053 66.937 188.271 67.8998 187.407 68.7829C186.618 69.6643 185.711 70.4929 184.682 71.2535L106.733 128.864C100.728 133.303 92.5295 133.303 86.5244 128.864L8.57538 71.2536C7.56228 70.5048 6.6677 69.69 5.88685 68.8239C5.2257 68.1517 4.61171 67.433 4.05025 66.6732C4.07915 66.6189 4.10839 66.5647 4.13797 66.5107C4.0913 66.4362 4.04531 66.3614 4 66.2864C4.6893 65.2561 5.47178 64.2934 6.33539 63.4104C7.12494 62.5289 8.03176 61.7002 9.06087 60.9396L87.0099 3.32871Z" fill="white"/>
<path d="M107.218 3.32869L105.435 5.74127L105.435 5.74127L107.218 3.32869ZM87.0099 3.32871L88.793 5.74129L88.793 5.74129L87.0099 3.32871ZM185.167 60.9395L183.384 63.3521L183.384 63.3521L185.167 60.9395ZM187.856 63.3695L185.628 65.3782L185.672 65.4267L185.717 65.4732L187.856 63.3695ZM189.693 65.5199L192.34 66.9301L193.23 65.2594L192.105 63.7371L189.693 65.5199ZM189.605 65.6824L186.973 64.2426L186.129 65.7851L187.063 67.2751L189.605 65.6824ZM189.743 65.9067L192.236 67.5748L193.297 65.9887L192.311 64.3553L189.743 65.9067ZM187.407 68.7829L185.263 66.6853L185.217 66.7323L185.173 66.7813L187.407 68.7829ZM184.682 71.2535L182.899 68.8409L182.899 68.8409L184.682 71.2535ZM106.733 128.864L104.95 126.452L104.95 126.452L106.733 128.864ZM86.5244 128.864L84.7413 131.277L86.5244 128.864ZM8.57538 71.2536L6.79227 73.6661L6.79227 73.6661L8.57538 71.2536ZM5.88685 68.8239L8.11505 66.8151L8.07136 66.7667L8.02561 66.7202L5.88685 68.8239ZM4.05025 66.6732L1.40227 65.2631L0.512673 66.9337L1.63745 68.456L4.05025 66.6732ZM4.13797 66.5107L6.76968 67.9509L7.61388 66.4082L6.68026 64.918L4.13797 66.5107ZM4 66.2864L1.50656 64.6183L0.445343 66.2045L1.43235 67.838L4 66.2864ZM6.33539 63.4104L8.48017 65.508L8.52617 65.461L8.57006 65.4119L6.33539 63.4104ZM9.06087 60.9396L7.27777 58.527L7.27777 58.527L9.06087 60.9396ZM109.001 0.916109C101.937 -4.30538 92.2916 -4.30537 85.2268 0.916127L88.793 5.74129C93.7384 2.08624 100.49 2.08624 105.435 5.74127L109.001 0.916109ZM186.951 58.527L109.001 0.916109L105.435 5.74127L183.384 63.3521L186.951 58.527ZM190.085 61.3608C189.166 60.3424 188.122 59.3928 186.951 58.527L183.384 63.3521C184.239 63.9839 184.984 64.664 185.628 65.3782L190.085 61.3608ZM192.105 63.7371C191.46 62.8638 190.755 62.0381 189.995 61.2658L185.717 65.4732C186.28 66.0452 186.802 66.6565 187.28 67.3028L192.105 63.7371ZM192.237 67.1223C192.272 67.0584 192.306 66.9943 192.34 66.9301L187.045 64.1098C187.021 64.1541 186.997 64.1984 186.973 64.2426L192.237 67.1223ZM192.311 64.3553C192.257 64.2664 192.202 64.1779 192.147 64.0898L187.063 67.2751C187.101 67.336 187.138 67.3969 187.175 67.4581L192.311 64.3553ZM189.552 70.8805C190.544 69.8659 191.444 68.7594 192.236 67.5748L187.249 64.2385C186.663 65.1147 185.998 65.9338 185.263 66.6853L189.552 70.8805ZM186.465 73.6661C187.655 72.7867 188.714 71.8209 189.642 70.7845L185.173 66.7813C184.522 67.5078 183.767 68.1992 182.899 68.8409L186.465 73.6661ZM108.516 131.277L186.465 73.6661L182.899 68.8409L104.95 126.452L108.516 131.277ZM84.7413 131.277C91.8061 136.498 101.451 136.498 108.516 131.277L104.95 126.452C100.004 130.107 93.2529 130.107 88.3075 126.452L84.7413 131.277ZM6.79227 73.6661L84.7413 131.277L88.3075 126.452L10.3585 68.841L6.79227 73.6661ZM3.65865 70.8326C4.5766 71.8509 5.62085 72.8004 6.79227 73.6661L10.3585 68.841C9.50371 68.2092 8.7588 67.5292 8.11505 66.8151L3.65865 70.8326ZM1.63745 68.456C2.28282 69.3294 2.98841 70.1553 3.74809 70.9276L8.02561 66.7202C7.46299 66.1482 6.94061 65.5367 6.46304 64.8904L1.63745 68.456ZM1.50627 65.0705C1.47118 65.1346 1.43652 65.1988 1.40227 65.2631L6.69823 68.0832C6.72178 68.039 6.7456 67.9949 6.76968 67.9509L1.50627 65.0705ZM1.43235 67.838C1.48599 67.9267 1.54043 68.0152 1.59568 68.1034L6.68026 64.918C6.64216 64.8571 6.60462 64.7961 6.56765 64.7349L1.43235 67.838ZM4.19061 61.3128C3.19833 62.3274 2.29902 63.4338 1.50656 64.6183L6.49344 67.9546C7.07958 67.0785 7.74523 66.2595 8.48017 65.508L4.19061 61.3128ZM7.27777 58.527C6.08781 59.4065 5.0291 60.3723 4.10072 61.4088L8.57006 65.4119C9.22078 64.6854 9.9757 63.9939 10.844 63.3522L7.27777 58.527ZM85.2268 0.916127L7.27777 58.527L10.844 63.3522L88.793 5.74129L85.2268 0.916127Z" fill="black" mask="url(#path-2-inside-1_138_3028)"/>
<circle cx="96.8295" cy="80.8295" r="43.3295" fill="#86C78F" stroke="black" stroke-width="3"/>
<path d="M89.9038 100.024L116.991 65.2443" stroke="black" stroke-width="6" stroke-linecap="round"/>
<path d="M89.9038 100.024L77.3474 85.8792" stroke="black" stroke-width="6" stroke-linecap="round"/>
<mask id="path-7-inside-2_138_3028" fill="white">
<path fill-rule="evenodd" clip-rule="evenodd" d="M107.489 105.657C101.484 101.219 93.2857 101.219 87.2806 105.657L9.33157 163.268C7.12935 164.896 5.48715 166.835 4.35571 168.937C7.99901 173.859 13.8474 177.049 20.4411 177.049L173.403 177.049C180.315 177.049 186.407 173.543 190 168.213C188.894 166.39 187.385 164.707 185.438 163.268L107.489 105.657Z"/>
</mask>
<path fill-rule="evenodd" clip-rule="evenodd" d="M107.489 105.657C101.484 101.219 93.2857 101.219 87.2806 105.657L9.33157 163.268C7.12935 164.896 5.48715 166.835 4.35571 168.937C7.99901 173.859 13.8474 177.049 20.4411 177.049L173.403 177.049C180.315 177.049 186.407 173.543 190 168.213C188.894 166.39 187.385 164.707 185.438 163.268L107.489 105.657Z" fill="white"/>
<path d="M87.2806 105.657L89.0637 108.07L89.0637 108.07L87.2806 105.657ZM107.489 105.657L105.706 108.07L105.706 108.07L107.489 105.657ZM9.33157 163.268L7.54847 160.855L7.54847 160.855L9.33157 163.268ZM4.35571 168.937L1.71419 167.515L0.811583 169.191L1.94446 170.722L4.35571 168.937ZM20.4411 177.049L20.4411 180.049L20.4411 177.049ZM173.403 177.049L173.403 174.049L173.403 177.049ZM190 168.213L192.488 169.889L193.56 168.298L192.565 166.657L190 168.213ZM185.438 163.268L183.655 165.681L183.655 165.681L185.438 163.268ZM89.0637 108.07C94.0091 104.415 100.761 104.415 105.706 108.07L109.272 103.245C102.207 98.0231 92.5623 98.0231 85.4975 103.245L89.0637 108.07ZM11.1147 165.681L89.0637 108.07L85.4975 103.245L7.54847 160.855L11.1147 165.681ZM6.99723 170.359C7.9155 168.653 9.26204 167.05 11.1147 165.681L7.54847 160.855C4.99665 162.741 3.0588 165.017 1.71419 167.515L6.99723 170.359ZM20.4411 174.049C14.8386 174.049 9.86886 171.342 6.76696 167.152L1.94446 170.722C6.12915 176.375 12.8563 180.049 20.4411 180.049L20.4411 174.049ZM173.403 174.049L20.4411 174.049L20.4411 180.049L173.403 180.049L173.403 174.049ZM187.512 166.536C184.454 171.075 179.275 174.049 173.403 174.049L173.403 180.049C181.354 180.049 188.361 176.012 192.488 169.889L187.512 166.536ZM183.655 165.681C185.294 166.892 186.536 168.286 187.435 169.768L192.565 166.657C191.253 164.494 189.476 162.522 187.221 160.855L183.655 165.681ZM105.706 108.07L183.655 165.681L187.221 160.855L109.272 103.245L105.706 108.07Z" fill="black" mask="url(#path-7-inside-2_138_3028)"/>
</svg>
