<svg width="153" height="140" viewBox="0 0 153 140" fill="none" xmlns="http://www.w3.org/2000/svg">
<rect x="2.21436" y="46.3313" width="149.286" height="91.6016" rx="18.5" fill="white" stroke="black" stroke-width="3"/>
<mask id="path-2-inside-1_23_2561" fill="white">
<path fill-rule="evenodd" clip-rule="evenodd" d="M66.6975 3.73739C72.7026 -0.700877 80.9009 -0.700874 86.906 3.73739L137.545 41.1642C139.959 42.9479 141.7 45.106 142.833 47.4418C143.26 47.685 143.677 47.9435 144.083 48.2164C144.107 49.0197 144.075 49.826 143.985 50.6289C144.312 51.9479 144.472 53.2931 144.474 54.6339C143.828 55.1135 143.153 55.5551 142.451 55.9554C141.318 58.2919 139.576 60.4508 137.162 62.2351L86.5228 99.6619C80.5177 104.1 72.3194 104.1 66.3143 99.6619L15.6749 62.2351C13.2615 60.4514 11.5206 58.2933 10.3876 55.9575C9.96074 55.7143 9.54374 55.4558 9.13731 55.1829C9.11309 54.3796 9.14493 53.5732 9.23502 52.7704C8.90823 51.4514 8.7487 50.1062 8.74634 48.7654C9.39199 48.2858 10.0675 47.8442 10.7697 47.4439C11.9028 45.1073 13.6439 42.9484 16.058 41.1642L66.6975 3.73739Z"/>
</mask>
<path fill-rule="evenodd" clip-rule="evenodd" d="M66.6975 3.73739C72.7026 -0.700877 80.9009 -0.700874 86.906 3.73739L137.545 41.1642C139.959 42.9479 141.7 45.106 142.833 47.4418C143.26 47.685 143.677 47.9435 144.083 48.2164C144.107 49.0197 144.075 49.826 143.985 50.6289C144.312 51.9479 144.472 53.2931 144.474 54.6339C143.828 55.1135 143.153 55.5551 142.451 55.9554C141.318 58.2919 139.576 60.4508 137.162 62.2351L86.5228 99.6619C80.5177 104.1 72.3194 104.1 66.3143 99.6619L15.6749 62.2351C13.2615 60.4514 11.5206 58.2933 10.3876 55.9575C9.96074 55.7143 9.54374 55.4558 9.13731 55.1829C9.11309 54.3796 9.14493 53.5732 9.23502 52.7704C8.90823 51.4514 8.7487 50.1062 8.74634 48.7654C9.39199 48.2858 10.0675 47.8442 10.7697 47.4439C11.9028 45.1073 13.6439 42.9484 16.058 41.1642L66.6975 3.73739Z" fill="white"/>
<path d="M86.906 3.73739L88.689 1.32481V1.32481L86.906 3.73739ZM66.6975 3.73739L64.9144 1.32481V1.32481L66.6975 3.73739ZM137.545 41.1642L135.762 43.5768L137.545 41.1642ZM142.833 47.4418L140.134 48.7512L140.539 49.588L141.348 50.0484L142.833 47.4418ZM144.083 48.2164L147.082 48.126L147.035 46.5854L145.756 45.726L144.083 48.2164ZM143.985 50.6289L141.004 50.2943L140.944 50.8285L141.073 51.3503L143.985 50.6289ZM144.474 54.6339L146.263 57.0422L147.477 56.1406L147.474 54.6287L144.474 54.6339ZM142.451 55.9554L140.965 53.3491L140.157 53.8097L139.751 54.6464L142.451 55.9554ZM137.162 62.2351L135.379 59.8225L135.379 59.8225L137.162 62.2351ZM86.5228 99.6619L88.3059 102.074H88.3059L86.5228 99.6619ZM66.3143 99.6619L64.5312 102.074L66.3143 99.6619ZM15.6749 62.2351L13.8918 64.6477L15.6749 62.2351ZM10.3876 55.9575L13.0867 54.6481L12.6808 53.8113L11.8728 53.3509L10.3876 55.9575ZM9.13731 55.1829L6.13868 55.2733L6.18514 56.8139L7.46465 57.6733L9.13731 55.1829ZM9.23502 52.7704L12.2163 53.1049L12.2762 52.5707L12.147 52.049L9.23502 52.7704ZM8.74634 48.7654L6.95746 46.3571L5.74368 47.2587L5.74634 48.7706L8.74634 48.7654ZM10.7697 47.4439L12.2554 50.0502L13.0633 49.5896L13.4691 48.7529L10.7697 47.4439ZM16.058 41.1642L14.2749 38.7516L16.058 41.1642ZM88.689 1.32481C81.6242 -3.89668 71.9792 -3.89668 64.9144 1.32481L68.4806 6.14997C73.4259 2.49493 80.1775 2.49493 85.1229 6.14998L88.689 1.32481ZM139.329 38.7516L88.689 1.32481L85.1229 6.14997L135.762 43.5768L139.329 38.7516ZM145.532 46.1325C144.184 43.3543 142.127 40.8196 139.329 38.7516L135.762 43.5768C137.791 45.0762 139.215 46.8578 140.134 48.7512L145.532 46.1325ZM145.756 45.726C145.288 45.4122 144.809 45.115 144.318 44.8353L141.348 50.0484C141.71 50.2551 142.065 50.4748 142.41 50.7068L145.756 45.726ZM146.967 50.9634C147.073 50.0172 147.11 49.0688 147.082 48.126L141.084 48.3068C141.104 48.9706 141.078 49.6349 141.004 50.2943L146.967 50.9634ZM147.474 54.6287C147.471 53.0535 147.284 51.4675 146.897 49.9074L141.073 51.3503C141.34 52.4283 141.472 53.5327 141.474 54.6392L147.474 54.6287ZM143.936 58.5616C144.744 58.1012 145.521 57.5935 146.263 57.0422L142.685 52.2256C142.136 52.6335 141.562 53.0089 140.965 53.3491L143.936 58.5616ZM138.945 64.6477C141.744 62.5791 143.802 60.0435 145.15 57.2644L139.751 54.6464C138.833 56.5404 137.409 58.3226 135.379 59.8225L138.945 64.6477ZM88.3059 102.074L138.945 64.6477L135.379 59.8225L84.7397 97.2493L88.3059 102.074ZM64.5312 102.074C71.5961 107.296 81.2411 107.296 88.3059 102.074L84.7397 97.2493C79.7943 100.904 73.0428 100.904 68.0974 97.2493L64.5312 102.074ZM13.8918 64.6477L64.5312 102.074L68.0974 97.2493L17.458 59.8225L13.8918 64.6477ZM7.68839 57.2669C9.03609 60.045 11.0938 62.5797 13.8918 64.6477L17.458 59.8225C15.4292 58.3231 14.0052 56.5415 13.0867 54.6481L7.68839 57.2669ZM7.46465 57.6733C7.93193 57.9871 8.41145 58.2843 8.90237 58.5641L11.8728 53.3509C11.51 53.1442 11.1556 52.9245 10.81 52.6924L7.46465 57.6733ZM6.25373 52.4359C6.14756 53.382 6.11024 54.3304 6.13868 55.2733L12.1359 55.0924C12.1159 54.4287 12.1423 53.7644 12.2163 53.1049L6.25373 52.4359ZM5.74634 48.7706C5.74911 50.3458 5.93655 51.9317 6.32305 53.4918L12.147 52.049C11.8799 50.971 11.7483 49.8666 11.7463 48.7601L5.74634 48.7706ZM9.28395 44.8377C8.47634 45.2981 7.6996 45.8058 6.95746 46.3571L10.5352 51.1737C11.0844 50.7658 11.6587 50.3903 12.2554 50.0502L9.28395 44.8377ZM14.2749 38.7516C11.4761 40.8202 9.418 43.3558 8.07033 46.1349L13.4691 48.7529C14.3875 46.8589 15.8117 45.0767 17.8411 43.5768L14.2749 38.7516ZM64.9144 1.32481L14.2749 38.7516L17.8411 43.5768L68.4806 6.14997L64.9144 1.32481Z" fill="black" mask="url(#path-2-inside-1_23_2561)"/>
<circle cx="76.0882" cy="63.2904" r="33.8795" fill="#86C78F" stroke="black" stroke-width="3"/>
<path d="M70.6224 78.4385L91.9999 50.9904" stroke="black" stroke-width="5" stroke-linecap="round"/>
<path d="M70.6224 78.4385L60.7128 67.2755" stroke="black" stroke-width="5" stroke-linecap="round"/>
<mask id="path-7-inside-2_23_2561" fill="white">
<path fill-rule="evenodd" clip-rule="evenodd" d="M86.6305 84.4952C80.6254 80.057 72.4271 80.057 66.422 84.4952L15.7826 121.922C10.8522 125.566 8.72887 130.773 8.85974 135.864C12.0471 138.011 15.8864 139.264 20.0183 139.264L132.304 139.264C136.759 139.264 140.874 137.807 144.198 135.344C144.176 130.42 142.033 125.442 137.27 121.922L86.6305 84.4952Z"/>
</mask>
<path fill-rule="evenodd" clip-rule="evenodd" d="M86.6305 84.4952C80.6254 80.057 72.4271 80.057 66.422 84.4952L15.7826 121.922C10.8522 125.566 8.72887 130.773 8.85974 135.864C12.0471 138.011 15.8864 139.264 20.0183 139.264L132.304 139.264C136.759 139.264 140.874 137.807 144.198 135.344C144.176 130.42 142.033 125.442 137.27 121.922L86.6305 84.4952Z" fill="white"/>
<path d="M66.422 84.4952L64.6389 82.0826L66.422 84.4952ZM86.6305 84.4952L88.4136 82.0826L86.6305 84.4952ZM15.7826 121.922L17.5657 124.335L17.5657 124.335L15.7826 121.922ZM8.85974 135.864L5.86073 135.941L5.9005 137.488L7.18387 138.352L8.85974 135.864ZM20.0183 139.264L20.0183 136.264L20.0183 139.264ZM132.304 139.264L132.304 142.264L132.304 139.264ZM144.198 135.344L145.984 137.754L147.205 136.85L147.198 135.33L144.198 135.344ZM137.27 121.922L135.487 124.335L137.27 121.922ZM68.2051 86.9078C73.1505 83.2528 79.902 83.2528 84.8474 86.9078L88.4136 82.0826C81.3488 76.8612 71.7038 76.8611 64.6389 82.0826L68.2051 86.9078ZM17.5657 124.335L68.2051 86.9078L64.6389 82.0826L13.9995 119.509L17.5657 124.335ZM11.8587 135.787C11.7515 131.615 13.469 127.362 17.5657 124.335L13.9995 119.509C8.23549 123.77 5.70622 129.93 5.86073 135.941L11.8587 135.787ZM20.0183 136.264C16.5019 136.264 13.2433 135.199 10.5356 133.376L7.18387 138.352C10.8509 140.822 15.2708 142.264 20.0183 142.264L20.0183 136.264ZM132.304 136.264L20.0183 136.264L20.0183 142.264L132.304 142.264L132.304 136.264ZM142.412 132.933C139.587 135.027 136.094 136.264 132.304 136.264L132.304 142.264C137.424 142.264 142.161 140.587 145.984 137.754L142.412 132.933ZM135.487 124.335C139.448 127.262 141.18 131.329 141.198 135.357L147.198 135.33C147.172 129.511 144.618 123.622 139.053 119.509L135.487 124.335ZM84.8474 86.9078L135.487 124.335L139.053 119.509L88.4136 82.0826L84.8474 86.9078Z" fill="black" mask="url(#path-7-inside-2_23_2561)"/>
</svg>
