<svg width="19" height="32" viewBox="0 0 19 32" fill="none" xmlns="http://www.w3.org/2000/svg">
<g clip-path="url(#clip0_1_756)">
<path d="M12.9301 31.5846H5.41148V18.4146H0.476929V11.625H5.39024C5.39024 11.5159 5.4044 11.4341 5.4044 11.3592C5.4044 10.173 5.39024 8.99372 5.4044 7.80759C5.43272 6.39651 5.72299 5.04678 6.43096 3.7993C7.47875 1.95877 9.12124 0.888525 11.2168 0.431798C12.4841 0.152309 13.7726 0.152309 15.054 0.268195C16.1018 0.36363 17.1355 0.499967 18.1833 0.622669C18.2895 0.636303 18.3956 0.66357 18.5089 0.684021V6.56011C18.4169 6.56011 18.3319 6.56011 18.2399 6.56011C17.2558 6.56011 16.2717 6.54648 15.2877 6.56693C14.962 6.56693 14.6292 6.62147 14.3177 6.70327C13.4753 6.92822 12.9514 7.55537 12.923 8.40747C12.8947 9.44363 12.9089 10.4798 12.9089 11.5159C12.9089 11.5364 12.923 11.5637 12.9301 11.6046H18.4027C18.2965 12.2726 18.1974 12.9134 18.0983 13.561C17.8859 14.8834 17.6735 16.2127 17.4611 17.5352C17.4257 17.7533 17.3762 17.9646 17.362 18.1828C17.3479 18.3668 17.2771 18.4077 17.093 18.4077C15.8045 18.4077 14.516 18.4077 13.2275 18.4077C13.1284 18.4077 13.0292 18.4077 12.9018 18.4077V31.5778L12.9301 31.5846ZM11.4788 30.1872V17.0103H16.1018C16.3142 15.6742 16.5266 14.3517 16.739 12.9952H11.4646C11.4646 12.7975 11.4646 12.6271 11.4646 12.4635C11.4788 11.0388 11.4434 9.60723 11.5213 8.18933C11.6133 6.62828 12.8027 5.45579 14.4169 5.26492C15.1815 5.1763 15.9602 5.21039 16.7319 5.18993C16.8381 5.18993 16.9443 5.18993 17.0505 5.18993V1.8497C16.4346 1.79516 15.8399 1.73381 15.2381 1.67928C14.07 1.57702 12.9018 1.52931 11.7478 1.74744C10.6009 1.96558 9.56726 2.40186 8.72478 3.19261C7.47875 4.34465 6.94777 5.81708 6.87698 7.42585C6.80618 9.17095 6.84158 10.9229 6.8345 12.6748C6.8345 12.7702 6.8345 12.8657 6.8345 12.9884H1.92827V17.0171H6.85574V30.1804H11.4788V30.1872Z" fill="black"/>
</g>
<defs>
<clipPath id="clip0_1_756">
<rect width="18.0462" height="31.3846" fill="white" transform="translate(0.476929 0.199951)"/>
</clipPath>
</defs>
</svg>
