<svg width="23" height="21" viewBox="0 0 23 21" fill="none" xmlns="http://www.w3.org/2000/svg">
<g clip-path="url(#clip0_207_2363)">
<path d="M12.582 6.80849C12.582 6.93267 12.582 7.04378 12.582 7.15489C12.582 11.1679 12.582 15.1743 12.582 19.1873C12.582 19.5664 12.4643 19.8736 12.1375 20.0696C11.5558 20.416 10.8173 20.0173 10.7846 19.3376C10.7781 19.1285 10.7846 18.9259 10.7846 18.7167C10.7846 14.8345 10.7846 10.9587 10.7846 7.07646C10.7846 6.86732 10.7323 6.77582 10.5232 6.70392C9.00688 6.16799 8.0788 4.67129 8.24873 3.05695C8.41212 1.5145 9.67353 0.233483 11.2421 0.0308732C12.9741 -0.19788 14.5819 0.90667 15.0329 2.63866C15.4577 4.27914 14.5558 6.03727 12.9545 6.67124C12.8369 6.71699 12.7127 6.76274 12.582 6.81503V6.80849ZM13.3205 3.48177C13.3205 2.56676 12.6016 1.82822 11.6931 1.82168C10.7781 1.82168 10.0395 2.53408 10.033 3.44256C10.033 4.37718 10.7389 5.10265 11.6735 5.11572C12.582 5.12226 13.314 4.39025 13.3205 3.47524V3.48177Z" fill="black"/>
<path d="M2.89587 3.74324C2.89587 2.81516 2.89587 1.88054 2.89587 0.952455C2.89587 0.455734 3.23574 0.0897297 3.71285 0.0309076C4.11807 -0.0213788 4.53636 0.25966 4.654 0.677951C4.69322 0.808667 4.69322 0.952455 4.69322 1.09624C4.69322 2.90012 4.69322 4.704 4.69322 6.50788C4.69322 6.71703 4.73243 6.81506 4.94811 6.88696C6.32717 7.35754 7.23564 8.64509 7.23564 10.1091C7.23564 11.5731 6.34678 12.8607 4.96772 13.3443C4.75858 13.4162 4.68668 13.5077 4.68668 13.7365C4.69975 15.5338 4.69322 17.3246 4.68668 19.122C4.68668 19.2592 4.68668 19.4095 4.654 19.5403C4.54943 19.9651 4.11153 20.2592 3.69978 20.2069C3.2292 20.1416 2.88934 19.7755 2.88934 19.2788C2.8828 18.0762 2.88934 16.8737 2.88934 15.6711C2.88934 15.0044 2.88934 14.3378 2.88934 13.6711C2.88934 13.5077 2.84359 13.4358 2.68019 13.377C1.24885 12.8411 0.359985 11.5797 0.359985 10.083C0.359985 8.63855 1.275 7.37061 2.6998 6.86081C2.86973 6.80199 2.90241 6.71703 2.90241 6.56017C2.90241 5.61901 2.90241 4.68439 2.90241 3.74324H2.89587ZM3.80435 8.46862C2.88934 8.46862 2.16387 9.19409 2.15733 10.1091C2.15733 11.0307 2.88934 11.7561 3.82396 11.7496C4.73243 11.7496 5.45791 11.011 5.45137 10.096C5.44484 9.18102 4.71936 8.46862 3.79781 8.46862H3.80435Z" fill="black"/>
<path d="M18.6602 5.23358C18.6602 3.79571 18.6602 2.35783 18.6602 0.919957C18.6602 0.521273 18.8955 0.207555 19.2485 0.0768389C19.5949 -0.0473412 20.0066 0.0245526 20.2092 0.331735C20.3465 0.534345 20.4445 0.808848 20.4445 1.05721C20.4576 3.85453 20.4576 6.65185 20.4445 9.45571C20.4445 9.72367 20.4837 9.86746 20.7844 9.97203C22.1634 10.4688 23.0065 11.7694 22.9869 13.2791C22.9739 14.6517 22.0327 15.9327 20.6798 16.4098C20.4968 16.4752 20.438 16.547 20.4445 16.7431C20.4576 17.5862 20.4576 18.4359 20.4445 19.279C20.4445 19.7692 20.0916 20.1417 19.621 20.194C19.2223 20.2398 18.7909 19.9522 18.6798 19.5404C18.6472 19.4163 18.6472 19.279 18.6472 19.1483C18.6472 18.3379 18.6406 17.534 18.6472 16.7235C18.6472 16.5405 18.5883 16.4686 18.4184 16.4098C17.0197 15.9392 16.1047 14.6582 16.1047 13.1811C16.1047 11.6909 17.0067 10.4099 18.4184 9.92628C18.6014 9.86093 18.6537 9.77596 18.6537 9.58642C18.6472 8.12894 18.6537 6.67799 18.6537 5.22051L18.6602 5.23358ZM17.9152 13.1419C17.9021 14.0634 18.6014 14.7889 19.523 14.8216C20.4184 14.8477 21.183 14.1223 21.2027 13.2399C21.2157 12.2922 20.5164 11.5341 19.6079 11.521C18.6733 11.5079 17.9348 12.2138 17.9152 13.1419Z" fill="black"/>
</g>
<defs>
<clipPath id="clip0_207_2363">
<rect width="22.64" height="20.2021" fill="white" transform="translate(0.359985 -0.00170898)"/>
</clipPath>
</defs>
</svg>
