<svg width="43" height="43" viewBox="0 0 43 43" fill="none" xmlns="http://www.w3.org/2000/svg">
<g clip-path="url(#clip0_1_568)">
<path d="M42.092 9.57168C42.0648 11.9237 41.3293 13.7491 39.8312 15.2384C31.6507 23.4207 23.4793 31.612 15.2806 39.7761C12.1663 42.8819 7.48137 42.8456 4.41253 39.7035C3.44104 38.7136 2.41507 37.6874 1.77043 36.4887C0.163378 33.5009 0.835253 30.1045 3.34117 27.589C6.87305 24.0382 10.414 20.5147 13.955 16.9729C18.4765 12.4505 23.0071 7.91888 27.5287 3.39639C30.8699 0.0635479 35.3914 0.0817105 38.778 3.39639C40.1672 4.75858 41.4928 6.14803 41.8832 8.15499C41.9921 8.69987 42.0466 9.26291 42.092 9.57168ZM21.4364 11.5423C18.1497 14.8207 14.8538 18.1172 11.6125 21.3501C14.9628 24.7011 18.3222 28.0703 21.5998 31.3577C24.8593 28.1066 28.1551 24.8192 31.4328 21.5499C28.1097 18.2262 24.7595 14.8752 21.4273 11.5423H21.4364ZM32.4679 20.442C34.7922 18.1808 37.2436 16.0103 39.4318 13.5947C41.0116 11.8511 41.1296 9.64433 40.258 7.44665C39.6315 5.84834 38.3422 4.76767 37.0983 3.70515C34.6469 1.61645 31.1059 1.79808 28.7998 4.05932C27.8192 5.01286 26.8659 6.00272 25.8944 6.96534C24.7322 8.12775 23.5519 9.28108 22.4351 10.389C25.849 13.8126 29.1993 17.1727 32.4679 20.4511V20.442ZM10.523 22.4399C10.4594 22.4762 10.3777 22.4944 10.3232 22.558C8.126 24.7556 5.87432 26.8897 3.7679 29.1691C2.35151 30.6948 2.01557 32.6019 2.47862 34.6543C2.87812 36.4251 4.13107 37.5875 5.34771 38.7772C8.01705 41.4017 11.7668 41.4017 14.3999 38.7772C16.1794 36.9972 17.9499 35.2173 19.7476 33.4464C20.0563 33.1468 20.4467 32.9197 20.7373 32.7018C17.1963 29.1419 13.8642 25.8 10.523 22.4399Z" fill="black" stroke="black" stroke-miterlimit="10"/>
<path d="M39.332 10.8612C39.2593 11.4515 38.9052 11.7875 38.2788 11.7693C37.6704 11.7512 37.3527 11.3334 37.3527 10.7886C37.3527 10.1801 37.7431 9.78053 38.3605 9.79869C38.9597 9.81685 39.3138 10.1983 39.332 10.8612Z" fill="black" stroke="black" stroke-width="0.5" stroke-miterlimit="10"/>
<path d="M35.228 6.72021C35.8454 6.7747 36.2631 7.07439 36.2722 7.701C36.2812 8.31852 35.9181 8.70902 35.2916 8.7181C34.7105 8.7181 34.3382 8.36393 34.3019 7.79181C34.2656 7.17428 34.6288 6.82011 35.228 6.72021Z" fill="black" stroke="black" stroke-width="0.5" stroke-miterlimit="10"/>
<path d="M32.3227 9.71704C32.931 9.78969 33.2942 10.1075 33.276 10.7523C33.2488 11.388 32.8402 11.724 32.241 11.6968C31.6599 11.6786 31.3058 11.2699 31.3058 10.716C31.3058 10.1166 31.678 9.75337 32.3227 9.71704Z" fill="black" stroke="black" stroke-width="0.5" stroke-miterlimit="10"/>
<path d="M31.2332 4.63139C31.3058 4.03203 31.6326 3.67786 32.2682 3.68694C32.9219 3.69602 33.2306 4.13192 33.2215 4.72221C33.2034 5.29433 32.7948 5.65758 32.241 5.65758C31.6326 5.65758 31.2876 5.27617 31.2422 4.63139H31.2332Z" fill="black" stroke="black" stroke-width="0.5" stroke-miterlimit="10"/>
<path d="M36.3448 13.8671C36.2813 14.3848 35.9726 14.7753 35.337 14.7662C34.7559 14.7571 34.4109 14.412 34.3928 13.8217C34.3746 13.186 34.7287 12.8137 35.3461 12.7955C35.9726 12.7774 36.2994 13.1588 36.3448 13.8762V13.8671Z" fill="black" stroke="black" stroke-width="0.5" stroke-miterlimit="10"/>
<path d="M29.2992 6.66577C29.8803 6.75658 30.2616 7.07443 30.2253 7.71012C30.189 8.34581 29.7714 8.65458 29.163 8.61825C28.582 8.58193 28.2369 8.20959 28.246 7.63747C28.2642 7.01086 28.6546 6.7021 29.2902 6.66577H29.2992Z" fill="black" stroke="black" stroke-width="0.5" stroke-miterlimit="10"/>
<path d="M4.67587 31.2124C5.35682 31.2578 5.69276 31.6574 5.68368 32.2477C5.68368 32.8107 5.29327 33.2012 4.72127 33.2012C4.12203 33.2012 3.72253 32.8561 3.72253 32.2113C3.72253 31.5666 4.10387 31.276 4.68495 31.2124H4.67587Z" fill="black" stroke="black" stroke-width="0.5" stroke-miterlimit="10"/>
<path d="M10.6955 33.2648C10.0962 33.1921 9.74215 32.8652 9.76031 32.2295C9.77847 31.6302 10.1598 31.2941 10.7227 31.2851C11.3401 31.276 11.7305 31.6756 11.7305 32.2749C11.7305 32.8743 11.3492 33.2375 10.6955 33.2648Z" fill="black" stroke="black" stroke-width="0.5" stroke-miterlimit="10"/>
<path d="M7.8083 36.2617C7.1909 36.2163 6.78233 35.9166 6.76417 35.2809C6.74601 34.6543 7.12735 34.282 7.74475 34.2638C8.32583 34.2548 8.69808 34.6089 8.74348 35.1811C8.78888 35.8077 8.41662 36.1528 7.81738 36.2526L7.8083 36.2617Z" fill="black" stroke="black" stroke-width="0.5" stroke-miterlimit="10"/>
<path d="M11.7941 38.4139C11.7124 38.986 11.3583 39.322 10.7318 39.2948C10.1235 39.2675 9.81482 38.8589 9.81482 38.3049C9.81482 37.6874 10.2415 37.3151 10.8408 37.3241C11.4491 37.3332 11.785 37.7328 11.8032 38.4048L11.7941 38.4139Z" fill="black" stroke="black" stroke-width="0.5" stroke-miterlimit="10"/>
<path d="M7.6539 28.2065C8.25314 28.2701 8.64355 28.5607 8.64355 29.2055C8.64355 29.8412 8.28038 30.2044 7.66298 30.2044C7.0819 30.2044 6.7278 29.8593 6.70056 29.2691C6.67332 28.6334 7.02742 28.3064 7.64482 28.2065H7.6539Z" fill="black" stroke="black" stroke-width="0.5" stroke-miterlimit="10"/>
<path d="M13.8279 36.3163C13.2105 36.289 12.8201 35.9712 12.8201 35.3445C12.8201 34.7179 13.2014 34.3638 13.8188 34.3638C14.3999 34.3638 14.7721 34.7089 14.7903 35.281C14.8175 35.9076 14.4544 36.2436 13.8279 36.3072V36.3163Z" fill="black" stroke="black" stroke-width="0.5" stroke-miterlimit="10"/>
<path d="M1.11679 8.15499C1.5072 6.14803 2.83279 4.76767 4.22194 3.39639C7.59947 0.0817105 12.1301 0.0635479 15.4713 3.39639C20.0019 7.91888 24.5235 12.4505 29.045 16.9729C32.586 20.5147 36.1269 24.0382 39.6588 27.589C42.1647 30.1045 42.8366 33.5009 41.2295 36.4887C40.5849 37.6874 39.5589 38.7136 38.5874 39.7035C35.5186 42.8456 30.8336 42.8728 27.7194 39.7761C19.5207 31.612 11.3493 23.4298 3.16873 15.2475C1.67063 13.7491 0.935197 11.9328 0.907959 9.58076C0.953356 9.272 1.00783 8.70895 1.11679 8.16408V8.15499ZM11.5672 21.5499C14.8448 24.8192 18.1406 28.1066 21.4001 31.3577C24.6869 28.0703 28.0463 24.7011 31.3875 21.3501C28.1461 18.1172 24.8503 14.8207 21.5636 11.5423C18.2314 14.8752 14.8811 18.2262 11.5581 21.5499H11.5672ZM20.5739 10.389C19.4481 9.28108 18.2768 8.11867 17.1147 6.96534C16.1432 6.00272 15.1898 5.02194 14.2093 4.05932C11.9031 1.80716 8.36214 1.61645 5.9107 3.70515C4.66683 4.76767 3.37755 5.84834 2.75108 7.44665C1.87945 9.64433 2.00657 11.8602 3.5773 13.5947C5.76543 16.0103 8.21687 18.1898 10.5412 20.442C13.8098 17.1637 17.1601 13.8036 20.5739 10.3799V10.389ZM22.2718 32.7018C22.5623 32.9197 22.9527 33.1377 23.2614 33.4464C25.0501 35.2082 26.8296 36.9972 28.6092 38.7772C31.2422 41.4017 34.992 41.4017 37.6613 38.7772C38.878 37.5784 40.1309 36.4251 40.5304 34.6543C40.9935 32.6019 40.6575 30.6948 39.2412 29.1691C37.1347 26.8988 34.883 24.7556 32.6858 22.558C32.6314 22.5035 32.5406 22.4762 32.4861 22.4399C29.1449 25.7909 25.8218 29.1419 22.2718 32.7018Z" fill="black" stroke="black" stroke-miterlimit="10"/>
<path d="M3.66809 10.8612C3.74073 11.4515 4.09482 11.7875 4.7213 11.7693C5.32962 11.7512 5.6474 11.3334 5.6474 10.7886C5.6474 10.1801 5.25698 9.78053 4.63959 9.79869C4.04035 9.81685 3.68625 10.1983 3.66809 10.8612Z" fill="black" stroke="black" stroke-width="0.5" stroke-miterlimit="10"/>
<path d="M7.77196 6.72021C7.15456 6.7747 6.73691 7.07439 6.72783 7.701C6.71875 8.31852 7.08192 8.70902 7.7084 8.7181C8.28948 8.7181 8.66174 8.36393 8.69806 7.79181C8.73437 7.17428 8.3712 6.82011 7.77196 6.72021Z" fill="black" stroke="black" stroke-width="0.5" stroke-miterlimit="10"/>
<path d="M10.6774 9.71704C10.0691 9.78969 9.70588 10.1075 9.72404 10.7523C9.75128 11.388 10.1599 11.724 10.7591 11.6968C11.3402 11.6786 11.6943 11.2699 11.6943 10.716C11.6943 10.1166 11.322 9.75337 10.6774 9.71704Z" fill="black" stroke="black" stroke-width="0.5" stroke-miterlimit="10"/>
<path d="M11.7669 4.63139C11.6943 4.03203 11.3674 3.67786 10.7319 3.68694C10.0781 3.69602 9.76944 4.13192 9.77851 4.72221C9.79667 5.29433 10.2052 5.65758 10.7591 5.65758C11.3674 5.65758 11.7124 5.27617 11.7578 4.63139H11.7669Z" fill="black" stroke="black" stroke-width="0.5" stroke-miterlimit="10"/>
<path d="M6.66431 13.8671C6.72786 14.3848 7.03656 14.7753 7.67212 14.7662C8.2532 14.7571 8.59822 14.412 8.61638 13.8217C8.63453 13.186 8.28044 12.8137 7.66304 12.7955C7.03656 12.7774 6.7097 13.1588 6.66431 13.8762V13.8671Z" fill="black" stroke="black" stroke-width="0.5" stroke-miterlimit="10"/>
<path d="M13.7008 6.66577C13.1197 6.75658 12.7384 7.07443 12.7747 7.71012C12.811 8.34581 13.2287 8.65458 13.837 8.61825C14.4181 8.58193 14.7631 8.20959 14.754 7.63747C14.7359 7.01086 14.3455 6.7021 13.7099 6.66577H13.7008Z" fill="black" stroke="black" stroke-width="0.5" stroke-miterlimit="10"/>
<path d="M38.3242 31.2124C37.6432 31.2578 37.3073 31.6574 37.3163 32.2477C37.3163 32.8107 37.7068 33.2012 38.2788 33.2012C38.878 33.2012 39.2775 32.8561 39.2775 32.2113C39.2775 31.5666 38.8962 31.276 38.3151 31.2124H38.3242Z" fill="black" stroke="black" stroke-width="0.5" stroke-miterlimit="10"/>
<path d="M32.3045 33.2648C32.9037 33.1921 33.2578 32.8652 33.2396 32.2295C33.2215 31.6302 32.8401 31.2941 32.2772 31.2851C31.6598 31.276 31.2694 31.6756 31.2694 32.2749C31.2694 32.8743 31.6507 33.2375 32.3045 33.2648Z" fill="black" stroke="black" stroke-width="0.5" stroke-miterlimit="10"/>
<path d="M35.1917 36.2617C35.8091 36.2163 36.2177 35.9166 36.2358 35.2809C36.254 34.6543 35.8727 34.282 35.2553 34.2638C34.6742 34.2548 34.3019 34.6089 34.2565 35.1811C34.2111 35.8077 34.5834 36.1528 35.1826 36.2526L35.1917 36.2617Z" fill="black" stroke="black" stroke-width="0.5" stroke-miterlimit="10"/>
<path d="M31.2059 38.4139C31.2876 38.986 31.6417 39.322 32.2681 39.2948C32.8765 39.2675 33.1852 38.8589 33.1852 38.3049C33.1852 37.6874 32.7584 37.3151 32.1592 37.3241C31.5509 37.3332 31.2149 37.7328 31.1968 38.4048L31.2059 38.4139Z" fill="black" stroke="black" stroke-width="0.5" stroke-miterlimit="10"/>
<path d="M35.3551 28.2065C34.7559 28.2701 34.3655 28.5607 34.3655 29.2055C34.3655 29.8412 34.7287 30.2044 35.3461 30.2044C35.9271 30.2044 36.2812 29.8593 36.3085 29.2691C36.3357 28.6334 35.9816 28.3064 35.3642 28.2065H35.3551Z" fill="black" stroke="black" stroke-width="0.5" stroke-miterlimit="10"/>
<path d="M29.1811 36.3163C29.7985 36.289 30.1889 35.9712 30.1889 35.3445C30.1889 34.7179 29.8076 34.3638 29.1902 34.3638C28.6091 34.3638 28.2369 34.7089 28.2187 35.281C28.1915 35.9076 28.5547 36.2436 29.1811 36.3072V36.3163Z" fill="black" stroke="black" stroke-width="0.5" stroke-miterlimit="10"/>
<path d="M23.8108 23.708C25.0695 22.449 25.0695 20.4078 23.8108 19.1488C22.552 17.8898 20.5112 17.8898 19.2525 19.1488C17.9937 20.4078 17.9937 22.449 19.2525 23.708C20.5112 24.967 22.552 24.967 23.8108 23.708Z" stroke="black" stroke-width="2" stroke-miterlimit="10"/>
</g>
<defs>
<clipPath id="clip0_1_568">
<rect width="43" height="43" fill="white"/>
</clipPath>
</defs>
</svg>
