<svg width="24" height="26" viewBox="0 0 24 26" fill="none" xmlns="http://www.w3.org/2000/svg">
<g clip-path="url(#clip0_1_2845)">
<path d="M9.5585 8.75001C9.46821 8.90023 9.3706 9.04794 9.28519 9.20066C8.87279 9.94423 8.46527 10.6903 8.05286 11.4364C8.0187 11.499 7.9943 11.5741 7.94305 11.6141C7.87472 11.6692 7.77467 11.7443 7.71122 11.7293C7.63558 11.7093 7.54773 11.6091 7.52576 11.5265C7.46476 11.3112 7.42571 11.0884 7.39399 10.8656C7.36959 10.6878 7.27442 10.6578 7.128 10.6978C6.84981 10.7754 6.56918 10.8505 6.29343 10.9357C6.14213 10.9832 6.01768 10.9707 5.93715 10.8205C5.85174 10.6628 5.92007 10.5426 6.02988 10.4274C6.54478 9.88164 7.07431 9.35088 7.55993 8.77755C7.88692 8.392 8.14559 7.94635 8.46771 7.48068C8.33593 7.48068 8.27249 7.48068 8.2066 7.48068C7.6307 7.45564 7.03771 7.51323 6.48377 7.39055C4.96593 7.05507 3.84096 6.1788 3.41148 4.59652C3.00639 3.10938 3.36511 1.77746 4.53644 0.781018C5.6004 -0.122785 6.81321 -0.202901 8.07238 0.357908C8.75078 0.658341 9.31936 1.12652 9.85866 1.62974C10.1637 1.91515 10.4565 2.21809 10.7494 2.51852C10.8299 2.60114 10.8909 2.63119 11.008 2.58362C11.6742 2.31573 12.3428 2.30071 13.0042 2.59614C13.1091 2.6437 13.1603 2.60365 13.2311 2.53855C13.8094 2.00528 14.3707 1.44948 14.9759 0.94876C15.5176 0.500614 16.1423 0.187663 16.8378 0.0674893C17.9872 -0.130296 18.9682 0.212699 19.7808 1.07394C20.8838 2.24563 21.0766 4.12334 20.2225 5.50032C19.4099 6.80971 18.2044 7.40057 16.7304 7.47567C16.3571 7.4957 15.9813 7.47818 15.5469 7.47818C15.8617 7.94135 16.1399 8.36696 16.4327 8.78006C16.8817 9.40596 17.4308 9.93672 17.9945 10.4525C18.1019 10.5501 18.1653 10.6653 18.0799 10.808C17.9969 10.9457 17.8749 10.9882 17.7212 10.9482C17.6797 10.9382 17.6358 10.9231 17.5943 10.9131C17.36 10.843 17.1209 10.7829 16.8891 10.7028C16.7158 10.6427 16.6426 10.7128 16.6133 10.8756C16.5743 11.0834 16.5474 11.2962 16.4864 11.499C16.4596 11.5891 16.3815 11.6943 16.301 11.7318C16.1765 11.7894 16.0984 11.6792 16.0398 11.5716C15.5518 10.7028 15.0613 9.83157 14.5732 8.96282C14.5366 8.89773 14.4952 8.83263 14.422 8.71496C14.4146 8.84765 14.4073 8.92526 14.4073 9.00288C14.4024 10.0018 14.4 11.0008 14.3975 11.9997C14.3975 12.3727 14.4927 12.4654 14.8588 12.4654C17.1575 12.4654 19.4562 12.4654 21.7549 12.4654C22.182 12.4654 22.2942 12.3527 22.2942 11.9196C22.2942 11.1259 22.2942 10.3348 22.2942 9.54115C22.2942 9.1581 22.1576 9.0179 21.7818 9.0179C20.608 9.0179 19.4318 9.0179 18.258 9.01539C18.1775 9.01539 18.0945 9.01539 18.014 8.99787C17.7578 8.94529 17.5553 8.72998 17.5186 8.47712C17.482 8.23427 17.6065 7.98641 17.8554 7.86373C18.0628 7.76109 18.2971 7.70601 18.4972 7.59334C19.034 7.29291 19.6002 7.2178 20.2005 7.24534C20.8642 7.27538 21.5304 7.25035 22.1966 7.25285C23.1923 7.25786 23.9878 8.06903 23.9927 9.09551C23.9975 10.1721 23.9927 11.2486 23.9927 12.3227C23.9927 13.4142 23.3362 14.1403 22.2723 14.2279C21.9306 14.2555 21.894 14.298 21.894 14.6535C21.894 17.733 21.8916 20.8124 21.8867 23.8918C21.8867 25.1136 21.0204 25.9924 19.8247 25.9924C14.5806 25.9924 9.33644 25.9924 4.09231 25.9924C3.15525 25.9924 2.34996 25.3414 2.15718 24.4151C2.11326 24.2098 2.10838 23.992 2.10838 23.7817C2.10594 20.7348 2.10594 17.6854 2.10594 14.6385C2.10594 14.3005 2.04981 14.2179 1.71549 14.2179C0.636897 14.2179 -0.0268545 13.2039 -0.00733235 12.3302C0.0195106 11.2411 -0.00733235 10.152 0.00730924 9.06296C0.0219508 8.01645 0.761351 7.26787 1.78138 7.25536C2.73552 7.24284 3.68967 7.25035 4.64625 7.25536C4.70726 7.25536 4.77315 7.26537 4.82927 7.29041C5.24656 7.46816 5.65896 7.65093 6.07625 7.83119C6.30075 7.92883 6.45449 8.08405 6.47157 8.34693C6.49597 8.72247 6.19094 9.0179 5.78097 9.0179C4.65113 9.0179 3.52129 9.0154 2.38901 9.01289C1.77894 9.01289 1.70329 9.088 1.70329 9.70889C1.70329 10.4625 1.70329 11.2161 1.70329 11.9697C1.70329 12.3227 1.84239 12.4629 2.18158 12.4629C4.48763 12.4629 6.79124 12.4629 9.09729 12.4629C9.51946 12.4629 9.59023 12.3878 9.59023 11.9596C9.59023 10.9557 9.59023 9.94924 9.59023 8.94529C9.59023 8.88521 9.59023 8.82262 9.59023 8.76253C9.57559 8.75752 9.56339 8.75252 9.54874 8.74751L9.5585 8.75001ZM14.3975 19.2376C14.3975 20.7573 14.3975 22.277 14.3975 23.7992C14.3975 24.1698 14.483 24.2549 14.8417 24.2549C16.4547 24.2549 18.0701 24.2549 19.6832 24.2524C20.0687 24.2524 20.2127 24.0971 20.2127 23.6991C20.2127 20.7098 20.2127 17.7204 20.2151 14.7311C20.2151 14.323 20.1151 14.2154 19.7173 14.2129C18.1043 14.2129 16.4889 14.2129 14.8758 14.2129C14.483 14.2129 14.3951 14.3005 14.3951 14.6961C14.3951 16.2108 14.3951 17.723 14.3951 19.2376H14.3975ZM9.59999 19.2502C9.59999 17.6979 9.59999 16.1457 9.59999 14.5934C9.59999 14.3331 9.4975 14.2204 9.25103 14.2204C7.56237 14.2204 5.8737 14.2179 4.18504 14.2204C3.91417 14.2204 3.80436 14.3356 3.80436 14.6085C3.80436 17.6554 3.80436 20.7022 3.80436 23.7491C3.80436 24.0821 3.98494 24.2574 4.31194 24.2574C5.94447 24.2574 7.57701 24.2574 9.20955 24.2524C9.51946 24.2524 9.59999 24.1672 9.59999 23.8518C9.59999 22.3196 9.59999 20.7849 9.59999 19.2527V19.2502ZM11.2252 15.9479H11.2203C11.2203 17.8406 11.2203 19.7359 11.2203 21.6286C11.2203 22.4147 11.2203 23.2009 11.2154 23.987C11.2154 24.1547 11.2716 24.2499 11.4375 24.2499C11.8255 24.2499 12.216 24.2499 12.604 24.2449C12.743 24.2449 12.7992 24.1597 12.7967 24.017C12.787 23.6064 12.7772 23.1933 12.7772 22.7802C12.7772 17.8006 12.7748 12.8234 12.7772 7.8437C12.7772 7.69349 12.743 7.65093 12.582 7.66094C12.2282 7.68598 11.8694 7.69098 11.5156 7.67346C11.2545 7.66094 11.2276 7.66344 11.2276 7.94635C11.2276 10.6127 11.2276 13.279 11.2276 15.9454L11.2252 15.9479ZM7.68926 5.75569C8.21636 5.6881 8.7459 5.6205 9.27299 5.5504C9.44381 5.52786 9.52434 5.43523 9.50238 5.24496C9.45845 4.86691 9.52434 4.49888 9.65123 4.14587C9.69516 4.0257 9.6854 3.94058 9.59267 3.85545C9.02165 3.32469 8.46039 2.7814 7.87716 2.26566C7.69658 2.10543 7.46476 1.99527 7.24025 1.90514C6.27147 1.51207 5.26852 2.03783 4.99277 3.06932C4.76826 3.90803 5.14407 4.80432 5.89811 5.29252C6.44961 5.64804 7.05723 5.72064 7.68926 5.75319V5.75569ZM16.4059 5.74818C16.7353 5.70061 17.1209 5.67558 17.4894 5.58294C18.3483 5.36513 19.0121 4.55146 19.0755 3.68521C19.1487 2.70379 18.4655 1.87259 17.5138 1.78747C16.9452 1.73489 16.4645 1.96523 16.0472 2.32825C15.4932 2.81145 14.9637 3.32719 14.4195 3.82291C14.3146 3.92055 14.2975 4.01318 14.3463 4.14587C14.4732 4.47885 14.5513 4.81934 14.5342 5.18237C14.5196 5.50533 14.544 5.54038 14.8514 5.58044C15.3493 5.64553 15.8495 5.6906 16.4034 5.75069L16.4059 5.74818ZM12.931 5.10475C12.931 4.55396 12.521 4.11833 12.0036 4.12083C11.4888 4.12083 11.0788 4.54895 11.0763 5.08473C11.0739 5.60548 11.4961 6.01607 12.0281 6.01357C12.5356 6.01106 12.931 5.61048 12.931 5.10475Z" fill="black"/>
</g>
<defs>
<clipPath id="clip0_1_2845">
<rect width="24" height="26" fill="white"/>
</clipPath>
</defs>
</svg>
