<svg width="91" height="25" viewBox="0 0 91 25" fill="none" xmlns="http://www.w3.org/2000/svg">
<g clip-path="url(#clip0_78_2395)">
<path d="M0 23.8953V1.03369C3.97559 4.88906 7.92348 8.71337 11.8344 12.5022C7.94195 16.2733 3.99406 20.0976 0.0461741 23.9219C0.0323219 23.913 0.0184697 23.9041 0 23.8953Z" fill="black"/>
<path d="M1.099 0C1.41298 0.0310559 1.75005 0.0576752 2.06866 0.252884C4.97301 2.03194 7.8866 3.79769 10.8002 5.57232C12.4532 6.57941 14.1063 7.58651 15.7639 8.59361C15.8101 8.62023 15.8516 8.65129 15.9301 8.70009C14.9789 9.65395 14.0324 10.6034 13.0812 11.5572C9.07327 7.69299 5.08383 3.84649 1.099 0Z" fill="black"/>
<path d="M13.0396 13.4473C13.9954 14.4056 14.9282 15.3417 15.884 16.3044C15.8193 16.3488 15.7639 16.3931 15.7039 16.4286C11.6913 18.8732 7.6742 21.3133 3.66166 23.7534C3.09834 24.0994 2.53501 24.4455 1.96246 24.7827C1.69003 24.9424 1.39913 25.0489 1.099 24.9779C5.06998 21.1403 9.04557 17.3026 13.035 13.4473H13.0396Z" fill="black"/>
<path d="M13.9076 12.4978C14.3416 12.0985 14.7526 11.7214 15.1681 11.3399C15.8007 10.7587 16.4333 10.1819 17.0567 9.59631C17.1629 9.49871 17.2321 9.48096 17.366 9.56526C18.3403 10.1731 19.3192 10.7631 20.2935 11.3709C20.7783 11.6726 21.0692 12.0897 20.9815 12.6753C20.9168 13.1101 20.6352 13.4073 20.2658 13.6336C19.3746 14.1837 18.4834 14.7294 17.5969 15.2795C17.4722 15.355 17.3429 15.4348 17.2044 15.5191C16.1101 14.5165 15.0204 13.5182 13.9076 12.4978Z" fill="black"/>
</g>
<g clip-path="url(#clip1_78_2395)">
<path d="M35.3468 15.6061C35.9479 15.6061 36.5489 15.6061 37.1499 15.6061C37.5975 15.6061 37.6359 15.6449 37.6742 16.1105C37.9108 19.2469 35.6601 21.0641 33.1729 21.1094C30.9414 21.1482 28.9273 19.5897 28.2943 17.7725C27.3607 15.1082 28.7482 12.2175 31.4913 11.3122C33.1793 10.756 34.7394 11.0406 36.1461 12.1593C36.4146 12.3727 36.4338 12.515 36.1717 12.7737C35.5195 13.4203 35.5323 13.4397 34.8801 13.0323C33.5309 12.1917 31.8877 12.3469 30.6856 13.4333C29.5411 14.4615 29.215 16.1881 29.8928 17.6367C30.9158 19.8289 33.8379 20.3915 35.4683 18.6778C35.788 18.348 35.9479 17.8501 36.1461 17.4168C36.274 17.1323 36.1269 17.0159 35.8264 17.0159C35.0719 17.0288 34.311 17.0159 33.5565 17.0159C33.0322 17.0159 33.013 16.99 33.0002 16.4533C32.9875 15.8885 33.2688 15.6061 33.8442 15.6061C34.343 15.6061 34.8417 15.6061 35.3404 15.6061H35.3468Z" fill="black"/>
<path d="M58.186 18.1476C58.186 19.0012 58.1988 19.8484 58.186 20.702C58.1669 21.5879 57.9814 22.4221 57.3676 23.1076C56.0377 24.5821 53.2307 24.1552 52.3931 22.351C52.2844 22.1182 52.3355 21.9889 52.5593 21.9048C52.6872 21.8531 52.8087 21.7949 52.9366 21.7431C53.2904 21.5879 53.5909 21.6698 53.8381 21.9889C54.3305 22.6226 55.0786 22.8231 55.8267 22.5256C56.4405 22.2799 56.8753 21.5039 56.8049 20.7796C56.773 20.4304 56.6003 20.605 56.4661 20.6955C55.7371 21.187 54.9507 21.2129 54.145 20.9477C52.732 20.4821 51.7729 18.8783 52.0478 17.3457C52.3803 15.5156 53.9021 14.5327 55.1681 14.6426C55.6285 14.6814 56.0696 14.9271 56.5172 15.0694C56.6003 15.0953 56.7602 15.1147 56.7602 15.0953C56.8881 14.6749 57.2333 14.8107 57.4955 14.8107C58.186 14.8107 58.186 14.8107 58.186 15.4962C58.186 16.3822 58.186 17.2681 58.186 18.1541V18.1476ZM56.9136 17.9407C56.9136 17.9407 56.8753 17.9277 56.8561 17.9213C56.8433 17.7467 56.8433 17.5721 56.8177 17.4039C56.6515 16.2658 55.3919 15.6126 54.4392 16.1558C53.3522 16.7766 53.154 18.4257 54.0619 19.2922C54.8804 20.0747 56.1016 19.8807 56.6131 18.8654C56.7538 18.5809 56.8113 18.2511 56.9072 17.9407H56.9136Z" fill="black"/>
<path d="M69.7783 16.2399C69.7783 14.8301 69.7783 13.4204 69.7783 12.0171C69.7783 11.448 69.7975 11.4286 70.3602 11.4286C71.3576 11.4286 72.3551 11.4222 73.3526 11.4351C74.6505 11.4545 75.7887 12.2693 76.1339 13.5239C76.6199 15.2634 75.648 16.9125 73.8705 17.2293C73.1991 17.3457 72.5022 17.3199 71.818 17.3457C71.2298 17.3651 71.2298 17.3587 71.2362 17.9665C71.2362 18.7814 71.2489 19.6026 71.2553 20.4174C71.2553 20.9025 71.2362 20.9283 70.7758 20.9413C69.8423 20.9736 69.8295 20.9736 69.8231 20.0488C69.8103 18.7814 69.8231 17.5139 69.8231 16.2399C69.8103 16.2399 69.7975 16.2399 69.7847 16.2399H69.7783ZM72.5086 12.806C72.2144 12.806 71.9267 12.819 71.6326 12.806C71.3512 12.7931 71.2234 12.8966 71.2298 13.1941C71.2362 13.9765 71.2362 14.759 71.2298 15.5415C71.2298 15.826 71.3385 15.9554 71.6262 15.9554C72.208 15.9554 72.7963 15.9748 73.3781 15.9554C73.9664 15.9295 74.5738 15.3928 74.7209 14.8301C74.8999 14.1382 74.6697 13.5303 74.1454 13.1229C73.6403 12.7284 73.0712 12.8384 72.5086 12.8254V12.806Z" fill="black"/>
<path d="M84.6955 17.9794C84.6955 18.7748 84.6955 19.5767 84.6955 20.3721C84.6955 20.8636 84.6444 20.9024 84.1648 20.9153C83.973 20.9153 83.7812 20.9412 83.6021 20.8959C83.4806 20.8636 83.3016 20.7407 83.2888 20.6373C83.2377 20.3074 83.1418 20.4174 82.9755 20.5467C82.1827 21.174 81.3195 21.2645 80.4051 20.8571C79.6315 20.5144 79.1711 19.9194 79.1263 19.0594C79.0752 18.2187 79.5164 17.6367 80.1941 17.2293C80.955 16.7766 81.7862 16.7443 82.643 16.9189C82.8285 16.9577 83.0267 16.9383 83.2185 16.9447C83.129 16.7443 83.0778 16.505 82.9436 16.3498C82.4832 15.8389 81.4346 15.7742 80.9167 16.2786C80.6034 16.5826 80.3668 16.5696 80.0151 16.395C79.2286 16.0135 79.2286 15.91 79.8808 15.2828C80.955 14.2481 83.1162 14.4356 84.0369 15.425C84.363 15.7742 84.5996 16.1752 84.6444 16.6602C84.6827 17.0935 84.7083 17.5267 84.7339 17.96C84.7275 17.96 84.7211 17.96 84.7083 17.96L84.6955 17.9794ZM81.9013 17.9859C81.6456 18.0764 81.2683 18.1411 80.9934 18.348C80.7952 18.4967 80.6417 18.8395 80.6417 19.0917C80.6417 19.2792 80.9039 19.5314 81.1021 19.6284C81.7351 19.9518 82.6878 19.609 83.0267 18.9882C83.3336 18.4321 83.2696 18.2769 82.6558 18.1217C82.4384 18.0699 82.221 18.0441 81.8949 17.9859H81.9013Z" fill="black"/>
<path d="M41.3123 21.0964C39.6499 21.1611 38.0514 19.7837 38.0834 17.8307C38.1153 15.7872 39.7778 14.552 41.485 14.6102C43.1858 14.6684 44.5285 16.0976 44.5477 17.9018C44.5669 19.6867 43.0323 21.1934 41.3123 21.1029V21.0964ZM39.6051 17.8242C39.6051 18.7555 40.0271 19.4151 40.8072 19.6802C41.5169 19.9195 42.2458 19.6673 42.7126 19.0206C43.2049 18.3351 43.2049 17.3651 42.7062 16.6796C42.2522 16.0523 41.5041 15.8195 40.7305 16.0717C40.0655 16.2851 39.6115 16.9965 39.6051 17.8307V17.8242Z" fill="black"/>
<path d="M64.0813 21.1158C62.988 21.1869 61.5301 20.1846 61.2104 18.6132C60.8715 16.9577 61.6069 15.3992 63.0583 14.843C64.8294 14.164 66.332 15.0435 66.9842 16.8089C67.0609 17.0094 66.997 17.1323 66.7988 17.2163C65.878 17.5979 64.9637 17.9859 64.043 18.3674C63.7552 18.4903 63.4803 18.6196 63.1926 18.736C62.8857 18.8524 62.9048 19.0076 63.0967 19.234C63.6913 19.9194 64.7399 19.9712 65.4624 19.3504C65.6223 19.2081 65.8653 18.9624 65.9803 19.0076C66.3064 19.1305 66.6006 19.3633 66.8819 19.5896C66.9267 19.622 66.8627 19.8742 66.7796 19.9776C66.1466 20.7407 65.3282 21.1029 64.0877 21.1223L64.0813 21.1158ZM62.6171 17.4297C62.713 17.4685 62.8281 17.572 62.9048 17.5461C63.6401 17.2681 64.3691 16.9706 65.098 16.6731C65.3793 16.5567 65.2962 16.3692 65.1172 16.2398C64.6312 15.8906 64.0877 15.8324 63.557 16.0846C63.0519 16.3239 62.7642 16.7766 62.6171 17.4297Z" fill="black"/>
<path d="M48.2946 21.0899C46.5554 21.1869 44.9825 19.6543 45.0528 17.7466C45.1167 15.9682 46.5042 14.6037 48.3649 14.6167C50.0849 14.6296 51.5043 16.0717 51.5043 17.8695C51.5043 19.803 49.8483 21.1869 48.2946 21.0899ZM46.549 17.8824C46.4851 18.93 47.3483 19.7772 48.3265 19.7707C49.2409 19.7707 50.0337 18.8912 50.0401 17.8953C50.0401 16.8089 49.2792 15.9682 48.2946 15.9682C47.2715 15.9682 46.5554 16.7572 46.5554 17.8824H46.549Z" fill="black"/>
<path d="M86.5817 23.7802C86.0276 23.7802 85.8677 23.5193 86.1022 22.9977C86.4091 22.3187 86.7032 21.6332 87.0229 20.9606C87.1508 20.689 87.1508 20.4627 87.0229 20.1782C86.294 18.5485 85.5842 16.9124 84.8809 15.2763C84.7019 14.8625 84.7466 14.7913 85.1942 14.7913C86.4922 14.7849 86.1789 14.6685 86.6712 15.7807C87.0485 16.6344 87.3746 17.5138 87.7326 18.3804C87.7774 18.4968 87.8733 18.5873 87.95 18.6908C88.0076 18.5938 88.0843 18.4968 88.1291 18.3933C88.5191 17.4104 88.8963 16.421 89.3055 15.4445C89.4015 15.2181 89.5549 14.9013 89.7339 14.856C90.124 14.7655 90.546 14.8172 90.9552 14.8366C90.9744 14.8366 91.0383 15.1147 90.9936 15.2246C90.6227 16.1235 90.2391 17.0094 89.849 17.9018C89.1009 19.6349 88.3464 21.368 87.6047 23.1011C87.317 23.7802 87.3234 23.7802 86.5881 23.7866L86.5817 23.7802Z" fill="black"/>
<path d="M59.0747 16.1558C59.0747 14.7461 59.0747 13.3428 59.0747 11.933C59.0747 11.448 59.1003 11.4221 59.5671 11.4286C60.6605 11.4545 60.5645 11.2475 60.5645 12.418C60.5645 15.0435 60.5645 17.669 60.5645 20.2946C60.5645 20.9283 60.5518 20.9412 59.9315 20.9412C59.03 20.9412 59.0684 21.0447 59.0684 20.0682C59.0684 18.7619 59.0684 17.4621 59.0684 16.1558H59.0747Z" fill="black"/>
<path d="M78.4422 16.1558C78.4422 17.5462 78.4422 18.9365 78.4422 20.3269C78.4422 20.9089 78.423 20.9348 77.8284 20.9348C76.8757 20.9348 76.9716 20.9994 76.9716 20.0617C76.9716 17.3651 76.9716 14.6749 76.9716 11.9783C76.9716 11.448 76.9844 11.4286 77.5278 11.4286C78.5892 11.4286 78.4422 11.3768 78.4486 12.3469C78.455 13.6144 78.4486 14.8883 78.4486 16.1558H78.4422Z" fill="black"/>
<path d="M31.7407 4.35376C32.0349 4.35376 32.3226 4.35376 32.6167 4.35376C32.898 4.35376 33.0004 4.48309 33.0195 4.76763C33.1027 6.12566 32.0157 7.27028 30.6282 7.27028C29.4645 7.27028 28.4286 6.5072 28.1153 5.40138C27.7765 4.21795 28.2176 2.97633 29.2407 2.36845C30.1934 1.80584 31.3379 1.89638 32.1372 2.56246C32.2842 2.68533 32.5144 2.82113 32.265 3.05393C32.0796 3.22854 31.9645 3.50661 31.6001 3.22207C30.7944 2.58832 29.7138 2.77586 29.1576 3.59714C28.6077 4.40549 28.8315 5.58891 29.6435 6.13212C30.3852 6.63006 31.5169 6.44253 31.9389 5.73765C32.0221 5.59538 32.0413 5.41431 32.0924 5.25264C31.9453 5.22031 31.8047 5.17504 31.6576 5.16857C31.4019 5.15564 31.1397 5.15564 30.8839 5.16211C30.5962 5.16211 30.43 5.0651 30.4428 4.74176C30.4555 4.44429 30.5962 4.34729 30.8648 4.34729C31.1589 4.34729 31.4466 4.34729 31.7407 4.34729V4.35376Z" fill="black"/>
<path d="M58.8126 4.67077C58.8126 5.31745 58.8126 5.95766 58.8126 6.60434C58.8126 6.79187 58.9085 7.05701 58.6272 7.13461C58.333 7.21222 58.0453 7.20575 57.8535 6.88888C57.6297 6.52027 57.4059 6.1452 57.1757 5.78306C56.8177 5.20751 56.466 4.63197 56.1015 4.06289C56.044 3.97236 55.9417 3.91416 55.8586 3.84302C55.833 3.94002 55.7946 4.03702 55.7946 4.13403C55.7882 4.83244 55.7946 5.52438 55.7882 6.2228C55.7882 6.36507 55.7882 6.50087 55.7882 6.64314C55.7882 6.90828 55.8138 7.18635 55.4174 7.17988C55.0721 7.17988 54.9698 7.07641 54.9698 6.64961C54.9698 5.62139 54.9698 4.59963 54.9698 3.57142C54.9698 3.29334 54.9634 3.01527 54.9698 2.7372C54.9762 2.5238 54.8867 2.23279 55.2 2.18106C55.4941 2.12932 55.8266 2.06466 56.044 2.39446C56.2166 2.65313 56.3829 2.91827 56.5491 3.18341C56.9328 3.80422 57.31 4.42503 57.6936 5.03938C57.7512 5.13638 57.8407 5.21398 57.9174 5.30451C57.943 5.19458 57.9878 5.08464 57.9878 4.98118C57.9878 4.17929 58.0006 3.38388 57.9878 2.582C57.9878 2.26513 58.122 2.14872 58.4226 2.15519C58.6975 2.15519 58.8382 2.24573 58.8318 2.54966C58.819 3.26101 58.8318 3.97882 58.8318 4.69017L58.8126 4.67077Z" fill="black"/>
<path d="M54.3304 4.72256C54.3112 6.28106 53.0069 7.32868 51.6897 7.26401C50.2319 7.19287 49.1705 5.95772 49.2536 4.45742C49.3367 3.00886 50.5068 1.93538 51.9263 2.00651C53.3393 2.07765 54.4135 3.28694 54.3304 4.72256ZM50.1232 4.63849C50.1296 5.66671 50.8393 6.41686 51.8048 6.42333C52.7703 6.42333 53.4992 5.62791 53.4928 4.58029C53.48 3.61674 52.7319 2.86013 51.8048 2.84073C50.9608 2.82133 50.0145 3.69434 50.1296 4.63849H50.1232Z" fill="black"/>
<path d="M33.6459 4.63846C33.6459 3.97885 33.6459 3.31923 33.6459 2.65962C33.6459 2.17461 33.6714 2.14875 34.1318 2.14228C34.816 2.13581 35.5065 2.14228 36.1907 2.14228C36.4784 2.14228 36.6446 2.22635 36.6382 2.55615C36.6382 2.87303 36.4848 2.98296 36.1907 2.98296C35.7431 2.97649 35.2955 2.98943 34.8543 2.98296C34.5666 2.97649 34.4387 3.09936 34.4643 3.3839C34.4643 3.43564 34.4643 3.48737 34.4643 3.5391C34.46 4.00902 34.6945 4.24614 35.1676 4.25045C35.4745 4.25045 35.7878 4.25045 36.0948 4.25045C36.3825 4.25045 36.4144 4.43152 36.4208 4.66432C36.4208 4.89713 36.3441 5.02646 36.0948 5.02646C35.6855 5.02646 35.2699 5.0394 34.8607 5.02646C34.573 5.02 34.4579 5.1364 34.4643 5.4274C34.4771 6.45562 34.3876 6.30689 35.2891 6.31982C35.6152 6.31982 35.9413 6.31982 36.2674 6.31982C36.5679 6.31982 36.6382 6.50089 36.6382 6.75956C36.6382 7.01177 36.5423 7.1605 36.2802 7.1605C35.5257 7.1605 34.7712 7.1605 34.0167 7.1605C33.729 7.1605 33.6331 6.99883 33.6395 6.72723C33.6459 6.03528 33.6395 5.33687 33.6395 4.64492L33.6459 4.63846Z" fill="black"/>
<path d="M38.7802 2.14221C39.2278 2.14221 39.6754 2.14221 40.123 2.14221C40.3915 2.14221 40.545 2.23275 40.545 2.53022C40.545 2.83416 40.4235 2.96349 40.1166 2.98289C39.2214 3.04109 39.2214 3.05403 39.2214 3.98525C39.2214 4.8906 39.215 5.79595 39.2214 6.69483C39.2214 7.0311 39.0999 7.16044 38.7675 7.16044C38.4669 7.16044 38.3327 7.0505 38.3327 6.73363C38.3454 5.82828 38.3327 4.92293 38.3327 4.02405C38.3327 3.90118 38.3327 3.77831 38.3327 3.66191C38.3327 2.98936 38.3327 3.00229 37.6485 2.97643C37.4567 2.96996 37.2009 2.95056 37.0858 2.82769C36.8493 2.56902 37.0667 2.16161 37.4311 2.14868C37.8787 2.13575 38.3263 2.14868 38.7738 2.14868L38.7802 2.14221Z" fill="black"/>
<path d="M45.3533 5.05234C45.3533 4.51559 45.3341 3.97238 45.3533 3.43564C45.3661 3.09937 45.2637 2.94416 44.9185 2.9765C44.765 2.98943 44.6116 2.9765 44.4517 2.9765C44.1576 2.98943 44.0105 2.86656 43.9977 2.54969C43.9913 2.21988 44.1576 2.12935 44.4453 2.13582C45.3213 2.14228 46.1973 2.13582 47.0732 2.13582C47.329 2.13582 47.5016 2.20048 47.508 2.51089C47.508 2.80836 47.4057 2.9765 47.0924 2.97003C47.0732 2.97003 47.0605 2.97003 47.0413 2.97003C46.4786 3.00883 46.1973 3.32139 46.1973 3.90772C46.1973 4.826 46.1973 5.75075 46.1973 6.66903C46.1973 6.9859 46.095 7.16051 45.7561 7.15404C45.4875 7.15404 45.3405 7.05704 45.3405 6.75957C45.3469 6.18402 45.3405 5.61495 45.3405 5.0394L45.3533 5.05234Z" fill="black"/>
<path d="M43.4863 4.64486C43.4863 5.32387 43.4863 6.00288 43.4863 6.68189C43.4863 6.9923 43.4032 7.17337 43.0515 7.17337C42.6998 7.17337 42.6167 7.0117 42.6167 6.69483C42.6231 5.3368 42.6231 3.97878 42.6167 2.62722C42.6167 2.31682 42.6934 2.14221 43.0515 2.14221C43.4096 2.14221 43.4927 2.30388 43.4927 2.62075C43.4799 3.29977 43.4927 3.97878 43.4927 4.65779L43.4863 4.64486Z" fill="black"/>
</g>
<defs>
<clipPath id="clip0_78_2395">
<rect width="21" height="25" fill="white"/>
</clipPath>
<clipPath id="clip1_78_2395">
<rect width="63" height="22" fill="white" transform="translate(28 2)"/>
</clipPath>
</defs>
</svg>
