<svg width="51" height="51" viewBox="0 0 51 51" fill="none" xmlns="http://www.w3.org/2000/svg">
<g clip-path="url(#clip0_1_550)">
<path d="M10.64 44.5601C11.61 44.9401 12.55 45.3101 13.49 45.6901C15.88 46.6701 17.98 46.0101 19.93 44.5701C20.98 43.8001 21.79 42.7901 22.52 41.7101C22.6 41.5901 22.69 41.4701 22.79 41.3101C23.29 41.8601 23.77 42.3801 24.29 42.9501C23.95 43.3601 23.56 43.8501 23.15 44.3401C21.77 45.9901 20.14 47.2801 17.99 47.7701C17.79 47.8201 17.59 47.8601 17.39 47.8901C17.21 47.9101 17.02 47.9101 16.85 47.9601C19.76 48.9601 22.38 48.4401 24.75 46.4001C25.15 46.9901 25.55 47.5701 25.96 48.1701C24.8 49.0101 23.62 49.7201 22.27 50.1101C19.35 50.9601 16.64 50.4701 14.11 48.8201C13.35 48.3201 12.61 47.7901 11.82 47.3501C10.01 46.3401 8.14 46.1501 6.19 46.9901C5.3 47.3801 4.42 47.8001 3.39 47.7601C1.99 47.7001 0.679998 46.7801 0.189998 45.4301C-0.290002 44.1001 0.0999978 42.5701 1.18 41.6501C2.44 40.5901 3.83 40.4501 5.32 41.1001C5.44 41.1501 5.56 41.2101 5.73 41.2901C5.86 41.0701 5.99 40.8501 6.11 40.6301C10.16 32.9701 14.2 25.3001 18.25 17.6401C18.5 17.1601 18.75 16.6801 19.01 16.2001C19.83 14.6901 21.28 14.0801 22.94 14.6001C24.45 15.0701 25.75 15.9501 26.99 16.8901C29.86 19.0701 32.38 21.5801 34.44 24.5401C35.34 25.8401 36.12 27.2001 36.59 28.7201C37.23 30.8001 36.42 32.7201 34.44 33.6301C29.9 35.7301 25.34 37.8001 20.79 39.8801C17.44 41.4101 14.08 42.9401 10.72 44.4701C10.69 44.4901 10.66 44.5101 10.62 44.5401L10.64 44.5601ZM34.18 31.2601C33.69 31.1701 33.21 31.1201 32.74 30.9801C32.26 30.8401 31.79 30.6501 31.35 30.4101C27.45 28.2801 24.32 25.3301 22.1 21.4701C21.33 20.1301 20.77 18.7001 21.13 17.0601C16.29 26.2001 11.45 35.3301 6.61 44.4701C6.64 44.5001 6.67 44.5301 6.7 44.5601C8.44 43.6901 10.17 42.8201 11.82 41.9901C11.17 41.4101 10.51 40.8401 9.87 40.2501C9.78 40.1701 9.71 39.9601 9.76 39.8801C10.28 38.8701 10.82 37.8701 11.35 36.8601C11.4 36.8901 11.43 36.9001 11.44 36.9201C11.51 37.0001 11.57 37.0901 11.64 37.1801C12.69 38.5201 13.97 39.5301 15.66 39.9201C15.9 39.9801 16.21 39.9401 16.43 39.8401C17.14 39.5301 17.82 39.1601 18.51 38.8201C18.6 38.7801 18.67 38.7101 18.77 38.6501C16.51 37.7201 14.72 36.2901 13.44 34.2301C13.17 33.8001 13.07 33.4501 13.38 32.9601C13.93 32.1001 14.39 31.1801 14.87 30.3101C15.43 31.0901 15.93 31.8801 16.53 32.5901C18.15 34.4901 20.11 35.9001 22.58 36.5001C22.82 36.5601 23.12 36.6501 23.33 36.5601C24.24 36.1601 25.13 35.7101 26.04 35.2701C26 35.2201 25.99 35.1901 25.97 35.1801C24.08 34.3301 22.39 33.1801 20.87 31.7901C19.28 30.3401 17.94 28.6901 17.09 26.7001C17.03 26.5501 17.01 26.3201 17.09 26.1801C17.67 25.0301 18.28 23.8901 18.88 22.7501C18.92 22.6801 18.98 22.6101 19.06 22.5001C20.63 26.3001 23.22 29.1201 26.75 31.1201C26.93 30.9201 27.06 30.7201 27.24 30.5801C27.34 30.5001 27.54 30.4501 27.64 30.5001C28.96 31.2201 30.36 31.6901 31.85 31.9301C32.77 32.0701 33.6 32.0401 34.19 31.2201L34.18 31.2601ZM4.8 43.3301C4.19 42.8501 3.47 42.7801 2.88 43.1101C2.45 43.3501 2.08 43.9701 2.14 44.3801C2.23 44.9601 2.59 45.3301 3.13 45.4901C3.35 45.5601 3.61 45.6401 3.77 45.3401C4.11 44.6701 4.45 43.9901 4.79 43.3301H4.8Z" fill="black"/>
<path d="M32.1 17.34C31.47 17.04 30.88 16.76 30.24 16.45C31.6 13.72 32.94 11 34.3 8.27002C34.93 8.58002 35.51 8.87002 36.15 9.19002C34.8 11.9 33.46 14.59 32.1 17.33V17.34Z" fill="black"/>
<path d="M33.61 19.3499C35.35 17.6199 37.05 15.9299 38.79 14.1899C39.25 14.6699 39.71 15.1599 40.21 15.6799C38.47 17.3799 36.75 19.0499 35.04 20.7199C34.62 20.3199 34.13 19.8399 33.62 19.3399L33.61 19.3499Z" fill="black"/>
<path d="M44.64 7.23008C43.68 8.24008 42.64 9.35008 41.54 10.5101C41.06 9.95008 40.59 9.41008 40.09 8.83008C41.03 7.82008 42.07 6.69008 43.1 5.58008C43.61 6.13008 44.1 6.66008 44.63 7.23008H44.64Z" fill="black"/>
<path d="M43.9101 18.83C43.9101 19.59 43.2501 20.25 42.5101 20.24C41.8101 20.24 41.1801 19.58 41.1801 18.85C41.1801 18.07 41.7601 17.46 42.5201 17.45C43.2501 17.45 43.9101 18.1 43.9101 18.82V18.83Z" fill="black"/>
<path d="M29.1 12.83C29.11 13.6 28.49 14.24 27.72 14.25C27.04 14.25 26.4 13.61 26.38 12.92C26.36 12.16 26.96 11.52 27.71 11.52C28.44 11.52 29.08 12.13 29.09 12.84L29.1 12.83Z" fill="black"/>
<path d="M36.19 2.73011C35.45 2.73011 34.81 2.07011 34.8 1.30011C34.8 0.60011 35.4101 0.000109538 36.1501 -0.00989046C36.8701 -0.0198905 37.5 0.60011 37.51 1.34011C37.53 2.06011 36.9 2.72011 36.19 2.73011Z" fill="black"/>
<path d="M48.77 13.36C48.96 14.33 49.52 14.98 50.53 15.17V15.59C50.36 15.65 50.19 15.69 50.03 15.76C49.36 16.03 48.95 16.52 48.8 17.23C48.76 17.41 48.7 17.5 48.53 17.45C48.43 17.42 48.31 17.34 48.28 17.25C48.01 16.44 47.56 15.84 46.67 15.65C46.57 15.63 46.51 15.39 46.41 15.2C47.01 15.11 47.47 14.92 47.78 14.52C47.98 14.27 48.15 13.97 48.25 13.67C48.34 13.37 48.47 13.27 48.78 13.36H48.77Z" fill="black"/>
<path d="M38.33 20.7601C38.52 21.7301 39.08 22.3801 40.09 22.5701V22.9901C39.92 23.0501 39.75 23.0901 39.59 23.1601C38.92 23.4301 38.51 23.9201 38.36 24.6301C38.32 24.8101 38.26 24.9001 38.09 24.8501C37.99 24.8201 37.87 24.7401 37.84 24.6501C37.57 23.8401 37.12 23.2401 36.23 23.0501C36.13 23.0301 36.07 22.7901 35.97 22.6001C36.57 22.5101 37.03 22.3201 37.34 21.9201C37.54 21.6701 37.71 21.3701 37.81 21.0701C37.9 20.7701 38.03 20.6701 38.34 20.7601H38.33Z" fill="black"/>
<path d="M31.2 10.07C30.9 10.15 30.79 10.06 30.71 9.77999C30.46 8.92999 29.89 8.40999 28.98 8.24999V7.81999C30.17 7.43999 30.53 7.07999 30.76 5.98999H31.19C31.36 6.95999 31.89 7.57999 32.9 7.78999C32.96 8.03999 32.99 8.21999 32.62 8.31999C31.89 8.50999 31.47 9.03999 31.27 9.74999C31.24 9.84999 31.22 9.95999 31.2 10.07Z" fill="black"/>
</g>
<defs>
<clipPath id="clip0_1_550">
<rect width="50.54" height="50.52" fill="white"/>
</clipPath>
</defs>
</svg>
