<svg width="40" height="38" viewBox="0 0 40 38" fill="none" xmlns="http://www.w3.org/2000/svg">
<g clip-path="url(#clip0_1_601)">
<path d="M19.6 2.91991C20.35 2.41991 21.03 1.89991 21.77 1.46991C23.18 0.649906 24.71 0.199906 26.33 0.0499063C32.08 -0.480094 37.24 3.23991 38.82 8.87991C39.9 12.7499 39.25 16.3199 36.98 19.6199C36.09 20.9099 34.99 21.9999 33.89 23.0899C29.52 27.4199 25.16 31.7399 20.8 36.0699C20.48 36.3899 20.16 36.7099 19.85 37.0399C19.7 37.1899 19.6 37.1699 19.46 37.0299C14.25 31.8499 9.02 26.6999 3.84 21.4999C1.93 19.5799 0.640001 17.2499 0.190001 14.5499C-0.489999 10.3699 0.610001 6.69991 3.5 3.58991C5.35 1.60991 7.66 0.509906 10.32 0.129906C13.78 -0.370094 16.81 0.599906 19.48 2.81991C19.53 2.85991 19.59 2.89991 19.61 2.91991H19.6ZM19.59 31.9099C19.75 31.7599 19.82 31.6999 19.88 31.6299C23.75 27.7899 27.61 23.9499 31.47 20.0999C32.24 19.3299 33.05 18.5799 33.73 17.7199C35.26 15.7999 35.72 13.5599 35.45 11.1399C35.19 8.82991 34.19 6.90991 32.33 5.51991C29.98 3.74991 27.36 3.29991 24.58 4.31991C22.51 5.07991 20.98 6.50991 19.97 8.46991C19.91 8.58991 19.78 8.66991 19.69 8.76991C19.59 8.67991 19.47 8.59991 19.41 8.48991C17.79 5.59991 15.37 3.91991 12.02 3.81991C9.26 3.73991 7.09 4.96991 5.42 7.11991C4.29 8.57991 3.87 10.2799 3.81 12.1099C3.74 14.5199 4.48 16.6199 6.14 18.3599C7.82 20.1099 9.56 21.7999 11.27 23.5199C13.42 25.6599 15.58 27.7999 17.72 29.9399C18.35 30.5699 18.95 31.2299 19.58 31.8899L19.59 31.9099Z" fill="black"/>
<path d="M11.57 5.76001C12.18 5.76001 12.72 6.17001 12.82 6.75001C12.93 7.39001 12.51 7.68001 12 7.87001C11.66 8.00001 11.31 8.09001 10.97 8.21001C9.45003 8.76001 8.41003 9.78001 7.91003 11.33C7.64003 12.15 7.13003 12.55 6.56003 12.39C5.87003 12.2 5.55003 11.56 5.77003 10.68C6.51003 7.67001 9.06003 5.99001 11.57 5.76001Z" fill="black"/>
</g>
<defs>
<clipPath id="clip0_1_601">
<rect width="39.33" height="37.14" fill="white"/>
</clipPath>
</defs>
</svg>
