<svg width="41" height="41" viewBox="0 0 41 41" fill="none" xmlns="http://www.w3.org/2000/svg">
<g clip-path="url(#clip0_1_597)">
<path d="M10.91 16.3799C10.35 15.8799 9.84001 15.4199 9.32001 14.9699C8.36001 14.1199 7.39001 13.2899 6.45001 12.4199C5.57001 11.5899 5.02001 10.5799 4.87001 9.34994C4.61001 7.20994 6.04001 5.15994 8.19001 4.75994C10.26 4.36994 11.96 5.07994 13.31 6.66994C13.98 7.45994 14.65 8.25994 15.33 9.05994C15.39 9.12994 15.43 9.19994 15.47 9.26994C15.51 9.24994 15.54 9.23994 15.58 9.21994C15.58 9.08994 15.58 8.95994 15.58 8.82994C15.58 7.34994 15.56 5.86994 15.6 4.38994C15.64 2.49994 17.04 0.719939 18.86 0.179939C20.69 -0.360061 22.65 0.379939 23.77 1.99994C24.35 2.84994 24.62 3.77994 24.62 4.79994C24.62 6.18994 24.62 7.58994 24.62 8.97994C24.62 9.05994 24.63 9.13994 24.65 9.31994C25.19 8.67994 25.68 8.12994 26.14 7.53994C26.91 6.55994 27.71 5.61994 28.88 5.07994C30.87 4.16994 33.25 4.66994 34.47 6.27994C35.72 7.91994 35.65 10.2499 34.2 11.8499C33.35 12.7899 32.35 13.6099 31.42 14.4799C30.74 15.1099 30.05 15.7199 29.3 16.4099C29.95 16.3499 30.54 16.2799 31.12 16.2399C32.72 16.1399 34.32 15.9599 35.92 15.9899C38.16 16.0299 39.98 17.8099 40.15 19.9299C40.33 22.2199 38.81 24.2199 36.56 24.7099C35.69 24.8999 34.81 24.8399 33.94 24.7699C32.57 24.6599 31.19 24.5299 29.82 24.4099C29.7 24.3999 29.58 24.3799 29.36 24.3499C30.02 24.9099 30.61 25.4099 31.2 25.9099C31.91 26.5099 32.62 27.0999 33.32 27.7199C34.37 28.6399 35.1 29.7299 35.32 31.1499C35.67 33.4699 33.89 35.7399 31.55 35.9399C29.59 36.1099 28.07 35.3199 26.85 33.8499C26.13 32.9799 25.44 32.0899 24.74 31.2099C24.71 31.2099 24.67 31.2199 24.64 31.2299C24.64 31.3599 24.64 31.4799 24.64 31.6099C24.62 33.2899 24.65 34.9699 24.57 36.6499C24.45 39.0999 21.95 41.0199 19.53 40.7199C17.34 40.4499 15.57 38.3599 15.6 36.2399C15.62 34.7799 15.6 33.3299 15.6 31.8699C15.6 31.6499 15.6 31.4299 15.6 31.0899C15.06 31.7399 14.59 32.2999 14.12 32.8599C13.67 33.3999 13.24 33.9599 12.75 34.4599C11.19 36.0099 8.90001 36.4099 7.11001 35.4899C5.62001 34.7199 4.75001 33.0399 4.90001 31.3699C5.05001 29.6299 6.03001 28.4299 7.31001 27.3699C8.46001 26.4199 9.58002 25.4399 10.81 24.3999C10.26 24.4499 9.83001 24.4899 9.39001 24.5199C7.95001 24.6299 6.52001 24.7999 5.08001 24.8399C3.07001 24.8999 1.44001 24.1399 0.500014 22.2899C-0.799986 19.7399 0.780015 16.5999 3.65001 16.0799C4.51001 15.9199 5.42001 15.9699 6.30001 16.0199C7.82001 16.0999 9.34001 16.2599 10.94 16.3999L10.91 16.3799ZM19.86 24.8799C22.28 25.0299 24.42 23.2199 24.61 20.6499C24.79 18.1399 22.88 15.9899 20.42 15.8299C17.83 15.6599 15.68 17.4999 15.52 20.0199C15.35 22.8499 17.53 24.8599 19.86 24.8899V24.8799ZM18.65 27.1799C18.56 27.8699 18.44 28.5999 18.38 29.3399C18.27 30.8799 18.17 32.4199 18.1 33.9599C18.07 34.7799 18.06 35.6199 18.16 36.4399C18.26 37.3099 19.06 38.0099 19.88 38.0999C20.64 38.1799 21.48 37.6799 21.81 36.8699C21.96 36.4999 22.06 36.0699 22.04 35.6699C21.94 33.2899 21.8 30.9099 21.66 28.5299C21.63 28.0599 21.53 27.5999 21.47 27.1899H18.64L18.65 27.1799ZM21.51 13.5899C21.59 12.8199 21.7 12.0099 21.76 11.1899C21.87 9.54994 21.96 7.90994 22.03 6.27994C22.06 5.62994 22.09 4.96994 21.97 4.33994C21.69 2.80994 19.9 2.18994 18.78 3.20994C18.26 3.67994 18.05 4.28994 18.08 4.96994C18.19 7.26994 18.33 9.56994 18.47 11.8699C18.51 12.4699 18.6 13.0599 18.66 13.6099H21.51V13.5899ZM26.86 21.6299C26.99 21.6499 27.12 21.6699 27.26 21.6799C28.63 21.7999 30 21.9399 31.38 22.0399C32.69 22.1399 34 22.2199 35.32 22.2899C35.86 22.3199 36.33 22.0999 36.74 21.7799C37.59 21.0999 37.69 19.9799 37 19.1499C36.41 18.4399 35.62 18.3299 34.78 18.3999C32.55 18.5899 30.31 18.7899 28.08 18.9799C27.66 19.0199 27.24 19.0599 26.87 19.0999V21.6199L26.86 21.6299ZM13.28 19.1199C12.52 19.0499 11.76 18.9699 11 18.8999C9.47001 18.7599 7.93001 18.5999 6.40001 18.4799C5.73001 18.4299 5.04001 18.3799 4.38001 18.4699C3.37001 18.6099 2.67001 19.5199 2.71001 20.4799C2.75001 21.3499 3.61001 22.2299 4.54001 22.2899C5.11001 22.3199 5.70001 22.3099 6.27001 22.2699C7.96001 22.1399 9.64001 21.9899 11.33 21.8499C11.99 21.7899 12.65 21.7299 13.29 21.6699V19.1399L13.28 19.1199ZM25.63 16.1799C25.97 15.8599 26.31 15.5199 26.66 15.2099C28.2 13.8399 29.75 12.4999 31.27 11.1199C31.69 10.7399 32.11 10.3099 32.38 9.81994C33.08 8.57994 32.2 7.18994 30.78 7.20994C30.13 7.20994 29.62 7.52994 29.2 7.97994C28.4 8.85994 27.61 9.74994 26.84 10.6599C25.77 11.9399 24.74 13.2399 23.71 14.4999C24.38 15.0899 24.99 15.6299 25.62 16.1899L25.63 16.1799ZM16.33 14.5299C16.33 14.5299 16.33 14.4899 16.3 14.4699C14.63 12.4099 12.96 10.3299 11.27 8.27994C10.9 7.81994 10.43 7.45994 9.84001 7.27994C8.84001 6.96994 7.81001 7.53994 7.58001 8.56994C7.38001 9.46994 7.82001 10.1299 8.44001 10.6899C10.46 12.5199 12.5 14.3399 14.51 16.1399C15.1 15.6199 15.71 15.0799 16.33 14.5399V14.5299ZM23.93 26.1199C23.93 26.1199 23.93 26.1199 23.93 26.1399C25.56 28.1499 27.18 30.1499 28.82 32.1499C29.21 32.6299 29.66 33.0499 30.28 33.2299C31.57 33.6199 32.72 32.6999 32.6 31.3599C32.55 30.7599 32.2 30.3099 31.78 29.9299C30.46 28.7199 29.13 27.5099 27.81 26.2999C27.09 25.6399 26.38 24.9799 25.7 24.3599C25.1 24.9499 24.51 25.5299 23.91 26.1199H23.93ZM16.18 26.1199C15.57 25.5299 14.98 24.9499 14.39 24.3799C13.65 25.0799 12.89 25.8099 12.12 26.5199C10.89 27.6499 9.63001 28.7399 8.43001 29.8899C8.08001 30.2299 7.78001 30.6999 7.62001 31.1699C7.22001 32.3599 8.30001 33.5199 9.54001 33.3299C10.15 33.2299 10.66 32.9399 11.04 32.4799C12.05 31.2799 13.03 30.0599 14.02 28.8499C14.76 27.9399 15.49 27.0199 16.19 26.1299L16.18 26.1199Z" fill="black"/>
<path d="M17.22 20.36C17.22 18.76 18.45 17.51 20.04 17.5C21.64 17.5 22.95 18.77 22.95 20.33C22.95 21.89 21.66 23.17 20.09 23.18C18.54 23.19 17.23 21.9 17.22 20.35V20.36Z" fill="black"/>
</g>
<defs>
<clipPath id="clip0_1_597">
<rect width="40.14" height="40.73" fill="white"/>
</clipPath>
</defs>
</svg>
