<svg width="46" height="50" viewBox="0 0 46 50" fill="none" xmlns="http://www.w3.org/2000/svg">
<g clip-path="url(#clip0_1_836)">
<path d="M9.93995 8.37988C13.39 9.28988 16.76 10.1799 20.14 11.0699C20.36 11.1299 20.57 11.1899 20.79 11.2499C22.24 11.6999 22.97 12.5999 22.88 14.1099C22.79 15.6699 22.57 17.2199 22.38 18.7699C22.11 20.9899 21.82 23.2099 21.52 25.4299C21.27 27.2699 21.13 29.1399 20.34 30.8699C18.95 33.9099 16.64 35.7899 13.33 36.3499C12.07 36.5599 11.31 37.1799 10.99 38.4399C10.49 40.4299 9.90995 42.4099 9.39995 44.3999C9.29995 44.7799 9.28995 45.2099 9.33995 45.6099C9.41995 46.2499 9.77995 46.7199 10.41 46.9299C10.84 47.0699 11.28 47.1599 11.71 47.2899C12.53 47.5399 12.9 48.1399 12.68 48.8499C12.45 49.6199 11.8 49.9499 10.99 49.7499C7.75995 48.9599 4.52995 48.1699 1.28995 47.3899C0.669952 47.2399 0.149952 46.9899 0.00995161 46.2899C-0.180048 45.3199 0.569952 44.5799 1.52995 44.8099C2.59995 45.0599 3.64995 45.3399 4.71995 45.5899C5.76995 45.8399 6.26995 45.5899 6.61995 44.5499C6.96995 43.4799 7.23995 42.3899 7.53995 41.2999C7.90995 39.9399 8.26995 38.5799 8.63995 37.2199C8.83995 36.4799 8.63995 35.8999 8.02995 35.4399C6.88995 34.5899 5.87995 33.6099 5.15995 32.3599C3.71995 29.8399 3.58995 27.2199 4.49995 24.4999C6.17995 19.5299 7.84995 14.5499 9.52995 9.56988C9.65995 9.17988 9.78995 8.77988 9.90995 8.37988H9.93995ZM11.55 11.5299C10.96 13.2799 10.39 14.9599 9.82995 16.6399C8.80995 19.6599 7.77995 22.6699 6.77995 25.6899C6.13995 27.6199 6.32995 29.4799 7.41995 31.2199C8.67995 33.2299 10.96 34.2899 13.11 33.8599C15.99 33.2899 18.23 30.8899 18.63 27.9299C18.91 25.8599 19.18 23.7999 19.46 21.7299C19.75 19.5299 20.05 17.3299 20.33 15.1299C20.46 14.1199 20.22 13.7599 19.24 13.4999C17.83 13.1299 16.42 12.7699 15.02 12.4099C13.88 12.1199 12.73 11.8299 11.55 11.5199V11.5299Z" fill="black"/>
<path d="M35.88 8.44995C36.16 9.28995 36.45 10.14 36.74 10.99C38.25 15.46 39.75 19.93 41.27 24.39C42.13 26.9 42.18 29.37 41.01 31.79C40.36 33.13 39.44 34.24 38.25 35.1399C38.03 35.2999 37.81 35.46 37.61 35.63C37.09 36.07 36.89 36.5999 37.08 37.2799C37.72 39.6099 38.35 41.9399 39 44.27C39.06 44.5 39.17 44.72 39.29 44.93C39.71 45.68 40.13 45.8699 40.97 45.66C42.06 45.3899 43.16 45.13 44.24 44.81C45.03 44.58 45.74 45.02 45.91 45.63C46.13 46.4 45.72 47.0499 44.85 47.27C42.33 47.91 39.81 48.5399 37.29 49.1699C36.42 49.3899 35.55 49.63 34.67 49.81C33.96 49.96 33.4 49.5399 33.23 48.8499C33.08 48.2199 33.42 47.62 34.07 47.4C34.48 47.26 34.91 47.18 35.32 47.04C36.3 46.7099 36.78 45.8699 36.5 44.7799C35.92 42.5299 35.28 40.3 34.66 38.06C34.42 37.2 33.81 36.76 32.99 36.52C31.93 36.21 30.81 35.99 29.84 35.5C27.16 34.1399 25.62 31.84 25 28.95C24.67 27.43 24.55 25.86 24.35 24.32C24.17 22.9 23.95 21.49 23.85 20.07C23.78 19.03 23.87 17.97 23.93 16.92C23.98 15.94 24.09 14.97 24.15 14C24.17 13.72 24.15 13.41 24.06 13.16C23.83 12.53 24.09 12.07 24.56 11.76C25 11.47 25.52 11.27 26.03 11.13C29.25 10.23 32.48 9.34995 35.7 8.46995C35.74 8.45995 35.79 8.45995 35.89 8.44995H35.88ZM34.3 11.6C34.18 11.62 34.09 11.63 34 11.65C32.61 12.02 31.21 12.38 29.82 12.75C28.78 13.03 27.73 13.3 26.69 13.6C25.96 13.81 25.64 14.23 25.7 14.85C25.87 16.43 26.03 18.02 26.23 19.6C26.57 22.31 26.94 25.02 27.3 27.7299C27.56 29.6999 28.39 31.3599 29.95 32.6399C32.36 34.6199 35.94 34.36 37.89 32C39.48 30.07 39.8 27.87 39.01 25.52C37.46 20.89 35.88 16.26 34.3 11.59V11.6Z" fill="black"/>
<path d="M28.22 21.3599C28.22 21.4699 28.22 21.5599 28.22 21.6499C28.43 23.3199 28.64 24.9799 28.86 26.6499C29 27.6799 29.18 28.6899 29.64 29.6399C30.44 31.2499 32.22 32.3199 33.88 32.1499C36.54 31.8899 38.35 29.3899 37.6 26.7599C36.79 23.9099 35.8 21.0999 34.88 18.2799C34.79 18.0099 34.67 17.7499 34.54 17.4199C32.98 19.6799 30.89 20.9599 28.21 21.3499L28.22 21.3599Z" fill="#231F20"/>
<path d="M18.36 17.31C18.23 18.28 18.1 19.24 17.97 20.21C17.71 22.21 17.48 24.21 17.17 26.2C17.01 27.25 16.86 28.34 16.43 29.29C15.65 31.03 14.25 32.05 12.27 32.12C9.69 32.22 7.94 29.66 8.12 27.58C8.24 26.15 8.79 24.85 9.24 23.51C9.29 23.36 9.57 23.24 9.77 23.19C11.8 22.68 13.67 21.84 15.24 20.47C16.19 19.65 17.01 18.68 17.88 17.77C18.02 17.62 18.14 17.45 18.27 17.28C18.29 17.28 18.32 17.3 18.34 17.31H18.36ZM15.31 28.68C15.31 28.06 14.84 27.58 14.23 27.59C13.66 27.59 13.16 28.12 13.15 28.71C13.14 29.28 13.67 29.84 14.23 29.83C14.82 29.83 15.32 29.3 15.31 28.67V28.68ZM16.67 23.33C16.67 22.9 16.39 22.61 15.98 22.62C15.56 22.62 15.28 22.91 15.28 23.33C15.28 23.76 15.59 24.08 16 24.08C16.39 24.08 16.67 23.76 16.67 23.34V23.33Z" fill="black"/>
<path d="M28.22 21.3599C30.9 20.9599 32.99 19.6899 34.55 17.4299C34.68 17.7499 34.8 18.0099 34.89 18.2899C35.81 21.1099 36.8 23.9199 37.61 26.7699C38.35 29.3899 36.54 31.8999 33.89 32.1599C32.23 32.3199 30.45 31.2499 29.65 29.6499C29.18 28.6999 29 27.6899 28.87 26.6599C28.65 24.9899 28.44 23.3299 28.23 21.6599C28.22 21.5699 28.23 21.4799 28.23 21.3699L28.22 21.3599ZM33.45 27.7399C33.43 28.3299 33.93 28.8999 34.51 28.9399C35.08 28.9799 35.65 28.4099 35.68 27.7899C35.7 27.1899 35.24 26.6999 34.62 26.6699C33.98 26.6399 33.48 27.0999 33.46 27.7299L33.45 27.7399ZM34.48 24.4499C34.87 24.4499 35.2 24.1399 35.21 23.7499C35.23 23.3499 34.89 22.9899 34.5 22.9699C34.09 22.9499 33.8 23.2399 33.79 23.6699C33.79 24.1099 34.08 24.4499 34.48 24.4499Z" fill="black"/>
<path d="M15.31 28.68C15.31 29.31 14.82 29.83 14.23 29.84C13.67 29.84 13.14 29.29 13.15 28.72C13.16 28.12 13.66 27.61 14.23 27.6C14.83 27.59 15.3 28.06 15.31 28.69V28.68Z" fill="black"/>
<path d="M16.67 23.3301C16.67 23.7501 16.39 24.0701 16 24.0701C15.59 24.0701 15.28 23.7501 15.28 23.3201C15.28 22.9001 15.56 22.6201 15.98 22.6101C16.39 22.6101 16.67 22.8901 16.67 23.3201V23.3301Z" fill="black"/>
<path d="M33.45 27.7401C33.48 27.1101 33.98 26.6501 34.61 26.6801C35.23 26.7001 35.69 27.1901 35.67 27.8001C35.65 28.4201 35.08 28.9901 34.5 28.9501C33.92 28.9101 33.42 28.3401 33.44 27.7501L33.45 27.7401Z" fill="black"/>
<path d="M34.48 24.45C34.08 24.45 33.78 24.11 33.79 23.67C33.79 23.24 34.09 22.96 34.5 22.97C34.9 22.99 35.23 23.35 35.21 23.75C35.19 24.15 34.87 24.46 34.48 24.45Z" fill="black"/>
<path d="M22.23 3.4L21.83 1.01C21.73 0.48 22.14 0 22.68 0H23.49C24.03 0 24.43 0.48 24.34 1.01L23.94 3.4C23.78 4.36 22.39 4.36 22.23 3.4Z" fill="black"/>
<path d="M25.89 4.20995L26.73 1.93995C26.92 1.43995 27.51 1.21995 27.98 1.48995L28.68 1.88995C29.14 2.15995 29.26 2.77995 28.91 3.18995L27.37 5.05995C26.75 5.80995 25.55 5.11995 25.89 4.20995Z" fill="black"/>
<path d="M20.4499 4.28002L19.6099 2.01002C19.4199 1.51002 18.8299 1.29002 18.3599 1.56002L17.6599 1.96002C17.1999 2.23002 17.0799 2.85002 17.4299 3.26002L18.9699 5.13002C19.5899 5.88002 20.7899 5.19002 20.4499 4.28002Z" fill="black"/>
</g>
<defs>
<clipPath id="clip0_1_836">
<rect width="45.95" height="49.84" fill="white"/>
</clipPath>
</defs>
</svg>
