<svg width="29" height="46" viewBox="0 0 29 46" fill="none" xmlns="http://www.w3.org/2000/svg">
<g clip-path="url(#clip0_1_542)">
<path d="M11.02 11.0999C10.01 10.4399 9.26002 9.55989 8.74002 8.47989C7.18002 5.27989 8.86002 0.609892 13.2 0.049892C16.36 -0.360108 19.1 1.61989 19.83 4.75989C20.33 6.92989 19.17 9.65989 17.35 10.8499C17.06 11.0399 17.01 11.1999 17.13 11.5299C18.24 14.4999 19.34 17.4699 20.44 20.4399C22.78 26.7899 25.12 33.1399 27.46 39.4799C27.67 40.0399 27.86 40.5999 28.03 41.1699C28.18 41.6699 28.02 42.1099 27.7 42.4999C27.16 43.1499 26.46 43.5499 25.7 43.8699C24.05 44.5599 22.3 44.8999 20.54 45.1899C17.7 45.6599 14.83 45.7199 11.96 45.6199C9.05002 45.5199 6.17002 45.1999 3.39002 44.2799C2.59002 44.0099 1.81002 43.6299 1.09002 43.1799C0.0900242 42.5599 -0.269976 41.7399 0.210024 40.4499C2.32002 34.8399 4.41002 29.2299 6.49002 23.6099C7.99002 19.5299 9.46002 15.4399 10.94 11.3499C10.97 11.2699 10.99 11.1899 11.02 11.0899V11.0999ZM2.56002 41.3799C3.60002 41.7399 4.57002 42.0599 5.53002 42.3999C5.79002 42.4899 6.01002 42.4899 6.26002 42.3899C7.64002 41.8399 9.02002 41.2999 10.4 40.7499C13.6 39.4799 16.8 38.2099 20 36.9399C21.11 36.4999 22.21 36.0699 23.37 35.6099C22.82 34.1299 22.29 32.6799 21.75 31.2299C21.65 31.2599 21.61 31.2599 21.58 31.2699C18.26 32.5399 14.93 33.7999 11.61 35.0699C9.12002 36.0199 6.63002 36.9799 4.14002 37.9499C3.97002 38.0099 3.76002 38.1399 3.70002 38.2899C3.30002 39.2999 2.94002 40.3199 2.55002 41.3799H2.56002ZM5.92002 32.4799C10.73 30.6199 15.45 28.7999 20.21 26.9599C19.69 25.6199 19.19 24.3099 18.68 22.9699C18.24 23.1299 17.84 23.2799 17.44 23.4299C14.4 24.5999 11.37 25.7799 8.33002 26.9399C7.99002 27.0699 7.77002 27.2599 7.65002 27.6199C7.17002 28.9999 6.67002 30.3799 6.18002 31.7599C6.10002 31.9699 6.03002 32.1899 5.93002 32.4799H5.92002ZM14.67 11.8899C14.28 11.8899 13.92 11.8799 13.57 11.8899C13.47 11.8899 13.33 11.9899 13.3 12.0799C12.85 13.2499 12.4 14.4199 11.97 15.5999C11.28 17.4899 10.6 19.3799 9.91002 21.2699C9.88002 21.3499 9.87002 21.4399 9.83002 21.5599C12.31 20.5999 14.74 19.6699 17.19 18.7199C16.35 16.4399 15.51 14.1699 14.66 11.8799L14.67 11.8899ZM13.51 1.88989C12.08 2.01989 10.62 2.97989 10.2 4.69989C10.08 5.19989 10.26 5.56989 10.65 5.67989C10.98 5.76989 11.26 5.54989 11.42 5.07989C11.71 4.19989 12.3 3.60989 13.17 3.29989C13.36 3.22989 13.56 3.17989 13.76 3.09989C14.05 2.98989 14.29 2.81989 14.23 2.45989C14.17 2.12989 13.86 1.89989 13.51 1.88989Z" fill="black"/>
<path d="M13.51 1.88989C13.86 1.88989 14.17 2.12989 14.23 2.45989C14.29 2.81989 14.05 2.98989 13.76 3.09989C13.57 3.16989 13.37 3.22989 13.17 3.29989C12.3 3.61989 11.71 4.19989 11.42 5.07989C11.27 5.54989 10.98 5.76989 10.65 5.67989C10.25 5.56989 10.08 5.19989 10.2 4.69989C10.62 2.97989 12.08 2.01989 13.51 1.88989Z" fill="#231F20"/>
</g>
<defs>
<clipPath id="clip0_1_542">
<rect width="28.08" height="45.67" fill="white"/>
</clipPath>
</defs>
</svg>
