<svg width="43" height="28" viewBox="0 0 43 28" fill="none" xmlns="http://www.w3.org/2000/svg">
<path d="M1.65698 10.08C2.50396 10.4026 3.82707 9.85814 4.64263 9.71951C7.09286 9.30301 9.5529 8.96525 12.0149 8.63134C16.4407 8.03111 20.6538 6.57576 25.0151 5.7035C28.684 4.96972 32.3505 4.0673 35.9715 3.12932C36.3951 3.01958 40.7084 2.12282 40.7084 1.87793" stroke="#215174" stroke-width="3" stroke-linecap="round"/>
<path d="M1.77942 10.4472C1.8013 10.6441 2.17356 10.6613 2.3167 10.6785C3.72332 10.8472 5.05574 11.1264 6.3565 11.7122C7.85346 12.3863 9.29249 13.2284 10.7228 14.0314C11.3586 14.3883 12.3769 14.7184 12.8447 15.3031C13.0406 15.548 12.9947 15.9041 13.0827 16.2077C13.5115 17.6868 14.0501 19.1022 14.5585 20.5535C14.9582 21.6946 15.2769 22.8716 15.7215 23.9948C15.8329 24.2763 16.1793 26.2677 16.4492 25.7971C17.1378 24.5966 17.2204 22.8576 17.4116 21.5193C17.5591 20.4863 17.715 19.4388 17.7516 18.3942C17.7746 17.7393 18.2905 17.7071 18.8126 17.3435C20.0566 16.477 21.3078 15.6033 22.5259 14.7013C26.1008 12.054 29.6425 9.3742 33.2001 6.69986C35.2579 5.153 37.4912 3.84709 39.5455 2.3064" stroke="#215174" stroke-width="3" stroke-linecap="round"/>
<path d="M12.9806 14.8543C14.2086 14.0728 15.561 13.4833 16.8572 12.8276C19.2351 11.6248 21.5218 10.2501 23.903 9.05305C27.3399 7.32527 30.7178 5.42866 34.2202 3.83667" stroke="#215174" stroke-width="3" stroke-linecap="round"/>
<path d="M16.0411 26.0555C16.0431 26.0623 19.2344 23.9072 19.5029 23.716C20.6761 22.8799 21.8976 22.015 22.9578 21.0364" stroke="#215174" stroke-width="3" stroke-linecap="round"/>
<path d="M18.4895 18.5269C19.212 18.5649 20.0292 19.1082 20.6318 19.4178C22.3731 20.3125 23.8659 21.5796 25.5558 22.5531C27.0428 23.4098 28.5759 24.1646 30.0308 25.0763C30.4975 25.3687 31.4758 26.1654 32.0779 26.1202C32.5443 26.0853 32.753 25.0913 32.8601 24.7702C33.1979 23.7566 33.491 22.727 33.7952 21.703C34.5941 19.0135 35.505 16.3616 36.2742 13.6642C36.965 11.2415 37.6667 8.80172 38.4811 6.41768C38.9997 4.89942 39.7121 3.45906 40.2188 1.93921" stroke="#215174" stroke-width="3" stroke-linecap="round"/>
</svg>
