<svg width="36" height="35" viewBox="0 0 36 35" fill="none" xmlns="http://www.w3.org/2000/svg">
<path d="M0.822108 17.7789C0.792087 8.39383 8.53759 0.539178 18.1069 0.591692C27.406 0.644207 34.9488 8.19127 35.1815 17.3363C35.4217 26.9839 27.5936 34.9286 18.1219 34.9586C8.57511 34.9886 0.837119 27.284 0.822108 17.7789ZM13.9264 32.5204C20.3059 34.5685 29.0572 31.6127 32.3145 23.3379C35.5493 15.1232 31.1887 6.01568 22.8953 3.20991C14.5343 0.389137 5.56548 5.12293 3.28386 13.6603C1.03976 22.0701 5.90322 29.2795 11.9525 31.7777C11.9525 31.5902 11.9525 31.4101 11.9525 31.2301C11.96 30.2173 12.0351 29.212 12.2827 28.2292C12.9282 25.6635 13.5587 23.0978 14.1891 20.5246C14.2191 20.4121 14.2191 20.2696 14.1741 20.1645C13.7613 19.0692 13.6487 17.9439 13.8589 16.7961C14.024 15.9034 14.3692 15.1007 15.0822 14.5005C15.7577 13.9303 16.5458 13.7428 17.3864 14.0354C18.1894 14.3129 18.5647 14.9656 18.6848 15.7683C18.7899 16.451 18.6698 17.1262 18.4897 17.7864C18.1369 19.0467 17.7616 20.2996 17.4164 21.5599C17.0711 22.8128 17.7391 24.0356 18.9775 24.4257C19.8406 24.6958 20.6662 24.5607 21.4468 24.1331C22.3924 23.6155 23.0154 22.7978 23.4882 21.86C24.4189 20.007 24.7116 18.019 24.6215 15.9709C24.5164 13.6078 23.1204 11.7397 20.8989 10.952C19.698 10.5244 18.4521 10.4344 17.1912 10.5919C15.2549 10.832 13.6412 11.6647 12.3953 13.1801C11.4647 14.3129 10.9318 15.6183 10.7817 17.0737C10.6391 18.4541 10.7742 19.7819 11.6973 20.9223C11.9075 21.1848 11.9375 21.4624 11.8324 21.785C11.6973 22.1976 11.5772 22.6252 11.4647 23.0453C11.4046 23.2779 11.262 23.4054 11.0294 23.3904C10.8717 23.3829 10.7066 23.3379 10.5565 23.2779C9.62586 22.8728 8.92036 22.2051 8.44752 21.3124C7.58441 19.6844 7.40428 17.9364 7.72701 16.1509C8.20735 13.4952 9.64838 11.4397 11.8549 9.91674C13.2734 8.94148 14.8571 8.37882 16.5608 8.13876C18.4221 7.86868 20.2609 7.9362 22.0622 8.53637C25.8749 9.80421 28.4717 13.3077 28.2841 17.2838C28.1865 19.2943 27.8338 21.2373 26.8806 23.0228C25.6572 25.326 23.8334 26.8489 21.1916 27.2615C20.1108 27.434 19.0526 27.359 18.0393 26.8939C17.3488 26.5713 16.7484 26.1287 16.3206 25.461C16.2981 25.5135 16.2756 25.536 16.2681 25.566C16.0729 26.3387 15.9003 27.1189 15.6902 27.8917C15.4275 28.8369 15.1648 29.7897 14.8271 30.7124C14.5944 31.3426 14.2341 31.9203 13.9264 32.5354V32.5204Z" fill="black"/>
</svg>
