<svg width="59" height="47" viewBox="0 0 59 47" fill="none" xmlns="http://www.w3.org/2000/svg">
<g clip-path="url(#clip0_1_610)">
<path d="M32.5563 10.2161C32.9402 8.10244 33.9885 7.0456 35.9965 6.69332C36.971 6.51718 37.9454 6.297 38.9347 6.23829C39.9239 6.17957 40.5145 5.78326 40.8689 4.84385C41.2085 3.94847 41.6809 3.1118 42.1239 2.26046C42.8769 0.777951 44.1171 0 45.7708 0C47.3949 0 48.6056 0.777951 49.3291 2.24578C49.8458 3.28794 50.4069 4.30075 50.8941 5.35759C51.1156 5.84197 51.4257 6.04747 51.9424 6.12086C53.1827 6.297 54.4229 6.5025 55.6632 6.69332C57.2282 6.94285 58.2618 7.86758 58.7638 9.32074C59.2805 10.8179 58.9409 12.1977 57.8484 13.3573C56.9772 14.2673 56.0618 15.1187 55.1316 15.9553C54.7773 16.2783 54.6296 16.5865 54.733 17.0856C54.9692 18.2158 55.0578 19.3901 55.3088 20.5203C55.8256 22.8542 54.2753 24.9091 52.0015 25.3348C51.8391 25.3641 51.6619 25.4082 51.4404 25.4669C51.4404 25.7898 51.4404 26.1127 51.4404 26.421C51.4404 31.3382 51.3371 36.2555 51.47 41.158C51.5586 44.3873 49.2257 47.0147 45.5493 47C32.3053 46.9413 19.0613 46.9706 5.81732 46.9853C4.20796 46.9853 2.74625 46.6037 1.57983 45.4441C0.575826 44.4313 0 43.2277 0 41.7892C0 33.0116 0 24.2339 0 15.4563C0 12.5206 2.33283 10.2308 5.31532 10.2308C14.0265 10.2308 22.7377 10.2308 31.4637 10.2308C31.8181 10.2308 32.1577 10.2308 32.5563 10.2308V10.2161ZM4.9019 12.8289C4.82808 12.9316 4.75425 13.049 4.68043 13.1518C4.96096 13.3426 5.28579 13.4894 5.53679 13.7096C8.19444 16.1168 10.8521 18.524 13.5098 20.946C17.2157 24.322 20.9217 27.7127 24.6424 31.074C25.4692 31.8373 26.045 31.8226 26.8719 31.074C29.8987 28.3292 32.9107 25.5696 35.9079 22.8101C36.0556 22.678 36.1737 22.4432 36.2032 22.2523C36.3951 20.5643 36.528 18.8616 36.779 17.1736C36.8676 16.5865 36.7347 16.2636 36.3361 15.8966C35.4502 15.0893 34.5496 14.2967 33.7523 13.416C33.3536 12.9903 32.9992 12.8142 32.4234 12.8142C23.5646 12.8289 14.6909 12.8142 5.83208 12.8142C5.52202 12.8142 5.21196 12.8142 4.91667 12.8142L4.9019 12.8289ZM19.9915 30.3548C14.8976 34.9785 9.86286 39.5581 4.68043 44.2698H46.7895C41.5923 39.5434 36.5576 34.9785 31.4785 30.3548C30.5778 31.1621 29.7362 31.9254 28.9094 32.6886C26.6799 34.7436 24.7753 34.7436 22.5458 32.6886C21.719 31.9254 20.8774 31.1621 19.9915 30.3548ZM38.7575 20.9753C38.728 22.4138 39.6729 23.0156 40.795 22.4578C42.1239 21.7826 43.4379 21.0928 44.7372 20.3735C45.4459 19.9772 46.0956 19.9772 46.7895 20.4029C48.0445 21.1515 49.3143 21.856 50.5989 22.5459C51.7505 23.1624 52.7397 22.5312 52.6807 21.2249C52.6807 20.9606 52.6364 20.7111 52.5921 20.4469C52.3706 19.1259 52.1787 17.8048 51.9129 16.4984C51.7653 15.7792 52.0015 15.2655 52.5035 14.7958C53.5813 13.7683 54.6296 12.7114 55.6927 11.6839C56.1652 11.2289 56.4457 10.7592 56.2095 10.0693C55.988 9.42348 55.5303 9.20331 54.8954 9.11524C53.4485 8.92442 52.0163 8.63086 50.5693 8.48407C49.7277 8.396 49.2553 7.99969 48.9157 7.28045C48.3103 5.98876 47.6459 4.7411 47.0258 3.44941C46.7452 2.87695 46.3761 2.49532 45.7117 2.49532C45.0325 2.49532 44.6634 2.86227 44.3829 3.43473C43.748 4.77046 43.0688 6.09151 42.4192 7.42723C42.1239 8.0584 41.6809 8.396 40.9575 8.48407C39.481 8.66021 38.0193 8.92442 36.5428 9.12992C35.8636 9.21799 35.2878 9.54091 35.2287 10.1868C35.1844 10.6418 35.4502 11.2436 35.775 11.5959C36.72 12.6234 37.7535 13.5775 38.7723 14.5315C39.3776 15.0893 39.6582 15.6911 39.481 16.5425C39.1857 18.0837 38.9495 19.6249 38.728 20.9753H38.7575ZM2.71672 42.4644C7.89915 37.7527 12.9339 33.1877 18.013 28.5787C12.9044 23.9403 7.89915 19.3901 2.71672 14.7077V42.4644ZM33.516 28.5934C38.5951 33.2317 43.6151 37.7967 48.7237 42.4497C48.8271 41.9066 48.9747 41.5397 48.9747 41.1874C48.9747 35.8151 48.9895 30.4282 48.9747 25.0559C48.9747 24.8064 48.768 24.4541 48.5466 24.322C46.9126 23.3043 45.254 23.2309 43.5708 24.1018C43.4675 24.1605 43.3641 24.2046 43.2608 24.2633C41.5333 25.3348 39.7615 25.8485 37.8864 24.6743C36.4099 26.01 35.0073 27.2723 33.5308 28.5934H33.516Z" fill="black"/>
<path d="M4.90201 12.8289C5.21207 12.8289 5.52213 12.8289 5.81742 12.8289C14.6763 12.8289 23.5499 12.8289 32.4088 12.8289C32.9846 12.8289 33.3389 13.005 33.7376 13.4307C34.5349 14.3114 35.4355 15.104 36.3214 15.9113C36.7201 16.2783 36.853 16.6012 36.7644 17.1883C36.5134 18.8763 36.3805 20.579 36.1885 22.267C36.159 22.4725 36.0409 22.6927 35.8932 22.8248C32.8812 25.5843 29.8692 28.3438 26.8572 31.0887C26.0304 31.8373 25.4693 31.8373 24.6277 31.0887C20.907 27.7127 17.2158 24.3367 13.4951 20.9606C10.8374 18.5387 8.19455 16.1315 5.52213 13.7242C5.27113 13.5041 4.9463 13.3426 4.66577 13.1665C4.7396 13.0637 4.81342 12.9463 4.88724 12.8435L4.90201 12.8289Z" fill="white"/>
<path d="M19.9915 30.3547C20.8774 31.162 21.719 31.9253 22.5458 32.6886C24.7753 34.7436 26.6799 34.7436 28.9094 32.6886C29.7362 31.9253 30.5926 31.162 31.4785 30.3547C36.5575 34.9637 41.5923 39.5434 46.7895 44.2698H4.68042C9.86285 39.558 14.8976 34.9784 19.9915 30.3547Z" fill="white"/>
<path d="M38.7575 20.9753C38.979 19.6249 39.2152 18.0837 39.5105 16.5424C39.6729 15.6911 39.4072 15.0893 38.8018 14.5315C37.7683 13.5774 36.7495 12.6233 35.8046 11.5958C35.4797 11.2436 35.214 10.6418 35.2583 10.1867C35.3173 9.54088 35.8931 9.21796 36.5723 9.12989C38.0488 8.93907 39.5105 8.66018 40.987 8.48404C41.7105 8.39597 42.1534 8.05837 42.4487 7.4272C43.0836 6.09147 43.7775 4.77042 44.4124 3.43469C44.6929 2.86224 45.0621 2.4806 45.7412 2.49528C46.4204 2.49528 46.7895 2.87692 47.0553 3.44937C47.6607 4.74107 48.3398 5.98872 48.9452 7.28042C49.2848 7.99965 49.7573 8.39597 50.5989 8.48404C52.0458 8.63082 53.478 8.92439 54.9249 9.11521C55.5598 9.20328 56.0175 9.40877 56.239 10.0693C56.4752 10.7592 56.1947 11.2289 55.7222 11.6839C54.6444 12.7114 53.6109 13.7682 52.533 14.7957C52.031 15.2801 51.7948 15.7792 51.9424 16.4984C52.2082 17.8048 52.4002 19.1258 52.6216 20.4469C52.6659 20.7111 52.7102 20.9606 52.7102 21.2248C52.7545 22.5165 51.78 23.1624 50.6284 22.5459C49.3438 21.856 48.0741 21.1368 46.8191 20.4028C46.1104 19.9772 45.4755 19.9772 44.7668 20.3735C43.4675 21.0927 42.1534 21.7826 40.8246 22.4578C39.7025 23.0303 38.7575 22.4138 38.787 20.9753H38.7575Z" fill="white"/>
<path d="M2.7168 42.4645V14.7078C7.88446 19.4048 12.9045 23.9551 18.0131 28.5788C12.934 33.1878 7.91399 37.7527 2.7168 42.4645Z" fill="white"/>
<path d="M33.516 28.5933C34.9925 27.2722 36.3951 25.9952 37.8716 24.6742C39.7467 25.8338 41.5185 25.32 43.246 24.2632C43.3493 24.2045 43.4527 24.1604 43.556 24.1017C45.2392 23.2406 46.8978 23.314 48.5317 24.3219C48.7532 24.454 48.9599 24.8063 48.9599 25.0558C48.9895 30.4281 48.9747 35.815 48.9599 41.1873C48.9599 41.5542 48.827 41.9065 48.7089 42.4496C43.6003 37.7966 38.5951 33.2316 33.5012 28.5933H33.516Z" fill="white"/>
</g>
<defs>
<clipPath id="clip0_1_610">
<rect width="59" height="47" fill="white"/>
</clipPath>
</defs>
</svg>
