<svg width="46" height="44" viewBox="0 0 46 44" fill="none" xmlns="http://www.w3.org/2000/svg">
<g clip-path="url(#clip0_1_562)">
<path d="M13.72 16.6801C13.88 16.4901 14.04 16.2801 14.21 16.1001C15.87 14.3601 17.52 12.6101 19.19 10.8801C19.59 10.4601 20 10.0201 20.47 9.69011C22.43 8.31011 25.33 9.10011 26.34 11.2801C26.45 11.5101 26.56 11.5001 26.75 11.4301C28.05 10.8901 29.33 10.9501 30.53 11.6901C31.42 12.2401 32.02 13.0101 32.31 14.0701C32.52 14.8301 32.51 15.5501 32.34 16.2801C32.28 16.5501 32.43 16.6101 32.61 16.6801C33.46 17.0201 34.15 17.5701 34.62 18.3501C35.44 19.7101 35.44 21.1101 34.69 22.5001C34.52 22.8101 34.59 22.9101 34.85 23.0601C36.11 23.8301 36.76 24.9701 36.74 26.4501C36.73 27.3401 36.4 28.1301 35.81 28.7901C34.14 30.6201 32.46 32.4301 30.79 34.2601C29.14 36.0601 27.5 37.8701 25.85 39.6601C25.45 40.0901 25.02 40.4901 24.61 40.9001C24.56 40.9501 24.54 41.0101 24.48 41.1001C25.05 41.1001 25.59 41.1601 26.11 41.1001C28.72 40.7701 30.78 39.4701 32.49 37.5201C33.93 35.8701 35.46 34.2901 36.95 32.6801C38.96 30.5001 40.98 28.3201 42.99 26.1401C43.47 25.6201 43.46 24.8201 42.98 24.3501C42.48 23.8601 41.69 23.8901 41.18 24.4301C40.83 24.7901 40.5 25.1701 40.15 25.5301C39.57 26.1201 38.86 26.1301 38.27 25.6001C37.84 25.2101 37.78 24.2901 38.27 23.7801C39.13 22.8901 39.96 21.9901 40.78 21.0701C41.13 20.6801 41.49 20.2801 41.73 19.8301C42.05 19.2201 41.77 18.3801 41.21 17.9801C40.63 17.5701 39.76 17.6101 39.25 18.1001C38.88 18.4501 38.54 18.8201 38.2 19.1901C37.71 19.7201 36.94 19.8001 36.4 19.3601C35.85 18.9101 35.77 18.1401 36.26 17.5701C36.84 16.9001 37.46 16.2601 38.06 15.6001C38.43 15.2001 38.82 14.8001 39.16 14.3801C39.67 13.7501 39.57 12.6901 39 12.1901C38.29 11.5801 37.34 11.5801 36.7 12.2001C36.27 12.6201 35.89 13.0801 35.44 13.4701C34.98 13.8701 34.35 13.8401 33.92 13.4801C33.41 13.0501 33.27 12.4301 33.59 11.8701C33.71 11.6601 33.87 11.4601 34.05 11.3001C34.62 10.7701 35.15 10.1601 35.8 9.75011C37.38 8.74011 39.63 9.11011 40.89 10.5101C42.12 11.8801 42.35 13.4201 41.66 15.1101C41.58 15.3101 41.63 15.3701 41.8 15.4501C43.36 16.1501 44.27 17.3501 44.4 19.0701C44.46 19.9001 44.27 20.7001 43.8 21.4201C43.67 21.6201 43.61 21.7701 43.89 21.9201C46.04 23.0401 46.63 25.9701 44.81 27.9201C43.11 29.7401 41.43 31.5701 39.75 33.4001C37.73 35.5901 35.72 37.7901 33.68 39.9601C31.98 41.7701 29.88 42.9201 27.45 43.4601C25.38 43.9201 23.33 43.7701 21.29 43.1901C21.03 43.1101 20.7 43.1401 20.44 43.2201C19.22 43.6001 17.97 43.8101 16.7 43.7901C14.36 43.7501 12.17 43.0901 10.11 41.9901C8.53998 41.1601 7.07998 40.1501 5.74998 38.9701C3.66998 37.1401 1.87998 35.0701 0.859975 32.4501C-0.120025 29.9201 -0.260025 27.3501 0.479975 24.7201C1.00998 22.8401 2.05997 21.2901 3.24997 19.7801C4.35997 18.3701 5.40998 16.9101 6.50998 15.4901C6.92998 14.9501 7.34998 14.3901 7.85998 13.9301C9.04998 12.8401 11.27 12.8801 12.45 14.1801C13 14.7801 13.32 15.4601 13.5 16.2301C13.53 16.3601 13.57 16.5001 13.6 16.6301C13.64 16.6601 13.69 16.6801 13.73 16.7101L13.72 16.6801ZM17.18 41.2101C17.91 41.1901 19 41.0501 20.04 40.6401C21.39 40.1101 22.6 39.3701 23.6 38.3101C24.49 37.3601 25.36 36.3901 26.24 35.4301C27.48 34.0801 28.72 32.7401 29.95 31.3901C31.26 29.9501 32.58 28.5101 33.88 27.0601C34.31 26.5801 34.24 25.8201 33.76 25.4201C33.23 24.9601 32.54 25.0001 32.06 25.5101C30.43 27.2901 28.79 29.0701 27.16 30.8501C26.66 31.4001 25.84 31.4701 25.32 31.0201C24.77 30.5401 24.71 29.7801 25.23 29.2001C26.35 27.9401 27.5 26.7001 28.64 25.4501C29.83 24.1401 31.05 22.8501 32.22 21.5301C32.45 21.2701 32.61 20.8801 32.65 20.5301C32.73 19.8901 32.31 19.3301 31.67 19.0501C31.12 18.8101 30.5 18.9301 30.03 19.4301C29.37 20.1301 28.73 20.8401 28.08 21.5501C27.15 22.5601 26.23 23.5701 25.3 24.5901C24.39 25.5901 23.48 26.5901 22.56 27.5701C22.03 28.1401 21.2 28.1901 20.7 27.7101C20.16 27.1901 20.15 26.4301 20.68 25.8501C22.56 23.7901 24.45 21.7401 26.34 19.6801C27.41 18.5101 28.48 17.3501 29.55 16.1701C30.03 15.6401 30.06 14.8901 29.63 14.2501C29.29 13.7401 28.49 13.4401 27.92 13.7201C27.53 13.9101 27.18 14.2401 26.88 14.5701C25.56 15.9701 24.27 17.3901 22.97 18.8101C21.65 20.2601 20.34 21.7101 19.02 23.1601C18.84 23.3601 18.66 23.5701 18.44 23.7201C17.91 24.0801 17.17 23.9801 16.77 23.5201C16.33 23.0101 16.36 22.2701 16.85 21.7301C18.3 20.1401 19.76 18.5501 21.22 16.9601C22.12 15.9801 23.02 15.0101 23.9 14.0201C24.41 13.4401 24.31 12.4901 23.74 11.9801C23.12 11.4301 22.21 11.4301 21.66 11.9801C21.06 12.5901 20.47 13.2101 19.88 13.8301C18.32 15.4601 16.76 17.0801 15.21 18.7101C13.27 20.7501 11.34 22.8001 9.39997 24.8401C8.82998 25.4401 7.92998 25.3801 7.43998 24.7101C7.04998 24.1801 7.10998 23.5801 7.57998 23.0401C8.08998 22.4601 8.61998 21.8901 9.09998 21.2901C9.91998 20.2501 10.6 19.1301 10.91 17.8301C11.03 17.3301 11.06 16.8301 10.86 16.3401C10.56 15.6001 9.72997 15.4501 9.22997 16.0801C8.67997 16.7501 8.16998 17.4501 7.63998 18.1401C6.59998 19.5201 5.56998 20.9001 4.52998 22.2701C2.50998 24.9201 2.03997 27.8401 3.02997 30.9801C3.63998 32.9201 4.81998 34.5301 6.24998 35.9601C7.65998 37.3701 9.20998 38.5901 10.96 39.5601C12.77 40.5601 14.68 41.2301 17.16 41.2201L17.18 41.2101Z" fill="black"/>
<path d="M23.85 6.15998C23.45 6.19998 23.13 6.01998 22.87 5.75998C22 4.89998 21.13 4.04998 20.28 3.16998C19.58 2.44998 19.56 1.39998 20.19 0.639978C20.73 -0.0200216 21.8 -0.200022 22.56 0.279978C22.86 0.469978 23.11 0.749978 23.37 0.999978C23.76 1.35998 23.95 1.35998 24.32 0.999978C24.56 0.769978 24.79 0.529979 25.05 0.349978C25.8 -0.180021 26.89 -2.15173e-05 27.5 0.709978C28.1 1.41998 28.07 2.47998 27.42 3.14998C26.57 4.00998 25.71 4.85998 24.86 5.71998C24.58 6.00998 24.26 6.20998 23.85 6.17998V6.15998Z" fill="black"/>
<path d="M14.76 4.32006C15.05 4.47006 15.39 4.56006 15.63 4.77006C16.13 5.21006 16.6 5.69006 17.05 6.18006C17.57 6.74006 17.55 7.58006 17.04 8.04006C16.47 8.56006 15.67 8.54006 15.11 7.98006C14.7 7.57006 14.28 7.15006 13.86 6.74006C13.4 6.28006 13.27 5.75006 13.49 5.20006C13.69 4.70006 14.14 4.40006 14.7 4.40006C14.71 4.37006 14.73 4.34006 14.74 4.31006L14.76 4.32006Z" fill="black"/>
<path d="M31.53 8.41006C30.97 8.42006 30.6 8.11006 30.36 7.65006C30.13 7.19006 30.18 6.71006 30.51 6.33006C31.01 5.76006 31.53 5.20006 32.11 4.71006C32.74 4.18006 33.4 4.29006 33.93 4.85006C34.43 5.37006 34.39 6.15006 33.86 6.68006C33.42 7.12006 32.97 7.55006 32.54 7.99006C32.26 8.28006 31.92 8.40006 31.53 8.41006Z" fill="black"/>
</g>
<defs>
<clipPath id="clip0_1_562">
<rect width="45.88" height="43.76" fill="white"/>
</clipPath>
</defs>
</svg>
