<svg width="42" height="42" viewBox="0 0 42 42" fill="none" xmlns="http://www.w3.org/2000/svg">
<path d="M12.0636 15.9265C14.7224 14.6573 17.4269 13.5708 19.3548 11.2151C20.7345 9.53512 21.6299 7.60859 22.3791 5.59988C22.6623 4.84205 22.9638 4.08422 23.3019 3.35379C24.1151 1.57334 25.8328 0.705949 27.6967 1.08943C29.5697 1.48204 30.8306 3.03422 30.8489 4.98814C30.858 6.30293 30.8672 7.61772 30.8306 8.93251C30.7484 11.7903 29.9352 14.4108 28.318 16.7847C28.2632 16.8669 28.2083 16.9582 28.1078 17.1134C28.3363 17.1134 28.4916 17.1134 28.6469 17.1134C31.525 17.1134 34.394 17.1134 37.272 17.1134C38.9989 17.1134 40.3694 18.0995 40.8354 19.6608C41.3288 21.286 40.6892 22.9478 39.2365 23.8426C39.1725 23.8882 39.0994 23.9247 38.9989 23.9978C39.7024 24.9565 39.9765 26.0156 39.6842 27.1752C39.3918 28.3165 38.67 29.1291 37.601 29.6313C39.072 31.8774 38.0669 34.2787 36.2304 35.137C36.4223 35.8126 36.7147 36.47 36.7878 37.1457C36.9888 39.1818 35.3807 40.9713 33.325 40.9805C30.1271 41.0079 26.9292 41.0079 23.7313 40.9713C21.1547 40.9348 18.6695 40.3322 16.1935 39.6474C14.96 39.3096 13.7083 38.9992 12.4657 38.6796C12.3469 38.6522 12.2281 38.6339 12.2281 38.6339C11.9631 39.0813 11.7895 39.547 11.4697 39.8483C11.2139 40.0948 10.7754 40.25 10.4099 40.2592C8.60993 40.2957 6.80085 40.3048 5.0009 40.2592C2.79893 40.2044 1.04467 38.3966 1.00812 36.187C0.989848 34.8631 1.00812 33.53 1.00812 32.2061C1.00812 27.5861 1.00812 22.966 1.00812 18.346C1.00812 16.3282 2.28727 14.6847 4.206 14.2191C4.5532 14.1369 4.9278 14.1004 5.29328 14.1004C6.91049 14.0912 8.51856 14.1004 10.1358 14.1004C11.3692 14.1004 11.9814 14.6664 12.091 15.9447L12.0636 15.9265ZM12.0362 36.8261C12.1733 36.8626 12.2829 36.8992 12.4017 36.9265C13.827 37.3009 15.2524 37.657 16.6777 38.0405C19.1812 38.707 21.6847 39.3005 24.3069 39.2913C27.2581 39.2822 30.2184 39.2913 33.1696 39.2913C34.3026 39.2913 35.1432 38.4513 35.1249 37.3465C35.1158 36.2509 34.2934 35.4474 33.1788 35.4383C32.0275 35.4383 30.8763 35.4383 29.7251 35.4383C29.0946 35.4383 28.7109 35.1005 28.72 34.5709C28.72 34.0596 29.1038 33.7583 29.7159 33.7491C31.3788 33.7491 33.0508 33.7491 34.7137 33.7491C35.9563 33.7491 36.8426 32.5804 36.5502 31.3843C36.3127 30.4256 35.6457 29.8961 34.6041 29.8869C33.4803 29.8778 32.3564 29.8961 31.2326 29.8687C30.9677 29.8687 30.657 29.7774 30.456 29.613C30.1819 29.403 30.1179 29.0652 30.2641 28.7274C30.4195 28.3804 30.6844 28.2069 31.059 28.2069C32.7402 28.2069 34.4214 28.2069 36.1025 28.2069C36.7512 28.2069 37.2995 27.9969 37.6923 27.4582C38.1674 26.81 38.2314 26.1069 37.8842 25.3856C37.5461 24.6734 36.9431 24.3265 36.1482 24.3265C34.9239 24.3265 33.7087 24.3265 32.4844 24.3082C32.0093 24.3082 31.6895 23.9521 31.6803 23.5047C31.6712 23.0574 31.9727 22.7195 32.4387 22.6647C32.5849 22.6465 32.7402 22.6465 32.8864 22.6465C34.3391 22.6465 35.7919 22.6739 37.2355 22.6282C37.6467 22.6191 38.1035 22.5004 38.4598 22.2995C39.1816 21.8704 39.4466 20.9482 39.1908 20.1173C38.9441 19.3139 38.2588 18.7934 37.4 18.7843C36.0203 18.7752 34.6315 18.7843 33.2519 18.7843C31.0042 18.7843 28.7474 18.7843 26.4998 18.7843C25.9607 18.7843 25.5587 18.4647 25.5861 17.9717C25.5952 17.7343 25.7231 17.4786 25.8602 17.2778C26.7556 16.0543 27.6419 14.8217 28.2083 13.3973C29.1038 11.1695 29.2591 8.85033 29.1494 6.49467C29.1312 6.07467 29.1129 5.65467 29.1494 5.23466C29.2317 4.0477 28.5555 3.04335 27.4409 2.74204C26.3353 2.44987 25.2937 2.92465 24.8095 4.02944C24.2795 5.2438 23.8318 6.48554 23.3293 7.71815C22.0502 10.859 20.1131 13.4977 17.1346 15.2234C15.6087 16.1091 13.9824 16.8395 12.3834 17.6065C12.091 17.7525 12.0088 17.9078 12.0088 18.2182C12.018 24.2717 12.0088 30.3343 12.0088 36.3878V36.8078L12.0362 36.8261ZM10.3276 38.6066V15.7895C10.2363 15.7895 10.1723 15.7712 10.1084 15.7712C8.4272 15.7712 6.74603 15.7621 5.06486 15.7712C3.7583 15.7895 2.68929 16.8669 2.68015 18.1634C2.68015 24.1621 2.68015 30.1609 2.68015 36.1687C2.68015 37.4013 3.63038 38.4696 4.85471 38.5518C6.0699 38.6248 7.29423 38.5974 8.50943 38.6066C9.10332 38.6066 9.69721 38.6066 10.3276 38.6066Z" fill="black" stroke="#231F20" stroke-width="0.8" stroke-miterlimit="10"/>
</svg>
